<svg xmlns="http://www.w3.org/2000/svg" width="127.02" height="114.717" viewBox="0 0 127.02 114.717">
  <g id="Grupo_3955" data-name="Grupo 3955" transform="translate(-111.98 -334)">
    <g id="Retângulo_611" data-name="Retângulo 611" transform="translate(112 334)" fill="#584f6e" stroke="#584f6e" stroke-width="1">
      <rect width="127" height="94" rx="15" stroke="none"/>
      <rect x="0.5" y="0.5" width="126" height="93" rx="14.5" fill="none"/>
    </g>
    <g id="Retângulo_612" data-name="Retângulo 612" transform="translate(136 354)" fill="#fff" stroke="#584f6e" stroke-width="1">
      <rect width="79" height="15" stroke="none"/>
      <rect x="0.5" y="0.5" width="78" height="14" fill="none"/>
    </g>
    <g id="Retângulo_613" data-name="Retângulo 613" transform="translate(136 394)" fill="#fff" stroke="#584f6e" stroke-width="1">
      <rect width="79" height="15" stroke="none"/>
      <rect x="0.5" y="0.5" width="78" height="14" fill="none"/>
    </g>
    <g id="Retângulo_614" data-name="Retângulo 614" transform="translate(136 374)" fill="#fff" stroke="#584f6e" stroke-width="1">
      <rect width="79" height="15" stroke="none"/>
      <rect x="0.5" y="0.5" width="78" height="14" fill="none"/>
    </g>
    <g id="Caminho_22436" data-name="Caminho 22436" transform="translate(114 411.449)" fill="#584f6e">
      <path d="M -1.519533395767212 36.06819152832031 L -1.519533395767212 3.779759168624878 L 24.23935699462891 10.55087947845459 L -1.519533395767212 36.06819152832031 Z" stroke="none"/>
      <path d="M -1.019533157348633 4.428176879882812 L -1.019533157348633 34.86908340454102 L 23.26544570922852 10.81185722351074 L -1.019533157348633 4.428176879882812 M -2.019533157348633 3.131343841552734 L 25.21326637268066 10.28990364074707 L -2.019533157348633 37.26730346679688 L -2.019533157348633 3.131343841552734 Z" stroke="none" fill="#584f6e"/>
    </g>
  </g>
</svg>
