<svg xmlns="http://www.w3.org/2000/svg" width="131.267" height="164.569" viewBox="0 0 131.267 164.569">
  <g id="Camada_x0020_1" transform="translate(-1293.55 -3597.031)">
    <path id="Caminho_25139" data-name="Caminho 25139" d="M1391.8,9313.666h127.279V9264.11H1391.8Z" transform="translate(-96.256 -5552.066)" fill="#a8518a"/>
    <path id="Caminho_25140" data-name="Caminho 25140" d="M1333.017,9244.855h128.867a.407.407,0,0,0,0-.814H1333.017a.407.407,0,1,0,0,.814Z" transform="translate(-38.267 -5532.404)" fill="#6a3b82"/>
    <path id="Caminho_25141" data-name="Caminho 25141" d="M5869.567,4462.734h20a.407.407,0,0,0,0-.814h-20a.407.407,0,0,0,0,.814Z" transform="translate(-4482.748 -847.336)" fill="#67676a"/>
    <path id="Caminho_25142" data-name="Caminho 25142" d="M2634.3,4623.124h13.581a.407.407,0,0,0,0-.814H2634.3a.407.407,0,1,0,0,.814Z" transform="translate(-1313.138 -1004.471)" fill="#67676a"/>
    <path id="Caminho_25143" data-name="Caminho 25143" d="M1490.757,6214.794h13.581a.407.407,0,1,0,0-.813h-13.581a.407.407,0,1,0,0,.813Z" transform="translate(-192.806 -2563.838)" fill="#67676a"/>
    <path id="Caminho_25144" data-name="Caminho 25144" d="M6974.477,6070.964h13.581a.407.407,0,0,0,0-.814h-13.581a.407.407,0,1,0,0,.814Z" transform="translate(-5565.234 -2422.927)" fill="#67676a"/>
    <path id="Caminho_25145" data-name="Caminho 25145" d="M6411.6,5781.044h13.58a.407.407,0,0,0,0-.814H6411.6a.407.407,0,1,0,0,.814Z" transform="translate(-5013.777 -2138.89)" fill="#67676a"/>
    <path id="Caminho_25146" data-name="Caminho 25146" d="M1293.957,7704.735h13.58a.407.407,0,0,0,0-.814h-13.58a.407.407,0,0,0,0,.814Z" transform="translate(0 -4023.54)" fill="#67676a"/>
    <path id="Caminho_25147" data-name="Caminho 25147" d="M3866,4249.963h-.407a1.178,1.178,0,1,1-.345-.834,1.171,1.171,0,0,1,.345.834h.814a1.993,1.993,0,1,0-.583,1.408,1.985,1.985,0,0,0,.583-1.408Z" transform="translate(-2516.735 -637.728)" fill="#67676a"/>
    <path id="Caminho_25148" data-name="Caminho 25148" d="M1553.558,6938.884h-.407a1.179,1.179,0,1,1-.346-.834,1.173,1.173,0,0,1,.346.834h.814a1.993,1.993,0,1,0-.584,1.408,1.988,1.988,0,0,0,.584-1.408Z" transform="translate(-251.226 -3272.076)" fill="#67676a"/>
    <path id="Caminho_25149" data-name="Caminho 25149" d="M2230.228,5307.824h-.407a1.179,1.179,0,1,1-.345-.835,1.171,1.171,0,0,1,.345.835h.814a1.99,1.99,0,1,0-.583,1.408,1.992,1.992,0,0,0,.583-1.408Z" transform="translate(-914.163 -1674.118)" fill="#67676a"/>
    <path id="Caminho_25150" data-name="Caminho 25150" d="M7568.668,6467.823h-.407a1.175,1.175,0,1,1-.344-.833,1.177,1.177,0,0,1,.344.833h.815a2,2,0,1,0-.586,1.409,1.982,1.982,0,0,0,.586-1.409Z" transform="translate(-6144.259 -2810.576)" fill="#67676a"/>
    <path id="Caminho_25151" data-name="Caminho 25151" d="M1835.309,8287.192h-.407a1.178,1.178,0,1,1-.345-.833,1.17,1.17,0,0,1,.345.833h.814a1.993,1.993,0,1,0-.584,1.409,1.988,1.988,0,0,0,.584-1.409Z" transform="translate(-527.258 -4593.023)" fill="#67676a"/>
    <path id="Caminho_25152" data-name="Caminho 25152" d="M6713.479,7354.982h-.407a1.177,1.177,0,1,1-.345-.834,1.171,1.171,0,0,1,.345.834h.815a2,2,0,1,0-.585,1.408,1.99,1.99,0,0,0,.585-1.408Z" transform="translate(-5306.426 -3679.731)" fill="#67676a"/>
    <path id="Caminho_25153" data-name="Caminho 25153" d="M2186,7017.031h-.407a1.179,1.179,0,1,1-.345-.832,1.171,1.171,0,0,1,.345.832h.814a1.993,1.993,0,1,0-.584,1.41,1.987,1.987,0,0,0,.584-1.41Z" transform="translate(-870.831 -3348.64)" fill="#67676a"/>
    <path id="Caminho_25154" data-name="Caminho 25154" d="M6676.987,4810.449l.054,2.864a.407.407,0,0,0,.813-.015l-.053-2.864a.407.407,0,0,0-.814.015Z" transform="translate(-5274.18 -1188.386)" fill="#67676a"/>
    <path id="Caminho_25155" data-name="Caminho 25155" d="M6681.988,5081.482l.053,2.863a.407.407,0,1,0,.814-.016l-.053-2.862a.407.407,0,1,0-.814.015Z" transform="translate(-5279.08 -1453.918)" fill="#67676a"/>
    <path id="Caminho_25156" data-name="Caminho 25156" d="M6749.02,5012.237l-2.863.054a.407.407,0,0,0,.015.814l2.864-.054a.407.407,0,1,0-.016-.814Z" transform="translate(-5341.555 -1386.484)" fill="#67676a"/>
    <path id="Caminho_25157" data-name="Caminho 25157" d="M6477.96,5017.295l-2.863.054a.407.407,0,1,0,.015.813l2.863-.053a.407.407,0,0,0-.015-.814Z" transform="translate(-5075.996 -1391.439)" fill="#67676a"/>
    <path id="Caminho_25158" data-name="Caminho 25158" d="M6727.979,4867.81l-1.988,2.064a.407.407,0,1,0,.586.563l1.988-2.062a.407.407,0,0,0-.587-.565Z" transform="translate(-5322.079 -1244.866)" fill="#67676a"/>
    <path id="Caminho_25159" data-name="Caminho 25159" d="M6539.876,5063.036l-1.988,2.063a.407.407,0,0,0,.585.564l1.988-2.062a.407.407,0,1,0-.585-.565Z" transform="translate(-5137.793 -1436.13)" fill="#67676a"/>
    <path id="Caminho_25160" data-name="Caminho 25160" d="M6730.353,5063.267l-2.062-1.988a.407.407,0,0,0-.565.587l2.063,1.988a.407.407,0,0,0,.564-.587Z" transform="translate(-5323.767 -1434.42)" fill="#67676a"/>
    <path id="Caminho_25161" data-name="Caminho 25161" d="M6535.128,4875.2l-2.062-1.988a.407.407,0,1,0-.565.586l2.062,1.987a.407.407,0,0,0,.565-.585Z" transform="translate(-5132.505 -1250.167)" fill="#67676a"/>
    <path id="Caminho_25162" data-name="Caminho 25162" d="M2635.857,8156.471l.053,2.864a.407.407,0,1,0,.814-.016l-.054-2.863a.407.407,0,0,0-.814.015Z" transform="translate(-1315.065 -4466.5)" fill="#67676a"/>
    <path id="Caminho_25163" data-name="Caminho 25163" d="M2640.886,8427.521l.053,2.862a.407.407,0,0,0,.814-.016l-.053-2.862a.407.407,0,1,0-.814.016Z" transform="translate(-1319.992 -4732.048)" fill="#67676a"/>
    <path id="Caminho_25164" data-name="Caminho 25164" d="M2707.909,8358.3l-2.863.054a.407.407,0,1,0,.015.813l2.863-.054a.407.407,0,1,0-.015-.813Z" transform="translate(-1382.458 -4664.635)" fill="#67676a"/>
    <path id="Caminho_25165" data-name="Caminho 25165" d="M2436.83,8363.338l-2.864.054a.406.406,0,1,0,.016.813l2.863-.053a.407.407,0,1,0-.015-.813Z" transform="translate(-1116.88 -4669.575)" fill="#67676a"/>
    <path id="Caminho_25166" data-name="Caminho 25166" d="M2686.847,8213.838l-1.988,2.063a.408.408,0,0,0,.586.566l1.987-2.063a.407.407,0,0,0-.586-.565Z" transform="translate(-1362.961 -4522.987)" fill="#67676a"/>
    <path id="Caminho_25167" data-name="Caminho 25167" d="M2498.753,8409.048l-1.988,2.063a.407.407,0,1,0,.586.564l1.989-2.062a.407.407,0,1,0-.586-.565Z" transform="translate(-1178.684 -4714.234)" fill="#67676a"/>
    <path id="Caminho_25168" data-name="Caminho 25168" d="M2689.225,8409.308l-2.062-1.988a.407.407,0,0,0-.564.587l2.062,1.987a.407.407,0,1,0,.564-.586Z" transform="translate(-1364.655 -4712.552)" fill="#67676a"/>
    <path id="Caminho_25169" data-name="Caminho 25169" d="M2493.987,8221.221l-2.062-1.988a.407.407,0,0,0-.565.586l2.062,1.987a.407.407,0,1,0,.565-.585Z" transform="translate(-1173.378 -4528.283)" fill="#67676a"/>
    <path id="Caminho_25170" data-name="Caminho 25170" d="M1702.437,5384.431l.053,2.864a.407.407,0,1,0,.814-.016l-.053-2.862a.407.407,0,0,0-.814.014Z" transform="translate(-400.588 -1750.719)" fill="#67676a"/>
    <path id="Caminho_25171" data-name="Caminho 25171" d="M1707.447,5655.41l.053,2.865a.407.407,0,0,0,.814-.016l-.053-2.865a.407.407,0,0,0-.814.016Z" transform="translate(-405.496 -2016.198)" fill="#67676a"/>
    <path id="Caminho_25172" data-name="Caminho 25172" d="M1774.49,5586.218l-2.864.053a.407.407,0,0,0,.015.814l2.864-.053a.407.407,0,0,0-.015-.814Z" transform="translate(-467.982 -1948.817)" fill="#67676a"/>
    <path id="Caminho_25173" data-name="Caminho 25173" d="M1503.42,5591.276l-2.865.053a.407.407,0,0,0,.015.814l2.864-.053a.407.407,0,0,0-.015-.814Z" transform="translate(-202.413 -1953.771)" fill="#67676a"/>
    <path id="Caminho_25174" data-name="Caminho 25174" d="M1753.43,5441.74l-1.988,2.064a.407.407,0,1,0,.586.563l1.988-2.062a.407.407,0,1,0-.586-.565Z" transform="translate(-448.487 -1807.149)" fill="#67676a"/>
    <path id="Caminho_25175" data-name="Caminho 25175" d="M1565.36,5636.963l-1.988,2.063a.407.407,0,1,0,.586.563l1.988-2.062a.407.407,0,1,0-.586-.565Z" transform="translate(-264.235 -1998.409)" fill="#67676a"/>
    <path id="Caminho_25176" data-name="Caminho 25176" d="M1755.8,5637.254l-2.062-1.988a.407.407,0,0,0-.565.586l2.062,1.987a.407.407,0,0,0,.565-.585Z" transform="translate(-450.175 -1996.758)" fill="#67676a"/>
    <path id="Caminho_25177" data-name="Caminho 25177" d="M1560.57,5449.119l-2.062-1.988a.407.407,0,0,0-.565.586l2.062,1.988a.407.407,0,1,0,.565-.586Z" transform="translate(-258.905 -1812.441)" fill="#67676a"/>
    <path id="Caminho_25178" data-name="Caminho 25178" d="M7283.126,7832.792l.053,2.863a.407.407,0,0,0,.814-.016l-.054-2.863a.407.407,0,1,0-.813.016Z" transform="translate(-5868.018 -4149.39)" fill="#67676a"/>
    <path id="Caminho_25179" data-name="Caminho 25179" d="M7288.125,8103.841l.053,2.863a.407.407,0,0,0,.814-.015l-.054-2.863a.407.407,0,0,0-.813.015Z" transform="translate(-5872.915 -4414.939)" fill="#67676a"/>
    <path id="Caminho_25180" data-name="Caminho 25180" d="M7355.158,8034.627l-2.863.054a.407.407,0,0,0,.015.813l2.862-.054a.407.407,0,1,0-.014-.813Z" transform="translate(-5935.392 -4347.534)" fill="#67676a"/>
    <path id="Caminho_25181" data-name="Caminho 25181" d="M7084.071,8039.7l-2.863.053a.407.407,0,1,0,.016.814l2.862-.054a.407.407,0,1,0-.015-.813Z" transform="translate(-5669.805 -4352.5)" fill="#67676a"/>
    <path id="Caminho_25182" data-name="Caminho 25182" d="M7334.1,7890.165l-1.987,2.063a.407.407,0,0,0,.586.565l1.987-2.062a.407.407,0,1,0-.586-.565Z" transform="translate(-5915.896 -4205.882)" fill="#67676a"/>
    <path id="Caminho_25183" data-name="Caminho 25183" d="M7146.021,8085.376l-1.988,2.063a.407.407,0,0,0,.586.565l1.987-2.063a.407.407,0,0,0-.585-.565Z" transform="translate(-5731.635 -4397.132)" fill="#67676a"/>
    <path id="Caminho_25184" data-name="Caminho 25184" d="M7336.487,8085.669l-2.061-1.988a.407.407,0,0,0-.565.587l2.061,1.987a.409.409,0,0,0,.576-.011A.4.4,0,0,0,7336.487,8085.669Z" transform="translate(-5917.602 -4395.482)" fill="#67676a"/>
    <path id="Caminho_25185" data-name="Caminho 25185" d="M7141.215,7897.55l-2.064-1.988a.407.407,0,1,0-.564.586l2.063,1.988a.407.407,0,0,0,.565-.586Z" transform="translate(-5726.29 -4211.181)" fill="#67676a"/>
    <path id="Caminho_25186" data-name="Caminho 25186" d="M2273.317,10206.666c-14.6,0-26.435-2.354-26.435-5.257,0-.586.484-1.149,1.377-1.678l-.555,1.952h8.3l.6-.858.5.835-.007.023h10.659l.4-.274h0l.267-.183.585-.4-.047.858h9.318a2.608,2.608,0,0,0-.117-.408l-2.413-8.476h-21.391a1.288,1.288,0,0,0-1.357-1.039,1.448,1.448,0,0,0-.172.009l-.849.229c.022-.029.055-.058.041-.075a.648.648,0,0,0-.144-.129s0,0,0,0a.342.342,0,0,0-.088.07.33.33,0,0,1-.089.071h0c-.021-.011.082-.194.06-.2a.645.645,0,0,0-.236-.044h0l-.594-.165v-3.843c1.811-.044,3.669-.066,5.563-.066.921,0,1.83.006,2.732.018,1.834-1.458,5.787-2.609,10.749-3.125l.082,1.079a2.345,2.345,0,0,0,.212.233h-.212l-6.8,1.444v1.624h10.175v-3.044a.23.23,0,0,0,.03-.024l.229-1.567q1.051-.04,2.138-.039c9.787,0,17.722,2.354,17.722,5.256,0,1.019-.981,1.971-2.674,2.776a1.023,1.023,0,0,1,.253.625c0,1.379-3.507,2.633-9.235,3.571,10.389.708,17.859,2.665,17.859,4.971C2299.752,10204.313,2287.916,10206.666,2273.317,10206.666Zm7.546-20.85-1.715,1.444v1.624h5.868v-1.624l-1.788-1.444Zm-32.108,12.176c-15.406-.535-26.9-2.626-26.9-5.125s11.5-4.593,26.913-5.125v6.334h.553a.567.567,0,0,0,.093.092.019.019,0,0,0,.015,0l-.039.089a.625.625,0,0,0-.206.465h0a.621.621,0,0,0,.23.484.024.024,0,0,0,.018,0,.35.35,0,0,0,.1-.024c.01,0,.02-.007.03-.009l-.283.994h0Z" transform="translate(-909.46 -6453.492)" fill="#a97797"/>
    <path id="Caminho_25187" data-name="Caminho 25187" d="M2905.273,10272.188c0,.662-2.743,1.2-6.126,1.2s-6.127-.538-6.127-1.2c0,0,1.281-7.336,1.316-7.479a17.383,17.383,0,0,1,4.822-.41c2.348,0,4.4.006,4.856.553C2904.014,10264.853,2905.273,10272.106,2905.273,10272.188Z" transform="translate(-1567.009 -6531.956)" fill="#3c536f"/>
    <path id="Caminho_25188" data-name="Caminho 25188" d="M2919.173,10415.287l-.573,3.723c0,.981,2.48,1.469,5.541,1.469C2924.141,10420.479,2923.172,10413.9,2919.173,10415.287Z" transform="translate(-1592.07 -6679.692)" fill="#477496"/>
    <path id="Caminho_25189" data-name="Caminho 25189" d="M2967.021,10266.589l-.306-1.765c-.453-.549-2.509-.554-4.857-.554a17.427,17.427,0,0,0-4.822.409c-.01.041-.057-.264.068.617C2957.1,10265.3,2964.693,10267.758,2967.021,10266.589Z" transform="translate(-1629.71 -6531.928)" fill="#384c65"/>
    <path id="Caminho_25190" data-name="Caminho 25190" d="M2935.542,10211.888c0,.662-2.46,1.2-5.5,1.2s-5.5-.538-5.5-1.2a8.624,8.624,0,0,1,.038-.916,22.188,22.188,0,0,1,5.457-.41c2.657,0,4.985.006,5.5.555Z" transform="translate(-1597.899 -6479.309)" fill="#3c536f"/>
    <path id="Caminho_25191" data-name="Caminho 25191" d="M2935.542,10169.37c0,.724-2.46,1.31-5.5,1.31s-5.5-.586-5.5-1.31,2.461-1.31,5.5-1.31S2935.542,10168.646,2935.542,10169.37Z" transform="translate(-1597.899 -6437.67)" fill="#477496"/>
    <path id="Caminho_25192" data-name="Caminho 25192" d="M2963.6,10179.8c0,.591-2.194,1.07-4.9,1.07s-4.9-.479-4.9-1.07,2.2-1.071,4.9-1.071S2963.6,10179.21,2963.6,10179.8Z" transform="translate(-1626.555 -6448.124)" fill="#303e52"/>
    <path id="Caminho_25193" data-name="Caminho 25193" d="M3561.5,8704.869a.517.517,0,1,1,.517-.517A.517.517,0,0,1,3561.5,8704.869Zm0-1.339a.822.822,0,1,0,.823.822A.821.821,0,0,0,3561.5,8703.53Z" transform="translate(-2221.119 -5002.862)" fill="#303e52"/>
    <path id="Caminho_25194" data-name="Caminho 25194" d="M3568.59,8801.324h1.323v-30.9h-1.323Z" transform="translate(-2228.868 -5068.395)" fill="#b7b7b8"/>
    <path id="Caminho_25195" data-name="Caminho 25195" d="M3614.62,8801.324h.389v-30.9h-.389Z" transform="translate(-2273.964 -5068.395)" fill="#f1f1f0"/>
    <path id="Caminho_25196" data-name="Caminho 25196" d="M3568.59,8801.324H3569v-30.9h-.406Z" transform="translate(-2228.868 -5068.395)" fill="#8e8f91"/>
    <path id="Caminho_25197" data-name="Caminho 25197" d="M3554.88,8771h1.879v-.572h-1.879Z" transform="translate(-2215.437 -5068.404)" fill="#3c536f"/>
    <path id="Caminho_25198" data-name="Caminho 25198" d="M3547.91,10183h2.163V10172.9h-2.163Z" transform="translate(-2208.608 -6442.412)" fill="#3c536f"/>
    <path id="Caminho_25199" data-name="Caminho 25199" d="M3550.073,10183h-2.163l2.163-10.095Z" transform="translate(-2208.608 -6442.412)" fill="#303e52"/>
    <path id="Caminho_25200" data-name="Caminho 25200" d="M3637.42,10618.042l-2.08.4,3.65.954A1.346,1.346,0,0,0,3637.42,10618.042Z" transform="translate(-2294.264 -6878.51)" fill="#f0d0a2"/>
    <path id="Caminho_25201" data-name="Caminho 25201" d="M3684.3,10644.225l-1.356.086,2.587.744C3685.465,10644.1,3684.3,10644.225,3684.3,10644.225Z" transform="translate(-2340.897 -6904.165)" fill="#bca583"/>
    <path id="Caminho_25202" data-name="Caminho 25202" d="M3706.584,10628.552c-.137-.011,1.1-.2,1.1-.2A4.248,4.248,0,0,1,3706.584,10628.552Z" transform="translate(-2364.052 -6888.618)" fill="#bca583"/>
    <path id="Caminho_25203" data-name="Caminho 25203" d="M3612.174,10638.4l-2.214.058,3.087,1.512C3612.991,10638.4,3612.174,10638.4,3612.174,10638.4Z" transform="translate(-2269.399 -6898.465)" fill="#d6bb93"/>
    <path id="Caminho_25204" data-name="Caminho 25204" d="M3640.757,10645.529l-1.577-.609,2.427,1.438C3641.564,10645.4,3640.757,10645.529,3640.757,10645.529Z" transform="translate(-2298.026 -6904.852)" fill="#9b896e"/>
    <path id="Caminho_25205" data-name="Caminho 25205" d="M3639.18,10640.942a10.643,10.643,0,0,1,1.911.372S3639.517,10641.057,3639.18,10640.942Z" transform="translate(-2298.026 -6900.947)" fill="#9b896e"/>
    <path id="Caminho_25206" data-name="Caminho 25206" d="M3600.112,10649.224l-1.662-.464,1.269,1.574S3600.511,10649.681,3600.112,10649.224Z" transform="translate(-2258.122 -6908.614)" fill="#9b896e"/>
    <path id="Caminho_25207" data-name="Caminho 25207" d="M3650.858,10672.256a.624.624,0,0,1-.625.624.631.631,0,0,1-.161-.021c-.046-.012.041-.139,0-.161-.017-.009-.064.007-.112.022s-.1.032-.117.021a.624.624,0,0,1-.011-.961c.023-.021.179.043.179.043l-.026-.139a.613.613,0,0,1,.251-.054.605.605,0,0,1,.227.043c.021.01-.078.186-.058.2s.048-.031.087-.067.08-.073.088-.067a.6.6,0,0,1,.138.124c.021.026-.069.08-.053.11s.15.048.163.088A.6.6,0,0,1,3650.858,10672.256Z" transform="translate(-2308.244 -6931.021)" fill="#7b6d58"/>
    <path id="Caminho_25208" data-name="Caminho 25208" d="M3661.1,10683.167a.4.4,0,0,1,.556,0,.492.492,0,0,1,.063.081c.015.027-.08.044-.07.072s.118.06.12.084a.387.387,0,0,1-.113.319.393.393,0,0,1-.31.113c-.019,0-.061-.1-.061-.1l-.05.074a.389.389,0,0,1-.135-.088.421.421,0,0,1-.082-.119c-.005-.014.118-.048.113-.062s-.136-.006-.139-.019a.418.418,0,0,1-.005-.118c0-.02.067,0,.072-.024s-.044-.086-.034-.111A.448.448,0,0,1,3661.1,10683.167Z" transform="translate(-2319.384 -6942.21)" fill="#9b896e"/>
    <path id="Caminho_25209" data-name="Caminho 25209" d="M3569.328,10649.316l-.485-.566-.483,1.087S3569.727,10649.775,3569.328,10649.316Z" transform="translate(-2228.643 -6908.604)" fill="#9b896e"/>
    <path id="Caminho_25210" data-name="Caminho 25210" d="M3569.608,10672.256a.624.624,0,0,1-.625.624.617.617,0,0,1-.16-.021c-.047-.012.04-.139,0-.161-.017-.009-.065.007-.113.022s-.1.032-.118.021a.625.625,0,0,1-.01-.961c.023-.021.179.043.179.043l-.027-.139a.615.615,0,0,1,.251-.054.6.6,0,0,1,.227.043c.022.01-.078.186-.057.2s.048-.031.087-.067.079-.073.087-.067a.566.566,0,0,1,.138.124c.023.026-.069.08-.052.11s.149.048.163.088A.618.618,0,0,1,3569.608,10672.256Z" transform="translate(-2228.643 -6931.021)" fill="#7b6d58"/>
    <path id="Caminho_25211" data-name="Caminho 25211" d="M3579.829,10683.167a.4.4,0,0,1,.556,0,.505.505,0,0,1,.061.081c.016.027-.079.044-.07.072s.119.06.121.084a.392.392,0,0,1-.423.433c-.02,0-.061-.1-.061-.1l-.05.074a.373.373,0,0,1-.135-.088.4.4,0,0,1-.082-.119c-.005-.014.117-.048.113-.062s-.135-.006-.139-.019a.377.377,0,0,1-.005-.118c0-.02.066,0,.072-.024s-.045-.086-.033-.111A.4.4,0,0,1,3579.829,10683.167Z" transform="translate(-2239.765 -6942.21)" fill="#9b896e"/>
    <path id="Caminho_25212" data-name="Caminho 25212" d="M3384.52,10618.046l2,.405-3.573.954A1.349,1.349,0,0,1,3384.52,10618.046Z" transform="translate(-2046.996 -6878.514)" fill="#f0d0a2"/>
    <path id="Caminho_25213" data-name="Caminho 25213" d="M3388.961,10644.225l1.28.086-2.511.742C3387.793,10644.1,3388.961,10644.225,3388.961,10644.225Z" transform="translate(-2051.679 -6904.165)" fill="#bca583"/>
    <path id="Caminho_25214" data-name="Caminho 25214" d="M3438.162,10628.742a12.394,12.394,0,0,0-1.312-.412A4.563,4.563,0,0,0,3438.162,10628.742Z" transform="translate(-2099.802 -6888.599)" fill="#bca583"/>
    <path id="Caminho_25215" data-name="Caminho 25215" d="M3437.185,10641.441l1.924-.151-3.009,1.509C3436.155,10641.232,3437.185,10641.441,3437.185,10641.441Z" transform="translate(-2099.067 -6901.295)" fill="#d6bb93"/>
    <path id="Caminho_25216" data-name="Caminho 25216" d="M3440.241,10645.517l1.5-.606-2.351,1.437C3439.433,10645.389,3440.241,10645.517,3440.241,10645.517Z" transform="translate(-2102.29 -6904.842)" fill="#9b896e"/>
    <path id="Caminho_25217" data-name="Caminho 25217" d="M3466.683,10640.942a9.682,9.682,0,0,0-1.833.371S3466.345,10641.057,3466.683,10640.942Z" transform="translate(-2127.234 -6900.947)" fill="#9b896e"/>
    <path id="Caminho_25218" data-name="Caminho 25218" d="M3516.88,10649.224l1.494-.464-1.1,1.574S3516.482,10649.681,3516.88,10649.224Z" transform="translate(-2178.098 -6908.614)" fill="#9b896e"/>
    <path id="Caminho_25219" data-name="Caminho 25219" d="M3491.58,10672.255a.623.623,0,0,0,.624.623.8.8,0,0,0,.161-.019c.047-.014-.04-.139,0-.162s.2.066.229.044a.629.629,0,0,0,.232-.486.62.62,0,0,0-.222-.477c-.022-.019-.179.044-.179.044l.028-.139a.622.622,0,0,0-.252-.054.606.606,0,0,0-.227.044c-.021.007.078.185.058.2s-.157-.147-.175-.136a.613.613,0,0,0-.139.124c-.021.027.07.08.052.11s-.148.048-.162.087A.628.628,0,0,0,3491.58,10672.255Z" transform="translate(-2153.421 -6931.02)" fill="#7b6d58"/>
    <path id="Caminho_25220" data-name="Caminho 25220" d="M3503.617,10683.167a.4.4,0,0,0-.556,0,.547.547,0,0,0-.062.081c-.014.027.08.044.071.072s-.117.06-.121.084a.392.392,0,0,0,.423.433c.019,0,.061-.1.061-.1l.049.074a.372.372,0,0,0,.135-.088.4.4,0,0,0,.082-.119c.006-.014-.117-.048-.113-.062s.135-.006.137-.019a.4.4,0,0,0,.006-.118c0-.02-.067,0-.072-.024s.045-.086.033-.111A.418.418,0,0,0,3503.617,10683.167Z" transform="translate(-2164.557 -6942.21)" fill="#9b896e"/>
    <path id="Caminho_25221" data-name="Caminho 25221" d="M3637.633,10556.25l-2.292.615,3.863.742A1.348,1.348,0,0,0,3637.633,10556.25Z" transform="translate(-2294.264 -6817.973)" fill="#f0d0a2"/>
    <path id="Caminho_25222" data-name="Caminho 25222" d="M3684.509,10582.424l-1.569.3,2.8.531C3685.677,10582.3,3684.509,10582.424,3684.509,10582.424Z" transform="translate(-2340.897 -6843.618)" fill="#bca583"/>
    <path id="Caminho_25223" data-name="Caminho 25223" d="M3706.655,10567.044a12.178,12.178,0,0,1,1.312-.415A4.629,4.629,0,0,1,3706.655,10567.044Z" transform="translate(-2364.123 -6828.15)" fill="#bca583"/>
    <path id="Caminho_25224" data-name="Caminho 25224" d="M3612.174,10586.547l-2.214.059,3.3,1.3C3613.2,10586.336,3612.174,10586.547,3612.174,10586.547Z" transform="translate(-2269.399 -6847.654)" fill="#d6bb93"/>
    <path id="Caminho_25225" data-name="Caminho 25225" d="M3640.968,10593.916l-1.788-.4,2.639,1.227C3641.776,10593.789,3640.968,10593.916,3640.968,10593.916Z" transform="translate(-2298.026 -6854.495)" fill="#9b896e"/>
    <path id="Caminho_25226" data-name="Caminho 25226" d="M3639.18,10589.27a16.992,16.992,0,0,1,2.123.159A16.6,16.6,0,0,1,3639.18,10589.27Z" transform="translate(-2298.026 -6850.318)" fill="#9b896e"/>
    <path id="Caminho_25227" data-name="Caminho 25227" d="M3600.505,10597.823l-2.055-.463,1.662,1.573S3600.9,10598.282,3600.505,10597.823Z" transform="translate(-2258.122 -6858.257)" fill="#9b896e"/>
    <path id="Caminho_25228" data-name="Caminho 25228" d="M3670.158,10620.855a.628.628,0,0,1-.784.6c-.048-.015.04-.138,0-.161a.249.249,0,0,0-.111.023c-.051.016-.1.031-.118.019a.622.622,0,0,1-.011-.961c.023-.02.179.044.179.044l-.027-.139a.6.6,0,0,1,.251-.054.651.651,0,0,1,.227.042c.02.009-.078.187-.059.2s.049-.032.088-.069.079-.073.088-.067a.644.644,0,0,1,.138.125c.021.025-.07.08-.053.11s.149.048.162.086A.618.618,0,0,1,3670.158,10620.855Z" transform="translate(-2327.152 -6880.664)" fill="#7b6d58"/>
    <path id="Caminho_25229" data-name="Caminho 25229" d="M3680.464,10631.76a.392.392,0,0,1,.555,0,.375.375,0,0,1,.063.08c.015.026-.08.044-.071.072s.118.06.121.084a.391.391,0,0,1-.423.432c-.02,0-.061-.1-.061-.1l-.049.074a.391.391,0,0,1-.136-.088.422.422,0,0,1-.083-.12c-.005-.014.118-.047.113-.062s-.135,0-.138-.018a.458.458,0,0,1-.006-.118c0-.021.067,0,.074-.024s-.046-.089-.034-.112A.37.37,0,0,1,3680.464,10631.76Z" transform="translate(-2338.359 -6891.846)" fill="#9b896e"/>
    <path id="Caminho_25230" data-name="Caminho 25230" d="M3569.328,10597.957l-.485-.568-.483,1.09S3569.727,10598.414,3569.328,10597.957Z" transform="translate(-2228.643 -6858.285)" fill="#9b896e"/>
    <path id="Caminho_25231" data-name="Caminho 25231" d="M3569.608,10620.855a.63.63,0,0,1-.785.6c-.047-.015.04-.138,0-.161a.253.253,0,0,0-.112.023c-.051.016-.1.031-.118.019a.625.625,0,0,1-.01-.961c.023-.02.179.044.179.044l-.027-.139a.6.6,0,0,1,.251-.054.641.641,0,0,1,.227.042c.022.009-.078.187-.057.2s.049-.032.088-.069.078-.073.087-.067a.591.591,0,0,1,.138.125c.023.025-.069.08-.052.11s.149.048.163.086A.639.639,0,0,1,3569.608,10620.855Z" transform="translate(-2228.643 -6880.664)" fill="#7b6d58"/>
    <path id="Caminho_25232" data-name="Caminho 25232" d="M3579.829,10631.76a.392.392,0,0,1,.617.08c.016.026-.079.044-.07.072s.119.06.121.084a.39.39,0,0,1-.423.432c-.02,0-.061-.1-.061-.1l-.05.074a.386.386,0,0,1-.135-.088.381.381,0,0,1-.082-.12c-.005-.014.117-.047.113-.062s-.135,0-.139-.018a.377.377,0,0,1-.005-.118c0-.021.066,0,.072-.024s-.045-.089-.033-.112A.371.371,0,0,1,3579.829,10631.76Z" transform="translate(-2239.765 -6891.846)" fill="#9b896e"/>
    <path id="Caminho_25233" data-name="Caminho 25233" d="M3370.26,10556.25l2.292.615-3.863.742A1.348,1.348,0,0,1,3370.26,10556.25Z" transform="translate(-2033.025 -6817.973)" fill="#f0d0a2"/>
    <path id="Caminho_25234" data-name="Caminho 25234" d="M3374.711,10582.424l1.569.3-2.8.531C3373.543,10582.3,3374.711,10582.424,3374.711,10582.424Z" transform="translate(-2037.718 -6843.618)" fill="#bca583"/>
    <path id="Caminho_25235" data-name="Caminho 25235" d="M3423.94,10567.044a12.085,12.085,0,0,0-1.31-.415A4.633,4.633,0,0,0,3423.94,10567.044Z" transform="translate(-2085.87 -6828.15)" fill="#bca583"/>
    <path id="Caminho_25236" data-name="Caminho 25236" d="M3422.9,10586.547l2.213.059-3.3,1.3C3421.866,10586.336,3422.9,10586.547,3422.9,10586.547Z" transform="translate(-2085.067 -6847.654)" fill="#d6bb93"/>
    <path id="Caminho_25237" data-name="Caminho 25237" d="M3425.941,10593.916l1.789-.4-2.64,1.227C3425.134,10593.789,3425.941,10593.916,3425.941,10593.916Z" transform="translate(-2088.281 -6854.495)" fill="#9b896e"/>
    <path id="Caminho_25238" data-name="Caminho 25238" d="M3452.732,10589.27a16.988,16.988,0,0,0-2.123.159A16.614,16.614,0,0,0,3452.732,10589.27Z" transform="translate(-2113.282 -6850.318)" fill="#9b896e"/>
    <path id="Caminho_25239" data-name="Caminho 25239" d="M3489.222,10597.823l2.054-.463-1.662,1.573S3488.822,10598.282,3489.222,10597.823Z" transform="translate(-2151 -6858.257)" fill="#9b896e"/>
    <path id="Caminho_25240" data-name="Caminho 25240" d="M3463.91,10620.855a.623.623,0,0,0,.624.623.63.63,0,0,0,.161-.02c.047-.014-.041-.138,0-.161s.2.066.23.042a.623.623,0,0,0,.011-.961c-.023-.02-.179.044-.179.044l.027-.139a.6.6,0,0,0-.251-.054.642.642,0,0,0-.227.042c-.021.009.078.187.057.2s-.157-.149-.175-.137a.649.649,0,0,0-.139.125c-.021.025.07.08.054.11s-.15.048-.163.086A.612.612,0,0,0,3463.91,10620.855Z" transform="translate(-2126.312 -6880.664)" fill="#7b6d58"/>
    <path id="Caminho_25241" data-name="Caminho 25241" d="M3475.961,10631.76a.394.394,0,0,0-.617.08c-.015.026.079.044.071.072s-.119.06-.122.084a.391.391,0,0,0,.423.432c.019,0,.062-.1.062-.1l.049.074a.385.385,0,0,0,.135-.088.393.393,0,0,0,.082-.12c.005-.014-.117-.047-.113-.062s.136,0,.139-.018a.437.437,0,0,0,.006-.118c0-.021-.067,0-.073-.024s.046-.089.034-.112A.378.378,0,0,0,3475.961,10631.76Z" transform="translate(-2137.462 -6891.846)" fill="#9b896e"/>
    <path id="Caminho_25242" data-name="Caminho 25242" d="M3639.077,10496.826l-2.167.42,3.8.994A1.4,1.4,0,0,0,3639.077,10496.826Z" transform="translate(-2295.802 -6759.754)" fill="#f0d0a2"/>
    <path id="Caminho_25243" data-name="Caminho 25243" d="M3687.913,10524.113l-1.413.089,2.694.774C3689.129,10523.979,3687.913,10524.113,3687.913,10524.113Z" transform="translate(-2344.385 -6786.491)" fill="#bca583"/>
    <path id="Caminho_25244" data-name="Caminho 25244" d="M3711.146,10507.79c-.143-.012,1.145-.21,1.145-.21A4.494,4.494,0,0,1,3711.146,10507.79Z" transform="translate(-2368.52 -6770.299)" fill="#bca583"/>
    <path id="Caminho_25245" data-name="Caminho 25245" d="M3612.815,10517.9l-2.305.063,3.214,1.573C3613.667,10517.9,3612.815,10517.9,3612.815,10517.9Z" transform="translate(-2269.938 -6780.41)" fill="#d6bb93"/>
    <path id="Caminho_25246" data-name="Caminho 25246" d="M3642.542,10525.354l-1.642-.633,2.529,1.5C3643.383,10525.221,3642.542,10525.354,3642.542,10525.354Z" transform="translate(-2299.711 -6787.092)" fill="#9b896e"/>
    <path id="Caminho_25247" data-name="Caminho 25247" d="M3640.9,10520.624a11.265,11.265,0,0,1,1.991.389S3641.251,10520.744,3640.9,10520.624Z" transform="translate(-2299.711 -6783.071)" fill="#9b896e"/>
    <path id="Caminho_25248" data-name="Caminho 25248" d="M3600.25,10529.222l-1.73-.481,1.322,1.638S3600.666,10529.7,3600.25,10529.222Z" transform="translate(-2258.191 -6791.03)" fill="#9b896e"/>
    <path id="Caminho_25249" data-name="Caminho 25249" d="M3653.05,10553.19a.649.649,0,0,1-.65.65.6.6,0,0,1-.167-.024c-.05-.011.042-.142,0-.164-.018-.011-.067.007-.116.022s-.107.035-.124.02a.643.643,0,0,1-.241-.5.652.652,0,0,1,.23-.5c.023-.02.186.047.186.047l-.029-.145a.657.657,0,0,1,.262-.055.65.65,0,0,1,.236.044c.021.009-.081.193-.06.2s.05-.033.091-.071.082-.077.091-.07a.657.657,0,0,1,.144.131c.022.026-.073.084-.056.113s.155.051.17.093A.66.66,0,0,1,3653.05,10553.19Z" transform="translate(-2310.34 -6814.348)" fill="#7b6d58"/>
    <path id="Caminho_25250" data-name="Caminho 25250" d="M3663.753,10564.5a.409.409,0,0,1,.579,0,.383.383,0,0,1,.064.084c.016.027-.083.047-.073.076s.123.061.125.086a.41.41,0,0,1-.117.333.418.418,0,0,1-.324.118c-.019,0-.063-.1-.063-.1l-.051.076a.411.411,0,0,1-.142-.092.416.416,0,0,1-.085-.125c-.006-.016.122-.05.117-.063s-.141-.006-.144-.02a.459.459,0,0,1-.006-.121c0-.021.07-.006.076-.026s-.047-.092-.035-.117A.4.4,0,0,1,3663.753,10564.5Z" transform="translate(-2321.983 -6825.949)" fill="#9b896e"/>
    <path id="Caminho_25251" data-name="Caminho 25251" d="M3568.138,10529.341l-.5-.591-.5,1.132S3568.554,10529.817,3568.138,10529.341Z" transform="translate(-2227.438 -6791.04)" fill="#9b896e"/>
    <path id="Caminho_25252" data-name="Caminho 25252" d="M3568.43,10553.19a.65.65,0,0,1-.65.65.6.6,0,0,1-.168-.024c-.048-.011.042-.142,0-.164-.018-.011-.067.007-.116.022s-.107.035-.123.02a.642.642,0,0,1-.241-.5.65.65,0,0,1,.23-.5c.023-.02.187.047.187.047l-.028-.145a.653.653,0,0,1,.5-.011c.022.009-.081.193-.059.2s.05-.033.09-.071.083-.077.092-.07a.686.686,0,0,1,.144.131c.022.026-.073.084-.055.113s.154.051.169.093A.653.653,0,0,1,3568.43,10553.19Z" transform="translate(-2227.438 -6814.348)" fill="#7b6d58"/>
    <path id="Caminho_25253" data-name="Caminho 25253" d="M3579.118,10564.5a.409.409,0,0,1,.579,0,.422.422,0,0,1,.065.084c.016.027-.083.047-.073.076s.122.061.125.086a.409.409,0,0,1-.44.451c-.02,0-.063-.1-.063-.1l-.052.076a.432.432,0,0,1-.141-.092.423.423,0,0,1-.085-.125c-.006-.016.122-.05.117-.063s-.141-.006-.144-.02a.413.413,0,0,1-.006-.121c0-.021.07-.006.075-.026s-.046-.092-.034-.117A.408.408,0,0,1,3579.118,10564.5Z" transform="translate(-2239.066 -6825.949)" fill="#9b896e"/>
    <path id="Caminho_25254" data-name="Caminho 25254" d="M3375.735,10496.727l2.085.421-3.72.993A1.4,1.4,0,0,1,3375.735,10496.727Z" transform="translate(-2038.325 -6759.656)" fill="#f0d0a2"/>
    <path id="Caminho_25255" data-name="Caminho 25255" d="M3380.322,10524.013l1.332.091-2.615.773C3379.1,10523.879,3380.322,10524.013,3380.322,10524.013Z" transform="translate(-2043.165 -6786.393)" fill="#bca583"/>
    <path id="Caminho_25256" data-name="Caminho 25256" d="M3431.6,10507.921a12.543,12.543,0,0,0-1.366-.431A4.783,4.783,0,0,0,3431.6,10507.921Z" transform="translate(-2093.316 -6770.211)" fill="#bca583"/>
    <path id="Caminho_25257" data-name="Caminho 25257" d="M3430.541,10521.148l2-.158-3.135,1.573C3429.467,10520.931,3430.541,10521.148,3430.541,10521.148Z" transform="translate(-2092.513 -6783.438)" fill="#d6bb93"/>
    <path id="Caminho_25258" data-name="Caminho 25258" d="M3433.746,10525.383l1.561-.633-2.447,1.5C3432.905,10525.25,3433.746,10525.383,3433.746,10525.383Z" transform="translate(-2095.893 -6787.121)" fill="#9b896e"/>
    <path id="Caminho_25259" data-name="Caminho 25259" d="M3461.289,10520.624a10.075,10.075,0,0,0-1.909.386S3460.937,10520.743,3461.289,10520.624Z" transform="translate(-2121.875 -6783.071)" fill="#9b896e"/>
    <path id="Caminho_25260" data-name="Caminho 25260" d="M3513.542,10529.222l1.556-.481-1.147,1.638S3513.125,10529.7,3513.542,10529.222Z" transform="translate(-2174.822 -6791.03)" fill="#9b896e"/>
    <path id="Caminho_25261" data-name="Caminho 25261" d="M3487.19,10553.19a.649.649,0,0,0,.65.648.631.631,0,0,0,.168-.021c.049-.012-.042-.143,0-.166s.207.069.24.043a.65.65,0,0,0,.01-1c-.024-.02-.186.045-.186.045l.028-.145a.648.648,0,0,0-.5-.01c-.022.009.082.193.061.205s-.164-.154-.182-.142a.593.593,0,0,0-.144.13c-.022.026.072.084.054.114s-.155.049-.169.092A.637.637,0,0,0,3487.19,10553.19Z" transform="translate(-2149.12 -6814.346)" fill="#7b6d58"/>
    <path id="Caminho_25262" data-name="Caminho 25262" d="M3499.731,10564.5a.408.408,0,0,0-.579,0,.4.4,0,0,0-.064.084c-.016.027.082.047.073.076s-.123.061-.127.086a.41.41,0,0,0,.442.451c.02,0,.063-.1.063-.1l.052.076a.416.416,0,0,0,.14-.092.412.412,0,0,0,.085-.125c.006-.016-.122-.05-.118-.063s.142-.006.144-.02a.4.4,0,0,0,.006-.121c0-.021-.069-.006-.074-.026s.046-.092.034-.117A.39.39,0,0,0,3499.731,10564.5Z" transform="translate(-2160.722 -6825.949)" fill="#9b896e"/>
    <path id="Caminho_25263" data-name="Caminho 25263" d="M3639.3,10432.428l-2.387.641,4.022.773A1.4,1.4,0,0,0,3639.3,10432.428Z" transform="translate(-2295.802 -6696.663)" fill="#f0d0a2"/>
    <path id="Caminho_25264" data-name="Caminho 25264" d="M3688.133,10459.71l-1.633.312,2.915.554C3689.351,10459.576,3688.133,10459.71,3688.133,10459.71Z" transform="translate(-2344.385 -6723.395)" fill="#bca583"/>
    <path id="Caminho_25265" data-name="Caminho 25265" d="M3711.219,10443.621a13.043,13.043,0,0,1,1.366-.431A4.746,4.746,0,0,1,3711.219,10443.621Z" transform="translate(-2368.593 -6707.216)" fill="#bca583"/>
    <path id="Caminho_25266" data-name="Caminho 25266" d="M3612.815,10464.025l-2.305.063,3.436,1.353C3613.888,10463.806,3612.815,10464.025,3612.815,10464.025Z" transform="translate(-2269.938 -6727.619)" fill="#d6bb93"/>
    <path id="Caminho_25267" data-name="Caminho 25267" d="M3642.763,10471.673l-1.863-.413,2.75,1.277C3643.6,10471.539,3642.763,10471.673,3642.763,10471.673Z" transform="translate(-2299.711 -6734.716)" fill="#9b896e"/>
    <path id="Caminho_25268" data-name="Caminho 25268" d="M3640.9,10466.837a17.634,17.634,0,0,1,2.21.168A17.34,17.34,0,0,1,3640.9,10466.837Z" transform="translate(-2299.711 -6730.37)" fill="#9b896e"/>
    <path id="Caminho_25269" data-name="Caminho 25269" d="M3600.66,10475.684l-2.14-.483,1.731,1.64S3601.075,10476.16,3600.66,10475.684Z" transform="translate(-2258.191 -6738.577)" fill="#9b896e"/>
    <path id="Caminho_25270" data-name="Caminho 25270" d="M3673.23,10499.689a.65.65,0,0,1-.65.65.8.8,0,0,1-.168-.02c-.048-.016.042-.145,0-.168s-.208.07-.238.043a.648.648,0,0,1-.012-1c.024-.021.187.045.187.045l-.029-.146a.687.687,0,0,1,.262-.053.674.674,0,0,1,.236.043c.022.01-.082.193-.06.205s.164-.152.183-.141a.63.63,0,0,1,.144.131c.022.025-.073.082-.055.113s.155.049.168.092A.628.628,0,0,1,3673.23,10499.689Z" transform="translate(-2330.111 -6761.934)" fill="#7b6d58"/>
    <path id="Caminho_25271" data-name="Caminho 25271" d="M3683.917,10511.011a.4.4,0,0,1,.577,0,.392.392,0,0,1,.065.083c.016.027-.082.047-.074.075s.124.063.127.087a.411.411,0,0,1-.44.451c-.02,0-.063-.1-.063-.1l-.053.077a.419.419,0,0,1-.226-.217c-.006-.013.123-.05.118-.062s-.142-.006-.145-.021a.387.387,0,0,1-.005-.121c0-.022.07,0,.075-.025s-.047-.092-.035-.116A.361.361,0,0,1,3683.917,10511.011Z" transform="translate(-2341.736 -6773.542)" fill="#9b896e"/>
    <path id="Caminho_25272" data-name="Caminho 25272" d="M3568.138,10475.862l-.5-.592-.5,1.133S3568.554,10476.338,3568.138,10475.862Z" transform="translate(-2227.438 -6738.646)" fill="#9b896e"/>
    <path id="Caminho_25273" data-name="Caminho 25273" d="M3568.43,10499.689a.651.651,0,0,1-.65.65.786.786,0,0,1-.167-.02c-.048-.016.042-.145,0-.168s-.208.07-.24.043a.648.648,0,0,1-.011-1c.023-.021.187.045.187.045l-.028-.146a.671.671,0,0,1,.5-.01c.022.01-.081.193-.059.205s.164-.152.182-.141a.621.621,0,0,1,.144.131c.023.025-.072.082-.055.113s.154.049.169.092A.661.661,0,0,1,3568.43,10499.689Z" transform="translate(-2227.438 -6761.934)" fill="#7b6d58"/>
    <path id="Caminho_25274" data-name="Caminho 25274" d="M3579.118,10511.011a.407.407,0,0,1,.579,0,.391.391,0,0,1,.065.083c.016.027-.083.047-.073.075s.122.063.125.087a.41.41,0,0,1-.44.451c-.02,0-.063-.1-.063-.1l-.052.077a.417.417,0,0,1-.141-.092.41.41,0,0,1-.085-.125c-.006-.013.122-.05.117-.062s-.141-.006-.144-.021a.411.411,0,0,1-.006-.121c0-.022.07,0,.075-.025s-.046-.092-.034-.116A.378.378,0,0,1,3579.118,10511.011Z" transform="translate(-2239.066 -6773.542)" fill="#9b896e"/>
    <path id="Caminho_25275" data-name="Caminho 25275" d="M3360.845,10432.428l2.388.641-4.023.773A1.4,1.4,0,0,1,3360.845,10432.428Z" transform="translate(-2023.737 -6696.663)" fill="#f0d0a2"/>
    <path id="Caminho_25276" data-name="Caminho 25276" d="M3365.463,10459.71l1.634.312-2.916.554C3364.245,10459.576,3365.463,10459.71,3365.463,10459.71Z" transform="translate(-2028.607 -6723.395)" fill="#bca583"/>
    <path id="Caminho_25277" data-name="Caminho 25277" d="M3416.706,10443.621a12.957,12.957,0,0,0-1.366-.431A4.754,4.754,0,0,0,3416.706,10443.621Z" transform="translate(-2078.728 -6707.216)" fill="#bca583"/>
    <path id="Caminho_25278" data-name="Caminho 25278" d="M3415.7,10464.025l2.307.063-3.436,1.353C3414.628,10463.806,3415.7,10464.025,3415.7,10464.025Z" transform="translate(-2077.974 -6727.619)" fill="#d6bb93"/>
    <path id="Caminho_25279" data-name="Caminho 25279" d="M3418.886,10471.673l1.863-.413-2.749,1.277C3418.045,10471.539,3418.886,10471.673,3418.886,10471.673Z" transform="translate(-2081.334 -6734.716)" fill="#9b896e"/>
    <path id="Caminho_25280" data-name="Caminho 25280" d="M3446.74,10466.837a17.627,17.627,0,0,0-2.21.168A17.346,17.346,0,0,0,3446.74,10466.837Z" transform="translate(-2107.326 -6730.37)" fill="#9b896e"/>
    <path id="Caminho_25281" data-name="Caminho 25281" d="M3484.762,10475.684l2.14-.483-1.732,1.64S3484.347,10476.16,3484.762,10475.684Z" transform="translate(-2146.627 -6738.577)" fill="#9b896e"/>
    <path id="Caminho_25282" data-name="Caminho 25282" d="M3458.36,10499.689a.651.651,0,0,0,.651.65.782.782,0,0,0,.167-.02c.049-.016-.042-.145,0-.168s.208.07.239.043a.648.648,0,0,0,.011-1c-.023-.021-.186.045-.186.045l.028-.146a.672.672,0,0,0-.5-.01c-.021.01.082.193.06.205s-.165-.152-.183-.141a.626.626,0,0,0-.144.131c-.023.025.074.082.055.113s-.155.049-.169.092A.634.634,0,0,0,3458.36,10499.689Z" transform="translate(-2120.875 -6761.934)" fill="#7b6d58"/>
    <path id="Caminho_25283" data-name="Caminho 25283" d="M3470.94,10511.011a.406.406,0,0,0-.578,0,.4.4,0,0,0-.064.083c-.016.027.083.047.074.075s-.124.063-.128.087a.411.411,0,0,0,.441.451c.02,0,.063-.1.063-.1l.052.077a.409.409,0,0,0,.226-.217c.006-.013-.122-.05-.117-.062s.14-.006.143-.021a.411.411,0,0,0,.006-.121c0-.022-.07,0-.075-.025s.048-.092.035-.116A.363.363,0,0,0,3470.94,10511.011Z" transform="translate(-2132.516 -6773.542)" fill="#9b896e"/>
    <path id="Caminho_25284" data-name="Caminho 25284" d="M3637.42,10397.646l-2.08.4,3.65.956A1.348,1.348,0,0,0,3637.42,10397.646Z" transform="translate(-2294.264 -6662.586)" fill="#f0d0a2"/>
    <path id="Caminho_25285" data-name="Caminho 25285" d="M3684.3,10423.922l-1.356.086,2.587.744C3685.465,10423.793,3684.3,10423.922,3684.3,10423.922Z" transform="translate(-2340.897 -6688.333)" fill="#bca583"/>
    <path id="Caminho_25286" data-name="Caminho 25286" d="M3706.584,10408.252c-.137-.012,1.1-.2,1.1-.2A4.336,4.336,0,0,1,3706.584,10408.252Z" transform="translate(-2364.052 -6672.789)" fill="#bca583"/>
    <path id="Caminho_25287" data-name="Caminho 25287" d="M3612.174,10418l-2.214.059,3.087,1.512C3612.991,10418,3612.174,10418,3612.174,10418Z" transform="translate(-2269.399 -6682.539)" fill="#d6bb93"/>
    <path id="Caminho_25288" data-name="Caminho 25288" d="M3640.757,10425.107l-1.577-.607,2.427,1.438C3641.564,10424.979,3640.757,10425.107,3640.757,10425.107Z" transform="translate(-2298.026 -6688.905)" fill="#9b896e"/>
    <path id="Caminho_25289" data-name="Caminho 25289" d="M3639.18,10420.542a10.652,10.652,0,0,1,1.911.371S3639.517,10420.656,3639.18,10420.542Z" transform="translate(-2298.026 -6685.02)" fill="#9b896e"/>
    <path id="Caminho_25290" data-name="Caminho 25290" d="M3600.112,10428.783l-1.662-.463,1.269,1.574S3600.511,10429.242,3600.112,10428.783Z" transform="translate(-2258.122 -6692.648)" fill="#9b896e"/>
    <path id="Caminho_25291" data-name="Caminho 25291" d="M3650.858,10451.852a.624.624,0,0,1-.625.625.632.632,0,0,1-.161-.021c-.046-.013.041-.137,0-.16s-.2.067-.229.043a.626.626,0,0,1-.011-.963c.023-.018.179.044.179.044l-.026-.138a.6.6,0,0,1,.251-.053.646.646,0,0,1,.227.042c.021.008-.078.185-.058.2s.158-.146.175-.133a.571.571,0,0,1,.138.123c.021.025-.069.081-.053.109s.15.047.163.089A.606.606,0,0,1,3650.858,10451.852Z" transform="translate(-2308.244 -6715.091)" fill="#7b6d58"/>
    <path id="Caminho_25292" data-name="Caminho 25292" d="M3661.1,10462.759a.392.392,0,0,1,.618.081c.016.026-.079.043-.07.073s.119.058.121.083a.387.387,0,0,1-.112.318.394.394,0,0,1-.31.113c-.018,0-.061-.1-.061-.1l-.05.074a.422.422,0,0,1-.135-.089.385.385,0,0,1-.082-.12c-.005-.012.118-.048.113-.062s-.135,0-.138-.017a.4.4,0,0,1-.005-.118c0-.021.066,0,.072-.024s-.044-.088-.034-.112A.436.436,0,0,1,3661.1,10462.759Z" transform="translate(-2319.386 -6726.275)" fill="#9b896e"/>
    <path id="Caminho_25293" data-name="Caminho 25293" d="M3569.328,10428.888l-.485-.568-.483,1.089S3569.727,10429.344,3569.328,10428.888Z" transform="translate(-2228.643 -6692.647)" fill="#9b896e"/>
    <path id="Caminho_25294" data-name="Caminho 25294" d="M3569.608,10451.852a.624.624,0,0,1-.625.625.617.617,0,0,1-.16-.021c-.047-.013.04-.137,0-.16s-.2.067-.23.043a.627.627,0,0,1-.01-.963c.023-.018.179.044.179.044l-.027-.138a.6.6,0,0,1,.251-.053.643.643,0,0,1,.227.042c.021.008-.078.185-.057.2s.157-.146.175-.133a.543.543,0,0,1,.138.123c.022.025-.069.081-.052.109s.149.047.163.089A.626.626,0,0,1,3569.608,10451.852Z" transform="translate(-2228.643 -6715.091)" fill="#7b6d58"/>
    <path id="Caminho_25295" data-name="Caminho 25295" d="M3579.829,10462.759a.4.4,0,0,1,.556,0,.432.432,0,0,1,.061.081c.016.026-.079.043-.07.073s.119.058.121.083a.392.392,0,0,1-.423.432c-.02,0-.061-.1-.061-.1l-.05.074a.4.4,0,0,1-.135-.089.36.36,0,0,1-.082-.12c-.005-.012.117-.048.113-.062s-.135,0-.139-.017a.377.377,0,0,1-.005-.118c0-.021.066,0,.072-.024s-.045-.088-.033-.112A.375.375,0,0,1,3579.829,10462.759Z" transform="translate(-2239.765 -6726.275)" fill="#9b896e"/>
    <path id="Caminho_25296" data-name="Caminho 25296" d="M3384.52,10397.546l2,.406-3.573.953A1.349,1.349,0,0,1,3384.52,10397.546Z" transform="translate(-2046.996 -6662.49)" fill="#f0d0a2"/>
    <path id="Caminho_25297" data-name="Caminho 25297" d="M3388.961,10423.822l1.28.087-2.511.743C3387.793,10423.694,3388.961,10423.822,3388.961,10423.822Z" transform="translate(-2051.679 -6688.236)" fill="#bca583"/>
    <path id="Caminho_25298" data-name="Caminho 25298" d="M3438.162,10408.373a11.955,11.955,0,0,0-1.312-.412A4.625,4.625,0,0,0,3438.162,10408.373Z" transform="translate(-2099.802 -6672.702)" fill="#bca583"/>
    <path id="Caminho_25299" data-name="Caminho 25299" d="M3437.185,10421.053l1.924-.152-3.009,1.51C3436.155,10420.842,3437.185,10421.053,3437.185,10421.053Z" transform="translate(-2099.067 -6685.378)" fill="#d6bb93"/>
    <path id="Caminho_25300" data-name="Caminho 25300" d="M3440.241,10425.088l1.5-.607-2.351,1.437C3439.433,10424.96,3440.241,10425.088,3440.241,10425.088Z" transform="translate(-2102.29 -6688.886)" fill="#9b896e"/>
    <path id="Caminho_25301" data-name="Caminho 25301" d="M3466.683,10420.541a9.682,9.682,0,0,0-1.833.371S3466.345,10420.656,3466.683,10420.541Z" transform="translate(-2127.234 -6685.019)" fill="#9b896e"/>
    <path id="Caminho_25302" data-name="Caminho 25302" d="M3516.88,10428.783l1.494-.463-1.1,1.574S3516.482,10429.242,3516.88,10428.783Z" transform="translate(-2178.098 -6692.648)" fill="#9b896e"/>
    <path id="Caminho_25303" data-name="Caminho 25303" d="M3491.58,10451.852a.624.624,0,0,0,.624.625.633.633,0,0,0,.161-.021c.047-.013-.04-.137,0-.16s.2.067.229.043a.624.624,0,0,0,.01-.963c-.022-.018-.179.044-.179.044l.028-.138a.605.605,0,0,0-.252-.053.646.646,0,0,0-.227.042c-.021.008.078.185.058.2s-.157-.146-.175-.133a.566.566,0,0,0-.139.123c-.021.025.07.081.052.109s-.148.047-.162.089A.625.625,0,0,0,3491.58,10451.852Z" transform="translate(-2153.421 -6715.091)" fill="#7b6d58"/>
    <path id="Caminho_25304" data-name="Caminho 25304" d="M3503.617,10462.759a.4.4,0,0,0-.556,0,.461.461,0,0,0-.062.081c-.014.026.08.043.071.073s-.117.058-.121.083a.392.392,0,0,0,.423.432c.019,0,.061-.1.061-.1l.049.074a.4.4,0,0,0,.135-.089.359.359,0,0,0,.082-.12c.006-.012-.117-.048-.113-.062s.135,0,.137-.017a.4.4,0,0,0,.006-.118c0-.021-.067,0-.072-.024s.045-.088.033-.112A.4.4,0,0,0,3503.617,10462.759Z" transform="translate(-2164.557 -6726.275)" fill="#9b896e"/>
    <path id="Caminho_25305" data-name="Caminho 25305" d="M3637.633,10335.841l-2.292.616,3.863.741A1.346,1.346,0,0,0,3637.633,10335.841Z" transform="translate(-2294.264 -6602.036)" fill="#f0d0a2"/>
    <path id="Caminho_25306" data-name="Caminho 25306" d="M3684.509,10362.021l-1.569.3,2.8.533C3685.677,10361.891,3684.509,10362.021,3684.509,10362.021Z" transform="translate(-2340.897 -6627.688)" fill="#bca583"/>
    <path id="Caminho_25307" data-name="Caminho 25307" d="M3706.655,10346.633a12.006,12.006,0,0,1,1.312-.412A4.552,4.552,0,0,1,3706.655,10346.633Z" transform="translate(-2364.123 -6612.215)" fill="#bca583"/>
    <path id="Caminho_25308" data-name="Caminho 25308" d="M3612.174,10366.146l-2.214.057,3.3,1.3C3613.2,10365.936,3612.174,10366.146,3612.174,10366.146Z" transform="translate(-2269.399 -6631.727)" fill="#d6bb93"/>
    <path id="Caminho_25309" data-name="Caminho 25309" d="M3640.968,10373.558l-1.788-.4,2.639,1.227C3641.776,10373.429,3640.968,10373.558,3640.968,10373.558Z" transform="translate(-2298.026 -6638.607)" fill="#9b896e"/>
    <path id="Caminho_25310" data-name="Caminho 25310" d="M3639.18,10368.951a16.606,16.606,0,0,1,2.123.16A16.606,16.606,0,0,1,3639.18,10368.951Z" transform="translate(-2298.026 -6634.47)" fill="#9b896e"/>
    <path id="Caminho_25311" data-name="Caminho 25311" d="M3600.505,10377.484l-2.055-.464,1.662,1.573S3600.9,10377.943,3600.505,10377.484Z" transform="translate(-2258.122 -6642.389)" fill="#9b896e"/>
    <path id="Caminho_25312" data-name="Caminho 25312" d="M3670.158,10400.463a.622.622,0,0,1-.623.623.664.664,0,0,1-.161-.02c-.048-.013.04-.139,0-.16s-.2.065-.229.041a.622.622,0,0,1-.011-.961c.023-.019.179.044.179.044l-.027-.138a.587.587,0,0,1,.251-.054.65.65,0,0,1,.227.041c.02.009-.078.186-.059.2s.157-.146.176-.134a.635.635,0,0,1,.138.123c.021.027-.07.082-.053.111s.149.047.162.087A.6.6,0,0,1,3670.158,10400.463Z" transform="translate(-2327.152 -6664.745)" fill="#7b6d58"/>
    <path id="Caminho_25313" data-name="Caminho 25313" d="M3680.464,10411.339a.392.392,0,0,1,.555,0,.4.4,0,0,1,.063.079c.015.028-.08.045-.071.073s.118.06.121.084a.392.392,0,0,1-.423.433c-.02,0-.061-.1-.061-.1l-.049.073a.435.435,0,0,1-.136-.087.4.4,0,0,1-.082-.121c-.006-.013.118-.049.112-.061s-.135-.006-.138-.02a.441.441,0,0,1-.006-.116c0-.022.067-.006.073-.025s-.046-.087-.033-.111A.36.36,0,0,1,3680.464,10411.339Z" transform="translate(-2338.359 -6675.898)" fill="#9b896e"/>
    <path id="Caminho_25314" data-name="Caminho 25314" d="M3569.328,10377.527l-.485-.567-.483,1.089S3569.727,10377.985,3569.328,10377.527Z" transform="translate(-2228.643 -6642.33)" fill="#9b896e"/>
    <path id="Caminho_25315" data-name="Caminho 25315" d="M3569.608,10400.463a.623.623,0,0,1-.625.623.662.662,0,0,1-.16-.02c-.047-.013.04-.139,0-.16s-.2.065-.23.041a.625.625,0,0,1-.01-.961c.023-.019.179.044.179.044l-.027-.138a.585.585,0,0,1,.251-.054.643.643,0,0,1,.227.041c.021.009-.078.186-.057.2s.157-.146.175-.134a.583.583,0,0,1,.138.123c.022.027-.069.082-.052.111s.149.047.163.087A.624.624,0,0,1,3569.608,10400.463Z" transform="translate(-2228.643 -6664.745)" fill="#7b6d58"/>
    <path id="Caminho_25316" data-name="Caminho 25316" d="M3579.829,10411.339a.393.393,0,0,1,.556,0,.42.42,0,0,1,.061.079c.016.028-.079.045-.07.073s.119.06.121.084a.391.391,0,0,1-.423.433c-.02,0-.061-.1-.061-.1l-.05.073a.429.429,0,0,1-.135-.087.374.374,0,0,1-.082-.121c-.005-.013.117-.049.113-.061s-.135-.006-.139-.02a.364.364,0,0,1-.005-.116c0-.022.066-.006.072-.025s-.045-.087-.033-.111A.361.361,0,0,1,3579.829,10411.339Z" transform="translate(-2239.765 -6675.898)" fill="#9b896e"/>
    <path id="Caminho_25317" data-name="Caminho 25317" d="M3370.26,10335.841l2.292.616-3.863.741A1.346,1.346,0,0,1,3370.26,10335.841Z" transform="translate(-2033.025 -6602.036)" fill="#f0d0a2"/>
    <path id="Caminho_25318" data-name="Caminho 25318" d="M3374.711,10362.021l1.569.3-2.8.533C3373.543,10361.891,3374.711,10362.021,3374.711,10362.021Z" transform="translate(-2037.718 -6627.688)" fill="#bca583"/>
    <path id="Caminho_25319" data-name="Caminho 25319" d="M3423.94,10346.633a11.916,11.916,0,0,0-1.31-.412A4.555,4.555,0,0,0,3423.94,10346.633Z" transform="translate(-2085.87 -6612.215)" fill="#bca583"/>
    <path id="Caminho_25320" data-name="Caminho 25320" d="M3422.9,10366.146l2.213.057-3.3,1.3C3421.866,10365.936,3422.9,10366.146,3422.9,10366.146Z" transform="translate(-2085.067 -6631.727)" fill="#d6bb93"/>
    <path id="Caminho_25321" data-name="Caminho 25321" d="M3425.941,10373.558l1.789-.4-2.64,1.227C3425.134,10373.429,3425.941,10373.558,3425.941,10373.558Z" transform="translate(-2088.281 -6638.607)" fill="#9b896e"/>
    <path id="Caminho_25322" data-name="Caminho 25322" d="M3452.732,10368.951a16.6,16.6,0,0,0-2.123.16A16.6,16.6,0,0,0,3452.732,10368.951Z" transform="translate(-2113.282 -6634.47)" fill="#9b896e"/>
    <path id="Caminho_25323" data-name="Caminho 25323" d="M3489.222,10377.484l2.054-.464-1.662,1.573S3488.822,10377.943,3489.222,10377.484Z" transform="translate(-2151 -6642.389)" fill="#9b896e"/>
    <path id="Caminho_25324" data-name="Caminho 25324" d="M3463.91,10400.463a.623.623,0,0,0,.624.623.677.677,0,0,0,.161-.02c.047-.013-.041-.139,0-.16s.2.065.23.041a.623.623,0,0,0,.011-.961c-.023-.019-.179.044-.179.044l.027-.138a.584.584,0,0,0-.251-.054.641.641,0,0,0-.227.041c-.021.009.078.186.057.2s-.157-.146-.175-.134a.64.64,0,0,0-.139.123c-.021.027.07.082.054.111s-.15.047-.163.087A.6.6,0,0,0,3463.91,10400.463Z" transform="translate(-2126.312 -6664.745)" fill="#7b6d58"/>
    <path id="Caminho_25325" data-name="Caminho 25325" d="M3475.961,10411.339a.393.393,0,0,0-.555,0,.416.416,0,0,0-.062.079c-.015.028.079.045.071.073s-.119.06-.122.084a.392.392,0,0,0,.423.433c.019,0,.062-.1.062-.1l.049.073a.428.428,0,0,0,.135-.087.386.386,0,0,0,.082-.121c.005-.013-.117-.049-.113-.061s.136-.006.139-.02a.421.421,0,0,0,.006-.116c0-.022-.067-.006-.073-.025s.046-.087.034-.111A.368.368,0,0,0,3475.961,10411.339Z" transform="translate(-2137.462 -6675.898)" fill="#9b896e"/>
    <path id="Caminho_25326" data-name="Caminho 25326" d="M3639.077,10276.331l-2.167.421,3.8.994A1.4,1.4,0,0,0,3639.077,10276.331Z" transform="translate(-2295.802 -6543.734)" fill="#f0d0a2"/>
    <path id="Caminho_25327" data-name="Caminho 25327" d="M3687.913,10303.711l-1.413.09,2.694.775C3689.129,10303.578,3687.913,10303.711,3687.913,10303.711Z" transform="translate(-2344.385 -6570.562)" fill="#bca583"/>
    <path id="Caminho_25328" data-name="Caminho 25328" d="M3711.146,10287.4c-.143-.011,1.145-.209,1.145-.209A4.506,4.506,0,0,1,3711.146,10287.4Z" transform="translate(-2368.52 -6554.382)" fill="#bca583"/>
    <path id="Caminho_25329" data-name="Caminho 25329" d="M3612.815,10297.6l-2.305.061,3.214,1.575C3613.667,10297.6,3612.815,10297.6,3612.815,10297.6Z" transform="translate(-2269.938 -6564.579)" fill="#d6bb93"/>
    <path id="Caminho_25330" data-name="Caminho 25330" d="M3642.542,10305.014l-1.642-.633,2.529,1.5C3643.383,10304.881,3642.542,10305.014,3642.542,10305.014Z" transform="translate(-2299.711 -6571.224)" fill="#9b896e"/>
    <path id="Caminho_25331" data-name="Caminho 25331" d="M3640.9,10300.225a11.09,11.09,0,0,1,1.991.389S3641.251,10300.345,3640.9,10300.225Z" transform="translate(-2299.711 -6567.144)" fill="#9b896e"/>
    <path id="Caminho_25332" data-name="Caminho 25332" d="M3600.25,10308.884l-1.73-.483,1.322,1.638S3600.666,10309.359,3600.25,10308.884Z" transform="translate(-2258.191 -6575.162)" fill="#9b896e"/>
    <path id="Caminho_25333" data-name="Caminho 25333" d="M3653.05,10332.82a.65.65,0,0,1-.65.649.675.675,0,0,1-.167-.021c-.05-.013.042-.144,0-.166s-.207.068-.24.043a.649.649,0,0,1-.011-1c.023-.021.186.045.186.045l-.029-.145a.656.656,0,0,1,.262-.054.693.693,0,0,1,.236.043c.021.009-.081.194-.06.2s.164-.152.182-.14a.63.63,0,0,1,.144.13c.022.026-.073.083-.056.114s.155.049.17.092A.656.656,0,0,1,3653.05,10332.82Z" transform="translate(-2310.34 -6598.45)" fill="#7b6d58"/>
    <path id="Caminho_25334" data-name="Caminho 25334" d="M3663.753,10344.134a.409.409,0,0,1,.579,0,.342.342,0,0,1,.064.084c.016.026-.083.044-.073.074s.123.062.125.088a.409.409,0,0,1-.117.333.416.416,0,0,1-.324.116c-.019,0-.063-.1-.063-.1l-.051.076a.4.4,0,0,1-.227-.217c-.006-.014.122-.05.117-.065s-.141,0-.144-.018a.464.464,0,0,1-.006-.122c0-.021.07,0,.076-.025s-.047-.092-.035-.116A.389.389,0,0,1,3663.753,10344.134Z" transform="translate(-2321.983 -6610.052)" fill="#9b896e"/>
    <path id="Caminho_25335" data-name="Caminho 25335" d="M3568.138,10309l-.5-.591-.5,1.134S3568.554,10309.477,3568.138,10309Z" transform="translate(-2227.438 -6575.172)" fill="#9b896e"/>
    <path id="Caminho_25336" data-name="Caminho 25336" d="M3568.43,10332.82a.65.65,0,0,1-.65.649.679.679,0,0,1-.167-.021c-.048-.013.042-.144,0-.166s-.208.068-.24.043a.65.65,0,0,1-.011-1c.023-.021.187.045.187.045l-.028-.145a.645.645,0,0,1,.261-.054.7.7,0,0,1,.236.043c.022.009-.081.194-.059.2s.164-.152.182-.14a.639.639,0,0,1,.144.13c.023.026-.072.083-.055.114s.154.049.169.092A.649.649,0,0,1,3568.43,10332.82Z" transform="translate(-2227.438 -6598.45)" fill="#7b6d58"/>
    <path id="Caminho_25337" data-name="Caminho 25337" d="M3579.118,10344.134a.409.409,0,0,1,.579,0,.373.373,0,0,1,.065.084c.016.026-.083.044-.073.074s.122.062.125.088a.406.406,0,0,1-.44.449c-.02,0-.063-.1-.063-.1l-.052.076a.445.445,0,0,1-.141-.091.427.427,0,0,1-.085-.126c-.006-.014.122-.05.117-.065s-.141,0-.144-.018a.417.417,0,0,1-.006-.122c0-.021.07,0,.075-.025s-.046-.092-.034-.116A.392.392,0,0,1,3579.118,10344.134Z" transform="translate(-2239.066 -6610.052)" fill="#9b896e"/>
    <path id="Caminho_25338" data-name="Caminho 25338" d="M3375.735,10276.328l2.085.422-3.72.99A1.4,1.4,0,0,1,3375.735,10276.328Z" transform="translate(-2038.325 -6543.731)" fill="#f0d0a2"/>
    <path id="Caminho_25339" data-name="Caminho 25339" d="M3380.322,10303.618l1.332.091-2.615.772C3379.1,10303.485,3380.322,10303.618,3380.322,10303.618Z" transform="translate(-2043.165 -6570.471)" fill="#bca583"/>
    <path id="Caminho_25340" data-name="Caminho 25340" d="M3431.6,10287.56a12.777,12.777,0,0,0-1.366-.43A4.82,4.82,0,0,0,3431.6,10287.56Z" transform="translate(-2093.316 -6554.323)" fill="#bca583"/>
    <path id="Caminho_25341" data-name="Caminho 25341" d="M3430.541,10300.76l2-.158-3.135,1.57C3429.467,10300.539,3430.541,10300.76,3430.541,10300.76Z" transform="translate(-2092.513 -6567.521)" fill="#d6bb93"/>
    <path id="Caminho_25342" data-name="Caminho 25342" d="M3433.746,10304.942l1.561-.633-2.447,1.5C3432.905,10304.808,3433.746,10304.942,3433.746,10304.942Z" transform="translate(-2095.893 -6571.154)" fill="#9b896e"/>
    <path id="Caminho_25343" data-name="Caminho 25343" d="M3461.289,10300.224a10.075,10.075,0,0,0-1.909.386S3460.937,10300.344,3461.289,10300.224Z" transform="translate(-2121.875 -6567.143)" fill="#9b896e"/>
    <path id="Caminho_25344" data-name="Caminho 25344" d="M3513.542,10308.884l1.556-.483-1.147,1.638S3513.125,10309.359,3513.542,10308.884Z" transform="translate(-2174.822 -6575.162)" fill="#9b896e"/>
    <path id="Caminho_25345" data-name="Caminho 25345" d="M3487.19,10332.82a.65.65,0,0,0,.65.649.673.673,0,0,0,.168-.021c.049-.013-.042-.144,0-.166s.207.068.24.043a.65.65,0,0,0,.01-1c-.024-.021-.186.045-.186.045l.028-.145a.643.643,0,0,0-.261-.054.7.7,0,0,0-.236.043c-.022.009.082.194.061.2s-.164-.152-.182-.14a.614.614,0,0,0-.144.13c-.022.026.072.083.054.114s-.155.049-.169.092A.622.622,0,0,0,3487.19,10332.82Z" transform="translate(-2149.12 -6598.45)" fill="#7b6d58"/>
    <path id="Caminho_25346" data-name="Caminho 25346" d="M3499.731,10344.134a.408.408,0,0,0-.579,0,.355.355,0,0,0-.064.084c-.016.026.082.044.073.074s-.123.062-.127.088a.407.407,0,0,0,.442.449c.02,0,.063-.1.063-.1l.052.076a.428.428,0,0,0,.14-.091.416.416,0,0,0,.085-.126c.006-.014-.122-.05-.118-.065s.142,0,.144-.018a.409.409,0,0,0,.006-.122c0-.021-.069,0-.074-.025s.046-.092.034-.116A.376.376,0,0,0,3499.731,10344.134Z" transform="translate(-2160.722 -6610.052)" fill="#9b896e"/>
    <path id="Caminho_25347" data-name="Caminho 25347" d="M3639.3,10212.028l-2.387.642,4.022.774A1.4,1.4,0,0,0,3639.3,10212.028Z" transform="translate(-2295.802 -6480.736)" fill="#f0d0a2"/>
    <path id="Caminho_25348" data-name="Caminho 25348" d="M3688.133,10239.313l-1.633.311,2.915.554C3689.351,10239.178,3688.133,10239.313,3688.133,10239.313Z" transform="translate(-2344.385 -6507.471)" fill="#bca583"/>
    <path id="Caminho_25349" data-name="Caminho 25349" d="M3711.219,10223.24a13.043,13.043,0,0,1,1.366-.431A4.746,4.746,0,0,1,3711.219,10223.24Z" transform="translate(-2368.593 -6491.309)" fill="#bca583"/>
    <path id="Caminho_25350" data-name="Caminho 25350" d="M3612.815,10243.625l-2.305.061,3.436,1.353C3613.888,10243.405,3612.815,10243.625,3612.815,10243.625Z" transform="translate(-2269.938 -6511.691)" fill="#d6bb93"/>
    <path id="Caminho_25351" data-name="Caminho 25351" d="M3642.763,10251.283l-1.863-.413,2.75,1.277C3643.6,10251.15,3642.763,10251.283,3642.763,10251.283Z" transform="translate(-2299.711 -6518.799)" fill="#9b896e"/>
    <path id="Caminho_25352" data-name="Caminho 25352" d="M3640.9,10246.439a17.29,17.29,0,0,1,2.21.167A17.492,17.492,0,0,1,3640.9,10246.439Z" transform="translate(-2299.711 -6514.444)" fill="#9b896e"/>
    <path id="Caminho_25353" data-name="Caminho 25353" d="M3600.66,10255.385l-2.14-.484,1.731,1.638S3601.075,10255.859,3600.66,10255.385Z" transform="translate(-2258.191 -6522.748)" fill="#9b896e"/>
    <path id="Caminho_25354" data-name="Caminho 25354" d="M3673.23,10279.329a.652.652,0,0,1-.818.627c-.048-.013.042-.144,0-.167s-.208.07-.238.045a.65.65,0,0,1-.012-1c.024-.021.187.044.187.044l-.029-.145a.652.652,0,0,1,.262-.054.674.674,0,0,1,.236.043c.022.009-.082.193-.06.205s.164-.154.183-.141a.669.669,0,0,1,.144.129c.022.027-.073.084-.055.115s.155.049.168.092A.631.631,0,0,1,3673.23,10279.329Z" transform="translate(-2330.111 -6546.043)" fill="#7b6d58"/>
    <path id="Caminho_25355" data-name="Caminho 25355" d="M3683.917,10290.717a.408.408,0,0,1,.577,0,.429.429,0,0,1,.065.085c.016.026-.082.045-.074.074s.124.061.127.087a.409.409,0,0,1-.44.45c-.02,0-.063-.1-.063-.1l-.053.076a.411.411,0,0,1-.139-.092.4.4,0,0,1-.086-.125c-.006-.014.123-.05.118-.063s-.142,0-.145-.019a.393.393,0,0,1-.005-.122c0-.021.07,0,.075-.026s-.047-.091-.035-.115A.379.379,0,0,1,3683.917,10290.717Z" transform="translate(-2341.736 -6557.72)" fill="#9b896e"/>
    <path id="Caminho_25356" data-name="Caminho 25356" d="M3568.138,10255.5l-.5-.59-.5,1.133S3568.554,10255.977,3568.138,10255.5Z" transform="translate(-2227.438 -6522.757)" fill="#9b896e"/>
    <path id="Caminho_25357" data-name="Caminho 25357" d="M3568.43,10279.329a.65.65,0,0,1-.65.648.635.635,0,0,1-.167-.021c-.048-.013.042-.144,0-.167s-.208.07-.24.045a.65.65,0,0,1-.011-1c.023-.021.187.044.187.044l-.028-.145a.645.645,0,0,1,.261-.054.672.672,0,0,1,.236.043c.022.009-.081.193-.059.205s.164-.154.182-.141a.659.659,0,0,1,.144.129c.023.027-.072.084-.055.115s.154.049.169.092A.664.664,0,0,1,3568.43,10279.329Z" transform="translate(-2227.438 -6546.043)" fill="#7b6d58"/>
    <path id="Caminho_25358" data-name="Caminho 25358" d="M3579.118,10290.717a.411.411,0,0,1,.579,0,.428.428,0,0,1,.065.085c.016.026-.083.045-.073.074s.122.061.125.087a.408.408,0,0,1-.44.45c-.02,0-.063-.1-.063-.1l-.052.076a.432.432,0,0,1-.141-.092.41.41,0,0,1-.085-.125c-.006-.014.122-.05.117-.063s-.141,0-.144-.019a.417.417,0,0,1-.006-.122c0-.021.07,0,.075-.026s-.046-.091-.034-.115A.4.4,0,0,1,3579.118,10290.717Z" transform="translate(-2239.066 -6557.72)" fill="#9b896e"/>
    <path id="Caminho_25359" data-name="Caminho 25359" d="M3360.845,10212.028l2.388.642-4.023.774A1.4,1.4,0,0,1,3360.845,10212.028Z" transform="translate(-2023.737 -6480.736)" fill="#f0d0a2"/>
    <path id="Caminho_25360" data-name="Caminho 25360" d="M3365.463,10239.313l1.634.311-2.916.554C3364.245,10239.178,3365.463,10239.313,3365.463,10239.313Z" transform="translate(-2028.607 -6507.471)" fill="#bca583"/>
    <path id="Caminho_25361" data-name="Caminho 25361" d="M3416.706,10223.24a12.957,12.957,0,0,0-1.366-.431A4.754,4.754,0,0,0,3416.706,10223.24Z" transform="translate(-2078.728 -6491.309)" fill="#bca583"/>
    <path id="Caminho_25362" data-name="Caminho 25362" d="M3415.7,10243.625l2.307.061-3.436,1.353C3414.628,10243.405,3415.7,10243.625,3415.7,10243.625Z" transform="translate(-2077.974 -6511.691)" fill="#d6bb93"/>
    <path id="Caminho_25363" data-name="Caminho 25363" d="M3418.886,10251.283l1.863-.413-2.749,1.277C3418.045,10251.15,3418.886,10251.283,3418.886,10251.283Z" transform="translate(-2081.334 -6518.799)" fill="#9b896e"/>
    <path id="Caminho_25364" data-name="Caminho 25364" d="M3446.74,10246.439a17.284,17.284,0,0,0-2.21.167A17.5,17.5,0,0,0,3446.74,10246.439Z" transform="translate(-2107.326 -6514.444)" fill="#9b896e"/>
    <path id="Caminho_25365" data-name="Caminho 25365" d="M3484.762,10255.385l2.14-.484-1.732,1.638S3484.347,10255.859,3484.762,10255.385Z" transform="translate(-2146.627 -6522.748)" fill="#9b896e"/>
    <path id="Caminho_25366" data-name="Caminho 25366" d="M3458.36,10279.329a.65.65,0,0,0,.651.648.633.633,0,0,0,.167-.021c.049-.013-.042-.144,0-.167s.208.07.239.045a.649.649,0,0,0,.011-1c-.023-.021-.186.044-.186.044l.028-.145a.647.647,0,0,0-.261-.054.675.675,0,0,0-.236.043c-.021.009.082.193.06.205s-.165-.154-.183-.141a.664.664,0,0,0-.144.129c-.023.027.074.084.055.115s-.155.049-.169.092A.637.637,0,0,0,3458.36,10279.329Z" transform="translate(-2120.875 -6546.043)" fill="#7b6d58"/>
    <path id="Caminho_25367" data-name="Caminho 25367" d="M3470.94,10290.717a.41.41,0,0,0-.578,0,.442.442,0,0,0-.064.085c-.016.026.083.045.074.074s-.124.061-.128.087a.413.413,0,0,0,.118.332.409.409,0,0,0,.323.118c.02,0,.063-.1.063-.1l.052.076a.419.419,0,0,0,.141-.092.4.4,0,0,0,.085-.125c.006-.014-.122-.05-.117-.063s.14,0,.143-.019a.417.417,0,0,0,.006-.122c0-.021-.07,0-.075-.026s.048-.091.035-.115A.381.381,0,0,0,3470.94,10290.717Z" transform="translate(-2132.516 -6557.72)" fill="#9b896e"/>
    <path id="Caminho_25368" data-name="Caminho 25368" d="M5144.594,3597.242c-4.091-1.653-6.884,6.966-6.884,6.966S5148.332,3599.137,5144.594,3597.242Z" transform="translate(-3766.143 0)" fill="#6a3b82"/>
    <path id="Caminho_25369" data-name="Caminho 25369" d="M5142.941,3671.3c-2.157-.871-5.231,5.59-5.231,5.59S5144.911,3672.3,5142.941,3671.3Z" transform="translate(-3766.143 -72.685)" fill="#6a3b82"/>
    <path id="Caminho_25370" data-name="Caminho 25370" d="M4686.953,3597.242c4.092-1.653,6.885,6.966,6.885,6.966S4683.217,3599.137,4686.953,3597.242Z" transform="translate(-3323.754 0)" fill="#6a3b82"/>
    <path id="Caminho_25371" data-name="Caminho 25371" d="M4790.4,3671.3c2.157-.871,5.232,5.59,5.232,5.59S4788.428,3672.3,4790.4,3671.3Z" transform="translate(-3425.545 -72.685)" fill="#6a3b82"/>
    <path id="Caminho_25372" data-name="Caminho 25372" d="M4985.968,3831.755a2.144,2.144,0,1,1-2.144-2.146A2.145,2.145,0,0,1,4985.968,3831.755Z" transform="translate(-3613.279 -227.858)" fill="#6a3b82"/>
    <path id="Caminho_25373" data-name="Caminho 25373" d="M4522.6,3904.656c.26.066-3.589-21.623,11.851-14.679-8.145,4.217-11.591,14.745-11.591,14.745Z" transform="translate(-3163.28 -285.657)" fill="#6a3b82"/>
    <path id="Caminho_25374" data-name="Caminho 25374" d="M5096.509,3904.656c-.261.066,4.4-21.623-11.039-14.679,8.145,4.217,10.778,14.745,10.778,14.745Z" transform="translate(-3714.963 -285.657)" fill="#6a3b82"/>
    <path id="Caminho_25375" data-name="Caminho 25375" d="M4372.925,4679.46s1.841,12.014-4.035,13.463c.973,1.181,8.015,4.43,14.581.627Z" transform="translate(-3012.926 -1060.461)" fill="#332a28"/>
    <path id="Caminho_25376" data-name="Caminho 25376" d="M5046.824,4679.46s-1.841,12.014,4.036,13.463c-.973,1.181-8.016,4.43-14.58.627Z" transform="translate(-3666.771 -1060.461)" fill="#332a28"/>
    <path id="Caminho_25377" data-name="Caminho 25377" d="M4268.777,10263.4l-6.8,1.442v1.627h10.174v-3.069Z" transform="translate(-2908.186 -6531.075)" fill="#d3d0d0"/>
    <path id="Caminho_25378" data-name="Caminho 25378" d="M4414.64,7936.37l1.8,22.107,1.894,24.884a2.073,2.073,0,0,0,3.408,0l2.166-14.8-.812-10.085,4.714-22.107Z" transform="translate(-3057.748 -4251.271)" fill="#2d8a95"/>
    <path id="Caminho_25379" data-name="Caminho 25379" d="M4774.41,9540.143l1.959-13.383.012.152-1.937,13.23Z" transform="translate(-3410.216 -5809.384)" fill="#ba83a6"/>
    <path id="Caminho_25380" data-name="Caminho 25380" d="M4753.405,10187.674v-.026h-.205c.077-.07.156-.149.235-.233l.194-1.334h.035l-.229,1.568S4753.425,10187.658,4753.405,10187.674Z" transform="translate(-3389.437 -6455.323)" fill="#926782"/>
    <path id="Caminho_25381" data-name="Caminho 25381" d="M4692.33,10264.234l-.01-.19a2.361,2.361,0,0,0,1.235-.654h.205v.025A4.44,4.44,0,0,1,4692.33,10264.234Z" transform="translate(-3329.792 -6531.065)" fill="#b1b0b0"/>
    <path id="Caminho_25382" data-name="Caminho 25382" d="M4619.616,9042.253l-1.506-25.63.037-.334c1.3.161,2.75.3,4.3.377l-.011.047.8,9.936-1.958,13.383-.195,1.333c-.08.084-.158.164-.236.235A2.362,2.362,0,0,1,4619.616,9042.253Z" transform="translate(-3257.088 -5309.274)" fill="#2c767f"/>
    <path id="Caminho_25383" data-name="Caminho 25383" d="M5049.189,10263.4h-2.364l-1.715,1.442v1.627h5.867v-1.627Z" transform="translate(-3675.422 -6531.075)" fill="#d3d0d0"/>
    <path id="Caminho_25384" data-name="Caminho 25384" d="M4883.163,7948.02l-.631,22.061-3.07,24.93s-1.564,1.27-2.377-.105l-2.166-14.8.812-10.086-3.97-22Z" transform="translate(-3505.59 -4262.685)" fill="#2d8a95"/>
    <path id="Caminho_25385" data-name="Caminho 25385" d="M5082.254,10313.9h-4.544c0-.279,1.414-.507,3.159-.507S5082.254,10313.618,5082.254,10313.9Z" transform="translate(-3707.361 -6580.051)" fill="#b1b0b0"/>
    <path id="Caminho_25386" data-name="Caminho 25386" d="M4115.948,5675.786l1.94-.958-2.124.412a2.207,2.207,0,0,0,.184.546l1.94-.958-2.124.412,2.123-.411h-2.162a2.133,2.133,0,0,0,.04.411l2.123-.411h0l-2.1-.507a2.167,2.167,0,0,0-.06.507h2.158l-2.1-.507,2.087.5-2-.771a2.227,2.227,0,0,0-.083.268l2.087.5-2-.771,1.973.759-1.856-1.012a2.018,2.018,0,0,0-.117.253l1.973.759-1.856-1.012,1.769.965-1.7-1.075c-.016.024-.036.058-.064.11l1.769.965-1.7-1.075,1.434.9-1.38-.985c-.008.012-.022.032-.054.081l1.434.9-1.38-.985.746.532-.738-.542-.008.01.746.532-.738-.542.3.217-.3-.22v0l.3.217-.3-.22h0c0,.005-.019.027-.043.058-.047.061-.12.154-.207.272-.166.222-.387.53-.644.921a25.882,25.882,0,0,0-1.613,2.872,42.136,42.136,0,0,0-2.772,7.675,71.107,71.107,0,0,0-2.025,12.367l0,.041-.785,18.049,4.327.188.783-18.006-2.164-.095,2.159.177a68.842,68.842,0,0,1,1.622-10.531,37.088,37.088,0,0,1,3.23-8.9,18.114,18.114,0,0,1,1.163-1.9c.069-.1.132-.183.187-.256.04-.056.078-.1.111-.148l.071-.092c.017-.022.034-.043.052-.069s.029-.037.046-.06.027-.038.044-.063.029-.041.049-.072.032-.05.052-.085.033-.057.054-.1a2.164,2.164,0,0,0,.121-.272,2.551,2.551,0,0,0,.078-.269l-2.114-.471h0l1.55,1.511-1.366-1.331,1.36,1.337.006-.006-1.366-1.331,1.36,1.337a2.166,2.166,0,0,0,.582-1.931,2.188,2.188,0,0,0-.185-.548Z" transform="translate(-2757.351 -2034.423)" fill="#d5845e"/>
    <path id="Caminho_25387" data-name="Caminho 25387" d="M4143.49,5437.715c.361-14.258,11.393-18.635,11.393-18.635l2.232,10.333c-4.966,1.625-5.955,8.3-5.955,8.3Z" transform="translate(-2792.101 -1785.07)" fill="#d2d3d5"/>
    <path id="Caminho_25388" data-name="Caminho 25388" d="M4441.44,5414.649s-9.074,12.881-4.446,32.044c-6.278,5.168-22.355-13.343-22.355-24.706s5.986-12.994,8.813-13.957h14.736C4440.475,5408.831,4441.44,5411.313,4441.44,5414.649Z" transform="translate(-3057.747 -1774.245)" fill="#d3d0d0"/>
    <path id="Caminho_25389" data-name="Caminho 25389" d="M4713.9,5460.88Z" transform="translate(-3350.934 -1826.022)" fill="#d2d3d5"/>
    <path id="Caminho_25390" data-name="Caminho 25390" d="M4711.333,5409.1h0l-.053-.246a9.1,9.1,0,0,1,1.275-.827h1.517A19.906,19.906,0,0,0,4711.333,5409.1Z" transform="translate(-3348.367 -1774.245)" fill="#2f2826"/>
    <path id="Caminho_25391" data-name="Caminho 25391" d="M4667.11,5449.578a9.632,9.632,0,0,1,.9-.788l.053.246h0A10.755,10.755,0,0,0,4667.11,5449.578Z" transform="translate(-3305.094 -1814.177)" fill="#b1b3b5"/>
    <path id="Caminho_25392" data-name="Caminho 25392" d="M4480.92,5418.554a14.066,14.066,0,0,1,3.779-8.909c.318-.2.636-.382.95-.542h0a19.911,19.911,0,0,1,2.738-1.073h.782c-4.039,1.508-4.847,4.367-5.241,9.612A10.321,10.321,0,0,0,4480.92,5418.554Z" transform="translate(-3122.683 -1774.245)" fill="#b1b0b0"/>
    <path id="Caminho_25393" data-name="Caminho 25393" d="M5169.083,5421.331l-.024-.033c.038-.562.084-1.132.141-1.718a6.519,6.519,0,0,0-1.409-.816c.234-4.328,2.314-8.791,5.964-10.734h2.3C5171.542,5409.715,5171.105,5414.246,5169.083,5421.331Z" transform="translate(-3795.613 -1774.245)" fill="#b1b0b0"/>
    <path id="Caminho_25394" data-name="Caminho 25394" d="M4303.685,5913.11c-2.194,11.892-1.381,19.632-1.381,19.632-12.8,2.905-24.954-.612-24.954-.612l3.5-39.433-.709-20.937c2.664-3.211,13.423-2.594,16.694,0-1.811,18.938,5.925,25.306,5.925,25.306S4305.878,5905.7,4303.685,5913.11Z" transform="translate(-2923.244 -2226.425)" fill="#6a3b82"/>
    <path id="Caminho_25395" data-name="Caminho 25395" d="M4464.462,6425.13c.436,0,1.7,6.432,1.7,14.111s-1.433,13.9-1.869,13.9.291-6.226.291-13.9S4464.026,6425.13,4464.462,6425.13Z" transform="translate(-3106.26 -2770.703)" fill="#3f294d"/>
    <path id="Caminho_25396" data-name="Caminho 25396" d="M4420.626,5408.03c-3.88,2.066-5.986,6.978-5.986,11.55h2.918c.452-7.31,2.467-9.865,6.978-11.55Z" transform="translate(-3057.748 -1774.245)" fill="#6a3b82"/>
    <path id="Caminho_25397" data-name="Caminho 25397" d="M5093.325,5408.03c-5.44,1.685-5.985,6.978-5.985,11.55h3.042c-.181-6.8,1.881-9.525,6.855-11.55Z" transform="translate(-3716.795 -1774.245)" fill="#6a3b82"/>
    <path id="Caminho_25398" data-name="Caminho 25398" d="M4524.21,6218.88c0-2.878,1.313-3.329,3.249-3.33C4525.523,6215.551,4524.21,6216,4524.21,6218.88Zm6.228-3.235c-.684,0-1.342-.038-1.958-.065C4529.1,6215.606,4529.754,6215.645,4530.438,6215.645Zm1.958-.065c.354-.016.695-.029,1.019-.029C4533.09,6215.55,4532.75,6215.563,4532.4,6215.579Zm1.021-.029h0Zm-5.956,0h0Z" transform="translate(-3165.094 -2565.376)" fill="#33445a"/>
    <path id="Caminho_25399" data-name="Caminho 25399" d="M5002.835,5679.623c.022.042.031.06.04.074l.025.046.018.029c.009.014.017.029.029.049.045.079.14.245.275.5a30.493,30.493,0,0,1,2.261,6.164,51.126,51.126,0,0,1,1.558,12.966c0,1.674-.067,3.456-.222,5.342l2.158.176-.226-2.154-19.111,2.012.453,4.308,20.9-2.2.146-1.79c.163-2,.237-3.9.237-5.695a53.494,53.494,0,0,0-2.305-16.158,33.851,33.851,0,0,0-1.629-4.211c-.229-.484-.423-.858-.566-1.12-.072-.131-.13-.235-.173-.307l-.049-.084-.006-.01,0,0-1.168.687,1.175-.674c-.006-.01-.006-.012-.007-.012l-1.168.687,1.175-.674-1.72.987,1.734-.963-.014-.024-1.72.987,1.734-.963-1.834,1.019,1.848-.993a.113.113,0,0,0-.013-.026l-1.834,1.019,1.848-.993-1.876,1.008,1.887-.987a.149.149,0,0,0-.011-.021l-1.876,1.008,1.887-.987-.082-.143v0l-3.672,2.3,1.836-1.148Z" transform="translate(-3621.077 -2038.247)" fill="#d5845e"/>
    <path id="Caminho_25400" data-name="Caminho 25400" d="M4864.11,6882.236s4.46-.565,4.392,2.3-2.752.623-2.752.623Z" transform="translate(-3498.095 -3218.487)" fill="#fdc043"/>
    <path id="Caminho_25401" data-name="Caminho 25401" d="M4866.986,6886.579c-.022-.253.629-1.1.629-1.1a6.078,6.078,0,0,0-3.5-1.114A9.477,9.477,0,0,1,4866.986,6886.579Z" transform="translate(-3498.095 -3220.61)" fill="#b48c37"/>
    <path id="Caminho_25402" data-name="Caminho 25402" d="M5009.727,6946.817l-7.566-.745v-5.725l7.566-1Z" transform="translate(-3633.344 -3274.487)" fill="#fdc043"/>
    <path id="Caminho_25403" data-name="Caminho 25403" d="M4703.641,6875.247a3.621,3.621,0,0,0-3.664-2.344c-2.925.055-2.86,6.643-2.01,7.635s2.782,2.113,5.674.434S4703.641,6875.247,4703.641,6875.247Z" transform="translate(-3334.825 -3209.387)" fill="#fdc043"/>
    <path id="Caminho_25404" data-name="Caminho 25404" d="M5504.285,5437.715c-.36-14.258-11.393-18.635-11.393-18.635l-2.232,10.333c4.966,1.625,5.956,8.3,5.956,8.3Z" transform="translate(-4111.929 -1785.07)" fill="#d2d3d5"/>
    <path id="Caminho_25405" data-name="Caminho 25405" d="M4447,5408.03c.436,0-5.019,3.083-5,8.3l-.869,9.685c-.919,0-.786.778-.834-9.238C4440.282,5411.561,4446.568,5408.033,4447,5408.03Z" transform="translate(-3082.893 -1774.245)" fill="#6a3b82"/>
    <path id="Caminho_25406" data-name="Caminho 25406" d="M5122.76,5408.03c.436,0-5.02,3.083-5,8.3l-.869,6.7c-.918,0-.834-2.009-.834-6.254C5116.062,5411.561,5122.323,5408.033,5122.76,5408.03Z" transform="translate(-3744.932 -1774.245)" fill="#6a3b82"/>
    <path id="Caminho_25407" data-name="Caminho 25407" d="M4857.331,5419.08c-2.028,1.659-1.237,2.474-5.984,2.474-3.552,0-3.918-.815-1.891-2.474Z" transform="translate(-3482.531 -1785.07)" fill="#d5845e"/>
    <path id="Caminho_25408" data-name="Caminho 25408" d="M4516.5,4642.961a2.23,2.23,0,1,1-2.193-2.631A2.444,2.444,0,0,1,4516.5,4642.961Z" transform="translate(-3153.239 -1022.125)" fill="#d5845e"/>
    <path id="Caminho_25409" data-name="Caminho 25409" d="M5471.257,4642.961a2.23,2.23,0,1,1-2.192-2.631A2.443,2.443,0,0,1,5471.257,4642.961Z" transform="translate(-4088.622 -1022.125)" fill="#d5845e"/>
    <path id="Caminho_25410" data-name="Caminho 25410" d="M4963.745,5191.144l-4.677-.307h0c.011-.328.005-3.109,0-5.557l4.692-.019C4963.774,5190.774,4963.754,5191.033,4963.745,5191.144Z" transform="translate(-3591.119 -1555.996)" fill="#d5845e"/>
    <path id="Caminho_25411" data-name="Caminho 25411" d="M4978.115,5309.48a2.859,2.859,0,0,1-2.835-1.85,6.05,6.05,0,0,0,2.274.458,5.978,5.978,0,0,0,2.052-.373c-.083.9-.273,1.683-.681,1.683A3.728,3.728,0,0,1,4978.115,5309.48Z" transform="translate(-3607.009 -1675.882)" fill="#b27151"/>
    <path id="Caminho_25412" data-name="Caminho 25412" d="M4572.2,4071.3c0,7.1-4.878,16.711-10.9,16.711s-10.9-9.606-10.9-16.711,4.879-9.021,10.9-9.021S4572.2,4064.194,4572.2,4071.3Z" transform="translate(-3190.762 -455.807)" fill="#d5845e"/>
    <path id="Caminho_25413" data-name="Caminho 25413" d="M5468.39,4425.75c.892,3.2,2.557,4.708,1.2,10.291a31.908,31.908,0,0,0,2.3-10.291Z" transform="translate(-4090.112 -811.9)" fill="#332a28"/>
    <path id="Caminho_25414" data-name="Caminho 25414" d="M4541.521,3955.546c-.037.406-11.384-21.73,17.9-20.175-1.726,1.443.921,6.21,2.808,7.085,1.365,3.139-4.3,9.19-11.783-.433,0,0-.25,4.391-8.7,6.354C4541.031,3950.035,4541.491,3952.615,4541.521,3955.546Z" transform="translate(-3179.905 -331.396)" fill="#332a28"/>
    <path id="Caminho_25415" data-name="Caminho 25415" d="M4940.75,5091.07c0,1.282,1.332,2.322,2.975,2.322s2.973-1.04,2.973-2.322Z" transform="translate(-3573.18 -1463.718)" fill="#d3d0d0"/>
    <path id="Caminho_25416" data-name="Caminho 25416" d="M5064.65,4775.406l2.816-.58-.875-3.5.324-1.347.121,1.486,1.048,3.716Z" transform="translate(-3694.566 -1149.144)" fill="#b27151"/>
    <path id="Caminho_25417" data-name="Caminho 25417" d="M5160.29,4612.5l2.02-.189a7.452,7.452,0,0,0,3.419.69C5164.729,4613.443,5160.29,4612.5,5160.29,4612.5Z" transform="translate(-3788.265 -994.674)" fill="#332a28"/>
    <path id="Caminho_25418" data-name="Caminho 25418" d="M4773.709,4612.5l-2.02-.189a7.45,7.45,0,0,1-3.419.69C4769.271,4613.443,4773.709,4612.5,4773.709,4612.5Z" transform="translate(-3404.201 -994.674)" fill="#332a28"/>
    <path id="Caminho_25419" data-name="Caminho 25419" d="M5232.639,4697.864c0,.917-.257,1.662-.575,1.662s-.574-.745-.574-1.662.257-1.664.574-1.664S5232.639,4696.944,5232.639,4697.864Z" transform="translate(-3858.02 -1076.861)" fill="#332a28"/>
    <path id="Caminho_25420" data-name="Caminho 25420" d="M4888.56,4697.864c0,.917-.257,1.662-.575,1.662s-.575-.745-.575-1.662.258-1.664.575-1.664S4888.56,4696.944,4888.56,4697.864Z" transform="translate(-3520.923 -1076.861)" fill="#332a28"/>
    <path id="Caminho_25421" data-name="Caminho 25421" d="M5264.19,4697.31v.974a.942.942,0,0,0,.871-.777C5264.867,4697.8,5264.19,4697.31,5264.19,4697.31Z" transform="translate(-3890.056 -1077.949)" fill="#332a28"/>
    <path id="Caminho_25422" data-name="Caminho 25422" d="M4919.35,4697.31v.974a.942.942,0,0,0,.871-.777C4920.027,4697.8,4919.35,4697.31,4919.35,4697.31Z" transform="translate(-3552.215 -1077.949)" fill="#332a28"/>
    <path id="Caminho_25423" data-name="Caminho 25423" d="M4247.143,7746.382s.543-3.977-2.306-4.264-.14,2.058-.14,2.058.949,3.3,1.769,3.41C4246.81,7747.632,4247.143,7746.382,4247.143,7746.382Z" transform="translate(-2890.114 -4060.938)" fill="#fdc043"/>
    <path id="Caminho_25424" data-name="Caminho 25424" d="M4027.5,7412.72l-.195,7.6,5.681.707,1.924-7.387Z" transform="translate(-2678.269 -3738.249)" fill="#fdc043"/>
    <path id="Caminho_25425" data-name="Caminho 25425" d="M3979.368,7738.6a21.411,21.411,0,0,1,.168,6.038c-.417,2.895-4.917,1.122-5.8.154a5.84,5.84,0,0,1-.052-6.9C3975.711,7735.233,3979.368,7738.6,3979.368,7738.6Z" transform="translate(-2624.656 -4055.821)" fill="#fdc043"/>
    <path id="Caminho_25426" data-name="Caminho 25426" d="M3523.775,10607.5H3498.26l-2.53,8.882h8.3l.6-.857.518.857h10.638l1.251-.857-.047.857h9.318Z" transform="translate(-2157.487 -6868.192)" fill="#f0d0a2"/>
    <path id="Caminho_25427" data-name="Caminho 25427" d="M3534.57,10607.5l-2.53,8.882h.5l2.53-8.882Z" transform="translate(-2193.06 -6868.192)" fill="#bca583"/>
    <path id="Caminho_25428" data-name="Caminho 25428" d="M3595.53,10607.5l-2.53,8.882h.5l2.531-8.882Z" transform="translate(-2252.783 -6868.192)" fill="#bca583"/>
    <path id="Caminho_25429" data-name="Caminho 25429" d="M3656.43,10607.5l-2.53,8.882h.5l2.53-8.882Z" transform="translate(-2312.447 -6868.192)" fill="#bca583"/>
    <path id="Caminho_25430" data-name="Caminho 25430" d="M3717.4,10607.5l-2.529,8.882h.5l2.53-8.882Z" transform="translate(-2372.18 -6868.192)" fill="#bca583"/>
    <path id="Caminho_25431" data-name="Caminho 25431" d="M3778.35,10607.5l-2.53,8.882h.5l2.531-8.882Z" transform="translate(-2431.893 -6868.192)" fill="#bca583"/>
    <path id="Caminho_25432" data-name="Caminho 25432" d="M3839.29,10607.5l-2.53,8.882h.5l2.53-8.882Z" transform="translate(-2491.595 -6868.192)" fill="#bca583"/>
    <path id="Caminho_25433" data-name="Caminho 25433" d="M3900.22,10607.5l-2.53,8.882h.141l.6-.857,2.287-8.024Z" transform="translate(-2551.289 -6868.192)" fill="#bca583"/>
    <path id="Caminho_25434" data-name="Caminho 25434" d="M3961.169,10607.5l-2.529,8.882h.5l2.53-8.882Z" transform="translate(-2611.002 -6868.192)" fill="#bca583"/>
    <path id="Caminho_25435" data-name="Caminho 25435" d="M4809.7,10607.5l2.529,8.882h-.5l-2.528-8.882Z" transform="translate(-3444.3 -6868.192)" fill="#bca583"/>
    <path id="Caminho_25436" data-name="Caminho 25436" d="M4748.747,10607.5l2.53,8.882h-.5l-2.53-8.882Z" transform="translate(-3384.587 -6868.192)" fill="#bca583"/>
    <path id="Caminho_25437" data-name="Caminho 25437" d="M4687.826,10607.5l2.53,8.882h-.5l-2.53-8.882Z" transform="translate(-3324.903 -6868.192)" fill="#bca583"/>
    <path id="Caminho_25438" data-name="Caminho 25438" d="M4626.857,10607.5l2.53,8.882h-.5l-2.53-8.882Z" transform="translate(-3265.17 -6868.192)" fill="#bca583"/>
    <path id="Caminho_25439" data-name="Caminho 25439" d="M4565.917,10607.5l2.53,8.882h-.5l-2.53-8.882Z" transform="translate(-3205.468 -6868.192)" fill="#bca583"/>
    <path id="Caminho_25440" data-name="Caminho 25440" d="M4504.967,10607.5l2.53,8.882h-.5l-2.53-8.882Z" transform="translate(-3145.755 -6868.192)" fill="#bca583"/>
    <path id="Caminho_25441" data-name="Caminho 25441" d="M4444.046,10607.5l2.53,8.882h-.458l-2.568-8.882Z" transform="translate(-3086.071 -6868.192)" fill="#bca583"/>
    <path id="Caminho_25442" data-name="Caminho 25442" d="M4321.237,10607.5l2.422,8.882h-.458l-2.46-8.882Z" transform="translate(-2965.753 -6868.192)" fill="#bca583"/>
    <path id="Caminho_25443" data-name="Caminho 25443" d="M4291.347,10607.5l1.964,8.882h-.458l-2-8.882Z" transform="translate(-2936.47 -6868.192)" fill="#bca583"/>
    <path id="Caminho_25444" data-name="Caminho 25444" d="M4014.282,10607.5l-2.422,8.882h.458l2.46-8.882Z" transform="translate(-2663.142 -6868.192)" fill="#bca583"/>
    <path id="Caminho_25445" data-name="Caminho 25445" d="M4084.393,10607.5l-1.963,8.882h.458l2-8.882Z" transform="translate(-2732.28 -6868.192)" fill="#bca583"/>
    <path id="Caminho_25446" data-name="Caminho 25446" d="M4166.772,10607.5l-.962,8.882h.458l1-8.882Z" transform="translate(-2813.968 -6868.192)" fill="#bca583"/>
    <path id="Caminho_25447" data-name="Caminho 25447" d="M4264.327,10607.5l.962,8.882h-.458l-1-8.882Z" transform="translate(-2909.998 -6868.192)" fill="#bca583"/>
    <path id="Caminho_25448" data-name="Caminho 25448" d="M4237.733,10607.5l-.043,8.882h.458l.081-8.882Z" transform="translate(-2884.389 -6868.192)" fill="#bca583"/>
    <path id="Caminho_25449" data-name="Caminho 25449" d="M4383.1,10607.5l2.372,8.325-.416.284-2.452-8.609Z" transform="translate(-3026.358 -6868.192)" fill="#bca583"/>
    <path id="Caminho_25450" data-name="Caminho 25450" d="M4996.646,11025.469l-.116-.408A2.755,2.755,0,0,1,4996.646,11025.469Z" transform="translate(-3627.828 -7277.277)" fill="#865858"/>
    <path id="Caminho_25451" data-name="Caminho 25451" d="M4419.12,10616.374h0l-.117-.408h0Zm-.117-.408a6.557,6.557,0,0,0-1.568-2.372l-1.737-6.1h.892Zm-2.241-2.992a11,11,0,0,0-.94-.7l-1.361-4.779h.74Zm-1.544-1.082q-.409-.24-.876-.473l-1.118-3.928h.741Zm-1.449-.744c-.267-.12-.546-.236-.841-.352l-.941-3.3h.741Zm-1.4-.557c-.263-.092-.534-.181-.817-.268l-.806-2.832h.74Zm-1.359-.426c-.258-.073-.524-.142-.8-.209l-.7-2.465h.74Zm-1.331-.333q-.384-.085-.787-.162l-.621-2.179h.74Zm-1.3-.257q-.383-.067-.786-.127l-.558-1.957h.741Z" transform="translate(-3050.301 -6868.183)" fill="#b38e5f"/>
    <path id="Caminho_25452" data-name="Caminho 25452" d="M4811.434,10613.521c-.2-.2-.424-.411-.673-.62l-1.561-5.481h.5Z" transform="translate(-3444.3 -6868.113)" fill="#90744f"/>
    <path id="Caminho_25453" data-name="Caminho 25453" d="M4750.108,10612.221c-.19-.127-.392-.254-.6-.379l-1.254-4.4h.5Z" transform="translate(-3384.587 -6868.132)" fill="#90744f"/>
    <path id="Caminho_25454" data-name="Caminho 25454" d="M4688.944,10611.389c-.184-.093-.375-.184-.573-.272l-1.042-3.656h.5Z" transform="translate(-3324.903 -6868.152)" fill="#90744f"/>
    <path id="Caminho_25455" data-name="Caminho 25455" d="M4627.8,10610.777q-.269-.105-.554-.205l-.884-3.1h.5Z" transform="translate(-3265.171 -6868.163)" fill="#90744f"/>
    <path id="Caminho_25456" data-name="Caminho 25456" d="M4566.723,10610.253q-.264-.082-.542-.159l-.762-2.674h.5Z" transform="translate(-3205.468 -6868.113)" fill="#90744f"/>
    <path id="Caminho_25457" data-name="Caminho 25457" d="M4505.669,10609.876c-.174-.042-.352-.084-.532-.123l-.667-2.342h.5Z" transform="translate(-3145.754 -6868.104)" fill="#90744f"/>
    <path id="Caminho_25458" data-name="Caminho 25458" d="M4444.667,10609.609c-.169-.033-.34-.064-.515-.1l-.6-2.084h.5Z" transform="translate(-3086.071 -6868.123)" fill="#90744f"/>
    <path id="Caminho_25459" data-name="Caminho 25459" d="M3572.98,10725.795l.283-1h0l-.283,1Z" transform="translate(-2233.169 -6983.11)" fill="#865858"/>
    <path id="Caminho_25460" data-name="Caminho 25460" d="M3615.469,10616.078h0l.051-.178h0Z" transform="translate(-2274.796 -6876.421)" fill="#2d3438"/>
    <path id="Caminho_25461" data-name="Caminho 25461" d="M3586.95,10682.576l.035-.124h0l-.035.124Zm.241-.85.008-.027h0l-.008.027Z" transform="translate(-2246.855 -6940.885)" fill="#64513a"/>
    <path id="Caminho_25462" data-name="Caminho 25462" d="M3588.68,10683.745h0l.206-.726h0Z" transform="translate(-2248.55 -6942.178)" fill="#7b6344"/>
    <path id="Caminho_25463" data-name="Caminho 25463" d="M3617.98,10609.043h0l.041-.143h0Z" transform="translate(-2277.256 -6869.563)" fill="#7b6344"/>
    <path id="Caminho_25464" data-name="Caminho 25464" d="M3615.21,10624.669l0-.02h0l0,.02Z" transform="translate(-2274.542 -6884.993)" fill="#7b6344"/>
    <path id="Caminho_25465" data-name="Caminho 25465" d="M3599.22,10626.71l.068-.238h0l-.068.238Zm.261-.917h0l.064-.223h0Z" transform="translate(-2258.876 -6885.895)" fill="#64513a"/>
    <path id="Caminho_25466" data-name="Caminho 25466" d="M3602.55,10637.238l.193-.679h0l-.193.679Z" transform="translate(-2262.139 -6896.661)" fill="#7b6344"/>
    <path id="Caminho_25467" data-name="Caminho 25467" d="M3619.96,10607.527l.008-.027Z" transform="translate(-2279.196 -6868.192)" fill="#64513a"/>
    <path id="Caminho_25468" data-name="Caminho 25468" d="M3573,10610.787l.283-1,.035-.125.206-.723.007-.028.067-.236.193-.679.064-.223.005-.021.051-.178.04-.141.009-.03h.737l-.826,2.9A8.566,8.566,0,0,0,3573,10610.787Zm1.439-.724.756-2.654h.74l-.673,2.363Q3574.839,10609.9,3574.439,10610.063Zm1.363-.443.63-2.211h.74l-.577,2.026C3576.326,10609.49,3576.061,10609.551,3575.8,10609.62Zm1.317-.282.549-1.929h.74l-.516,1.812C3577.631,10609.255,3577.373,10609.295,3577.119,10609.338Zm1.289-.18.5-1.749h.74l-.477,1.676C3578.912,10609.106,3578.658,10609.129,3578.408,10609.158Zm1.269-.111.466-1.638h.74l-.454,1.595C3580.175,10609.017,3579.924,10609.029,3579.677,10609.047Zm1.255-.064.448-1.573h.74l-.441,1.549C3581.427,10608.965,3581.178,10608.972,3580.932,10608.982Zm1.246-.034.439-1.539h.74l-.435,1.528Zm1.242-.015.434-1.524h.475l-.415,1.522Z" transform="translate(-2233.189 -6868.103)" fill="#b38e5f"/>
    <path id="Caminho_25469" data-name="Caminho 25469" d="M3615.99,10610.311l.826-2.9h.5l-.756,2.652Q3616.267,10610.181,3615.99,10610.311Z" transform="translate(-2275.306 -6868.104)" fill="#90744f"/>
    <path id="Caminho_25470" data-name="Caminho 25470" d="M3684.48,10609.794l.673-2.363h.5l-.63,2.211C3684.837,10609.688,3684.657,10609.74,3684.48,10609.794Z" transform="translate(-2342.406 -6868.124)" fill="#90744f"/>
    <path id="Caminho_25471" data-name="Caminho 25471" d="M3750.15,10609.485l.577-2.025h.5l-.549,1.928C3750.5,10609.418,3750.323,10609.451,3750.15,10609.485Z" transform="translate(-2406.743 -6868.152)" fill="#90744f"/>
    <path id="Caminho_25472" data-name="Caminho 25472" d="M3814.1,10609.3l.516-1.81h.5l-.5,1.748C3814.441,10609.256,3814.27,10609.277,3814.1,10609.3Z" transform="translate(-2469.396 -6868.182)" fill="#90744f"/>
    <path id="Caminho_25473" data-name="Caminho 25473" d="M3876.96,10609.126l.477-1.676h.5l-.466,1.637C3877.3,10609.1,3877.127,10609.111,3876.96,10609.126Z" transform="translate(-2530.98 -6868.143)" fill="#90744f"/>
    <path id="Caminho_25474" data-name="Caminho 25474" d="M3939.04,10609.044l.455-1.594h.5l-.448,1.572C3939.373,10609.028,3939.207,10609.036,3939.04,10609.044Z" transform="translate(-2591.8 -6868.143)" fill="#90744f"/>
    <path id="Caminho_25475" data-name="Caminho 25475" d="M4000.62,10609.01l.441-1.55h.5l-.438,1.538C4000.951,10609,4000.785,10609,4000.62,10609.01Z" transform="translate(-2652.13 -6868.152)" fill="#90744f"/>
    <path id="Caminho_25476" data-name="Caminho 25476" d="M4061.84,10609.019l.435-1.528h.5l-.434,1.524Z" transform="translate(-2712.108 -6868.182)" fill="#90744f"/>
    <path id="Caminho_25477" data-name="Caminho 25477" d="M4137.021,10609.006l-.211-.009.176-1.567h.043Zm-.7-.029-.372-.011.346-1.536h.194Zm-.86-.022-.187,0h-.375l.422-1.521h.477Z" transform="translate(-2783.685 -6868.123)" fill="#b38e5f"/>
    <path id="Caminho_25478" data-name="Caminho 25478" d="M4110.74,10609.013l.415-1.522h.5l-.421,1.522Z" transform="translate(-2760.016 -6868.182)" fill="#90744f"/>
    <path id="Caminho_25479" data-name="Caminho 25479" d="M4163.059,10608.983l-.488-.01.337-1.524h.5Z" transform="translate(-2810.793 -6868.142)" fill="#90744f"/>
    <path id="Caminho_25480" data-name="Caminho 25480" d="M4205.448,10609.045l-.488-.02.167-1.547h.5Z" transform="translate(-2852.323 -6868.17)" fill="#90744f"/>
    <path id="Caminho_25481" data-name="Caminho 25481" d="M4317.241,10609.324q-.4-.056-.81-.1l-.486-1.785h.76Zm-1.312-.152c-.069-.008-.141-.014-.21-.02l-.379-1.713h.108Z" transform="translate(-2960.463 -6868.132)" fill="#b38e5f"/>
    <path id="Caminho_25482" data-name="Caminho 25482" d="M4321.723,10609.234l-.5-.052-.48-1.732h.5Z" transform="translate(-2965.753 -6868.143)" fill="#90744f"/>
    <path id="Caminho_25483" data-name="Caminho 25483" d="M4264.461,10609.128c-.083-.007-.167-.014-.25-.019l-.178-1.649h.051Zm-.744-.053-.187-.012.014-1.532Z" transform="translate(-2909.705 -6868.152)" fill="#b38e5f"/>
    <path id="Caminho_25484" data-name="Caminho 25484" d="M4291.726,10609.132c-.165-.016-.331-.03-.5-.043l-.376-1.669h.5Z" transform="translate(-2936.47 -6868.113)" fill="#90744f"/>
    <path id="Caminho_25485" data-name="Caminho 25485" d="M4264.887,10609.09l-.494-.035-.173-1.543v-.072h.488Z" transform="translate(-2910.381 -6868.132)" fill="#90744f"/>
    <path id="Caminho_25486" data-name="Caminho 25486" d="M4239.929,10609.093c-.162-.01-.324-.019-.489-.026l.008-1.576h.5v.072Z" transform="translate(-2886.103 -6868.182)" fill="#90744f"/>
    <path id="Caminho_25487" data-name="Caminho 25487" d="M4383.653,10609.407c-.169-.025-.342-.05-.516-.073l-.537-1.884h.5Z" transform="translate(-3026.357 -6868.143)" fill="#90744f"/>
    <path id="Caminho_25488" data-name="Caminho 25488" d="M4176.746,6309.546a.94.94,0,1,1,.94-.939A.94.94,0,0,1,4176.746,6309.546Zm0-2.436a1.5,1.5,0,1,0,1.5,1.5A1.5,1.5,0,0,0,4176.746,6307.11Z" transform="translate(-2823.216 -2655.078)" fill="#7d313a"/>
    <path id="Caminho_25489" data-name="Caminho 25489" d="M4189.67,6508.174h2.408V6428.89h-2.408Z" transform="translate(-2837.343 -2774.386)" fill="#b7b7b8"/>
    <path id="Caminho_25490" data-name="Caminho 25490" d="M4273.46,6508.174h.707V6428.89h-.707Z" transform="translate(-2919.433 -2774.386)" fill="#f1f1f0"/>
    <path id="Caminho_25491" data-name="Caminho 25491" d="M4189.67,6508.174h.74V6428.89h-.74Z" transform="translate(-2837.343 -2774.386)" fill="#8e8f91"/>
    <path id="Caminho_25492" data-name="Caminho 25492" d="M3606.59,10492.012v-1.655l4.105-1.656h17.863l4.105,1.656v1.655Z" transform="translate(-2266.097 -6751.802)" fill="#3f294d"/>
    <path id="Caminho_25493" data-name="Caminho 25493" d="M3606.59,10608.4h26.074v-.9H3606.59Z" transform="translate(-2266.097 -6868.192)" fill="#3f294d"/>
    <path id="Caminho_25494" data-name="Caminho 25494" d="M3844.626,10483.16c0,.277-1.684,1.084-8.591,1.084s-8.516-.988-8.516-1.266,1.381.023,8.289.023S3844.626,10482.883,3844.626,10483.16Z" transform="translate(-2482.543 -6746.082)" fill="#6a3b82"/>
    <path id="Caminho_25495" data-name="Caminho 25495" d="M4053.99,10433.645h7.916v-2.545h-7.916Z" transform="translate(-2704.417 -6695.371)" fill="#3f294d"/>
    <path id="Caminho_25496" data-name="Caminho 25496" d="M4053.99,10490.076h7.916v-1.376h-7.916Z" transform="translate(-2704.417 -6751.802)" fill="#3f294d"/>
    <path id="Caminho_25497" data-name="Caminho 25497" d="M4096.983,10431.1h-4.555a.92.92,0,0,0-.918.919h6.393A.92.92,0,0,0,4096.983,10431.1Z" transform="translate(-2741.175 -6695.371)" fill="#6a3b82"/>
    <path id="Caminho_25498" data-name="Caminho 25498" d="M4153.36,10330.484h3.882v-2.084h-3.882Z" transform="translate(-2801.77 -6594.756)" fill="#6a3b82"/>
    <path id="Caminho_25499" data-name="Caminho 25499" d="M4164.73,6429.933h3.42v-1.043h-3.42Z" transform="translate(-2812.91 -2774.386)" fill="#b64050"/>
    <path id="Caminho_25500" data-name="Caminho 25500" d="M4774.894,10428.369H4757.8l1.606-1.169h13.882Z" transform="translate(-3393.943 -6691.551)" fill="#3f294d"/>
    <path id="Caminho_25501" data-name="Caminho 25501" d="M4757.8,10486.175h17.094v-1.375H4757.8Z" transform="translate(-3393.943 -6747.981)" fill="#3f294d"/>
    <path id="Caminho_25502" data-name="Caminho 25502" d="M5106.736,7435.5a.939.939,0,1,1,.94-.939A.939.939,0,0,1,5106.736,7435.5Zm0-2.437a1.5,1.5,0,1,0,1.5,1.5A1.5,1.5,0,0,0,5106.736,7433.06Z" transform="translate(-3734.332 -3758.177)" fill="#7d313a"/>
    <path id="Caminho_25503" data-name="Caminho 25503" d="M5119.62,7611.092h2.408V7554.86h-2.408Z" transform="translate(-3748.42 -3877.505)" fill="#b7b7b8"/>
    <path id="Caminho_25504" data-name="Caminho 25504" d="M5203.39,7611.092h.708V7554.86h-.708Z" transform="translate(-3830.49 -3877.505)" fill="#f1f1f0"/>
    <path id="Caminho_25505" data-name="Caminho 25505" d="M5119.62,7611.092h.739V7554.86h-.739Z" transform="translate(-3748.42 -3877.505)" fill="#8e8f91"/>
    <path id="Caminho_25506" data-name="Caminho 25506" d="M5026.9,10421.2h-4.556a.917.917,0,0,0-.918.917h6.394A.917.917,0,0,0,5026.9,10421.2Z" transform="translate(-3652.223 -6685.673)" fill="#6a3b82"/>
    <path id="Caminho_25507" data-name="Caminho 25507" d="M5083.26,10320.706h3.882v-2.206h-3.882Z" transform="translate(-3712.798 -6585.057)" fill="#6a3b82"/>
    <path id="Caminho_25508" data-name="Caminho 25508" d="M5094.69,7555.9h3.42v-1.042h-3.42Z" transform="translate(-3723.996 -3877.505)" fill="#b64050"/>
    <path id="Caminho_25509" data-name="Caminho 25509" d="M4497.491,10510.967l-5.569-11.066h-17.693l-5.569,11.066,6.756-6.67h15.251Z" transform="translate(-3110.671 -6762.775)" fill="#3f294d"/>
    <path id="Caminho_25510" data-name="Caminho 25510" d="M4759.735,10504.227h-15.718l-.988-4.326h17.694Z" transform="translate(-3379.473 -6762.775)" fill="#6a3b82"/>
    <path id="Caminho_25511" data-name="Caminho 25511" d="M4497.491,10719.839H4468.66l6.556-6.739h15.718Z" transform="translate(-3110.671 -6971.648)" fill="#3f294d"/>
    <path id="Caminho_25512" data-name="Caminho 25512" d="M4822.53,6098.182c2.857-.031,6.067-4.762,1.424-8.153,4.606,1.508,3.8,9.119-1.419,9.119Z" transform="translate(-3457.359 -2442.403)" fill="#3f294d" fill-rule="evenodd"/>
    <path id="Caminho_25513" data-name="Caminho 25513" d="M4595.8,6075.36a4.263,4.263,0,1,1-4.528,4.254A4.4,4.4,0,0,1,4595.8,6075.36Zm-2.418,2.178h1.362a.453.453,0,0,1,.492.46l0,2.219c.036.322.237.362.487.365l1.311,0a.644.644,0,0,1-.554.538c-.407.112-1.814.21-1.842-.79l-.007-2.148-.659-.008.022,2.082c.255,2.391,3.828,1.85,3.76,0,.013-.748-.017-1.5,0-2.25a.576.576,0,0,1,.592-.474l.011,2.593a2.494,2.494,0,0,1-2.851,2.362,2.41,2.41,0,0,1-2.1-2.38Zm3.036-.018.606.131-.217,1.01c-.158.195-.354.41-.695.284Z" transform="translate(-3230.793 -2428.031)" fill="#fefefe" fill-rule="evenodd"/>
  </g>
</svg>
