<svg xmlns="http://www.w3.org/2000/svg" width="223.641" height="134.262" viewBox="0 0 223.641 134.262">
  <g id="Camada_x0020_1" transform="translate(-4552.66 -2122.07)">
    <path id="Caminho_22666" data-name="Caminho 22666" d="M21456.1,2527.8c31.4-.34,66.658-52.323,15.637-89.561,50.617,16.557,41.756,100.18-15.574,100.18Z" transform="translate(-16728.643 -312.901)" fill="#421057" fill-rule="evenodd"/>
    <ellipse id="Elipse_656" data-name="Elipse 656" cx="49.75" cy="46.746" rx="49.75" ry="46.746" transform="translate(4675.892 2122.07)" fill="#6b2a87"/>
    <path id="Caminho_22667" data-name="Caminho 22667" d="M18711.7,4424.3h14.963c4.156.082,5.211,2.782,5.4,5.058l-.047,24.377c.393,3.54,2.6,3.974,5.348,4.008l14.4-.02c-.736,2.9-1.8,4.727-6.088,5.91-4.469,1.23-19.936,2.3-20.236-8.687l-.08-23.6-7.248-.087.25,22.869c2.809,26.264,42.055,20.327,41.3-.029.146-8.222-.189-16.486-.045-24.708.977-4.01,3.777-5.094,6.5-5.21l.111,28.494c-.4,11.9-10.707,28.247-31.318,25.953-12.564-2.259-22.662-11.223-23.1-26.152Z" transform="translate(-14012.625 -2278.304)" fill="#fefefe" fill-rule="evenodd"/>
    <path id="Caminho_22668" data-name="Caminho 22668" d="M21614.951,4417.58l6.658,1.432-2.385,11.1c-1.74,2.133-3.9,4.507-7.635,3.11Z" transform="translate(-16882.527 -2271.773)" fill="#fefefe" fill-rule="evenodd"/>
    <text id="Chame_a" data-name="Chame a" transform="translate(4552.66 2242.332)" fill="#fff" font-size="52" font-family="Calibri-Bold, Calibri" font-weight="700"><tspan x="0" y="0">Chame a</tspan></text>
  </g>
</svg>
