<svg xmlns="http://www.w3.org/2000/svg" width="116.479" height="116.586" viewBox="0 0 116.479 116.586">
  <path id="path" d="M74.118,105.838h0a13.248,13.248,0,1,1-26.5,0H7.876c-4.769,0-6.889-5.3-4.239-9.009L16.885,81.461a17.264,17.264,0,0,0,4.239-10.069V42.245a39.745,39.745,0,1,1,79.491,0V71.392c0,3.18,2.12,7.949,3.71,10.6l13.248,15.368c3.18,3.18.53,9.009-4.239,9.009H74.118ZM96.376,88.88c-3.71-4.239-6.359-11.659-6.359-17.488V42.245a29.147,29.147,0,1,0-58.293,0V71.392c0,5.829-2.65,13.248-6.359,17.488l-5.829,6.359H102.2L96.376,88.88Z" transform="translate(-2.482 -2.5)" fill="#584f6e"/>
</svg>
