<svg xmlns="http://www.w3.org/2000/svg" width="25.297" height="25.28" viewBox="0 0 25.297 25.28">
  <path id="path" d="M17.4,24.021h0a2.759,2.759,0,1,1-5.518,0H3.605a1.154,1.154,0,0,1-.883-1.876l2.759-3.2a3.6,3.6,0,0,0,.883-2.1v-6.07a8.277,8.277,0,1,1,16.554,0v6.07a5.289,5.289,0,0,0,.773,2.207l2.759,3.2a1.138,1.138,0,0,1-.883,1.876H17.4Zm4.635-3.532a6.122,6.122,0,0,1-1.324-3.642v-6.07a6.07,6.07,0,1,0-12.14,0v6.07a6.122,6.122,0,0,1-1.324,3.642L6.033,21.813H23.25l-1.214-1.324Z" transform="translate(-1.966 -2)" fill="rgba(151,151,151,0.3)" stroke="rgba(151,151,151,0.3)" stroke-width="1"/>
</svg>
