<svg xmlns="http://www.w3.org/2000/svg" width="119.363" height="120.217" viewBox="0 0 119.363 120.217">
  <path id="Caminho_22461" data-name="Caminho 22461" d="M63.8,38.03l7.12,23.556H92.281L75.087,73.856l7.044,22.8L63.8,82.718,45.472,96.654l7.044-22.8L35.323,61.586H56.682L63.8,38.03m-18.33,8.407H11.692A7.561,7.561,0,0,0,7.3,60.147L34.869,79.84,24.037,114.757a7.566,7.566,0,0,0,11.816,8.256L63.8,101.8l27.949,21.283a7.566,7.566,0,0,0,11.816-8.256L92.735,79.915l27.57-19.693a7.557,7.557,0,0,0-4.393-13.709H82.131L71,9.854a7.546,7.546,0,0,0-14.467,0Z" transform="translate(-4.12 -4.457)" fill="#584f6e"/>
</svg>
