<svg xmlns="http://www.w3.org/2000/svg" width="26.546" height="26.546" viewBox="0 0 26.546 26.546">
  <path id="Shape" d="M9.969,22.12A3.426,3.426,0,0,1,16.358,20.4c2.6-1.148,3.581-2.95,3.581-6.378V10.281c0-4.974-2.8-8.411-7.165-8.411S5.608,5.307,5.608,10.281v4.362a.936.936,0,0,1-.934.934H3.427A3.431,3.431,0,0,1,0,12.151V10.9A3.431,3.431,0,0,1,3.427,7.477h.6C4.966,3.027,8.195,0,12.773,0s7.806,3.027,8.749,7.477h.6A3.431,3.431,0,0,1,25.546,10.9v1.246a3.431,3.431,0,0,1-3.427,3.426h-.385a7.29,7.29,0,0,1-4.912,6.654,3.427,3.427,0,0,1-6.852-.111Zm1.87,0A1.557,1.557,0,1,0,13.4,20.562,1.559,1.559,0,0,0,11.839,22.12Zm9.969-8.411h.311a1.559,1.559,0,0,0,1.558-1.558V10.9a1.559,1.559,0,0,0-1.558-1.558h-.311ZM1.87,10.9v1.246a1.559,1.559,0,0,0,1.558,1.558h.311V9.347H3.427A1.559,1.559,0,0,0,1.87,10.9Z" transform="translate(0.5 0.5)" fill="rgba(151,151,151,0.3)" stroke="rgba(151,151,151,0.3)" stroke-width="1"/>
</svg>
