<svg xmlns="http://www.w3.org/2000/svg" xmlns:xlink="http://www.w3.org/1999/xlink" width="375" height="666.668" viewBox="0 0 375 666.668">
  <defs>
    <clipPath id="clip-path">
      <path id="Caminho_25121" data-name="Caminho 25121" d="M-13.55,6.72h375V673.388h-375V6.72Z" transform="translate(13.55 -6.72)" clip-rule="evenodd"/>
    </clipPath>
    <linearGradient id="linear-gradient" x1="6.008" y1="6.325" x2="0.502" y2="0.529" gradientUnits="objectBoundingBox">
      <stop offset="0" stop-color="#c4d5fd"/>
      <stop offset="1" stop-color="#ceddfc"/>
    </linearGradient>
    <linearGradient id="linear-gradient-2" x1="81.572" y1="105.539" x2="-5.189" y2="10.523" xlink:href="#linear-gradient"/>
    <linearGradient id="linear-gradient-3" x1="110.841" y1="155.284" x2="18.439" y2="-33.534" xlink:href="#linear-gradient"/>
    <linearGradient id="linear-gradient-4" x1="9.762" y1="9.513" x2="1.501" y2="-0.944" xlink:href="#linear-gradient"/>
    <linearGradient id="linear-gradient-5" x1="0.517" y1="0.965" x2="0.498" gradientUnits="objectBoundingBox">
      <stop offset="0" stop-color="#ebe123"/>
      <stop offset="1" stop-color="#f2d309"/>
    </linearGradient>
    <linearGradient id="linear-gradient-6" x1="0.517" y1="0.965" x2="0.498" y2="-0.07" xlink:href="#linear-gradient-5"/>
    <linearGradient id="linear-gradient-9" x1="1.111" y1="1.109" x2="1.059" y2="-0.426" gradientUnits="objectBoundingBox">
      <stop offset="0" stop-color="#ffdedd"/>
      <stop offset="1" stop-color="#ffd4d0"/>
    </linearGradient>
    <linearGradient id="linear-gradient-10" x1="20.693" y1="15.407" x2="19.745" y2="-2.874" xlink:href="#linear-gradient-9"/>
    <linearGradient id="linear-gradient-11" x1="1.07" y1="-0.345" x2="-0.758" y2="2.411" gradientUnits="objectBoundingBox">
      <stop offset="0" stop-color="#4f52ff"/>
      <stop offset="1" stop-color="#4042e2"/>
    </linearGradient>
    <linearGradient id="linear-gradient-12" x1="1.897" y1="-0.869" x2="-0.224" y2="2.96" xlink:href="#linear-gradient-11"/>
    <linearGradient id="linear-gradient-13" x1="0.223" y1="1" x2="0.854" y2="-0.135" gradientUnits="objectBoundingBox">
      <stop offset="0" stop-color="#febbba"/>
      <stop offset="1" stop-color="#ff928e"/>
    </linearGradient>
    <linearGradient id="linear-gradient-14" x1="2.842" y1="0.195" x2="-1.688" y2="0.806" gradientUnits="objectBoundingBox">
      <stop offset="0" stop-color="#09005d"/>
      <stop offset="1" stop-color="#1a0f91"/>
    </linearGradient>
    <linearGradient id="linear-gradient-15" x1="1.967" y1="0.441" x2="-2.108" y2="0.576" gradientUnits="objectBoundingBox">
      <stop offset="0" stop-color="#ff928e"/>
      <stop offset="1" stop-color="#fe7062"/>
    </linearGradient>
    <linearGradient id="linear-gradient-16" x1="0.868" y1="-0.071" x2="-0.088" y2="1.447" xlink:href="#linear-gradient-14"/>
    <linearGradient id="linear-gradient-17" x1="0.707" y1="-1.259" x2="0.362" y2="1.766" xlink:href="#linear-gradient-14"/>
    <linearGradient id="linear-gradient-18" x1="1.294" y1="0.181" x2="-0.236" y2="0.741" xlink:href="#linear-gradient-13"/>
    <linearGradient id="linear-gradient-19" x1="0.138" y1="0.833" x2="0.967" y2="-0.387" xlink:href="#linear-gradient-13"/>
    <linearGradient id="linear-gradient-20" x1="2.425" y1="-1.32" x2="0.216" y2="0.761" xlink:href="#linear-gradient-14"/>
    <linearGradient id="linear-gradient-21" x1="0.075" y1="0.121" x2="2.2" y2="1.884" xlink:href="#linear-gradient-13"/>
    <linearGradient id="linear-gradient-22" x1="0.368" y1="1.848" x2="0.521" y2="0.301" xlink:href="#linear-gradient-13"/>
    <linearGradient id="linear-gradient-23" x1="0.834" y1="0.354" x2="-0.172" y2="1.084" xlink:href="#linear-gradient-13"/>
    <linearGradient id="linear-gradient-24" x1="1.044" y1="-0.147" x2="-1.605" y2="2.415" xlink:href="#linear-gradient-14"/>
    <linearGradient id="linear-gradient-25" x1="1.162" y1="-0.433" x2="0.295" y2="0.978" xlink:href="#linear-gradient-14"/>
    <linearGradient id="linear-gradient-26" x1="-0.079" y1="-0.626" x2="1.105" y2="1.719" xlink:href="#linear-gradient-14"/>
    <linearGradient id="linear-gradient-27" x1="0.277" y1="-0.459" x2="1.055" y2="2.766" xlink:href="#linear-gradient-15"/>
    <linearGradient id="linear-gradient-28" x1="0.461" y1="0.549" x2="-0.357" y2="0.735" gradientUnits="objectBoundingBox">
      <stop offset="0" stop-color="#fcb148"/>
      <stop offset="0.027" stop-color="#fdba46"/>
      <stop offset="0.322" stop-color="#ffc444"/>
      <stop offset="0.643" stop-color="#fcab49"/>
      <stop offset="0.871" stop-color="#f8924f"/>
      <stop offset="0.937" stop-color="#f8924f"/>
      <stop offset="1" stop-color="#f8924f"/>
    </linearGradient>
    <linearGradient id="linear-gradient-29" x1="0.727" y1="0.007" x2="0.207" y2="1.135" gradientUnits="objectBoundingBox">
      <stop offset="0" stop-color="#ffdb44"/>
      <stop offset="1" stop-color="#feef06"/>
    </linearGradient>
    <linearGradient id="linear-gradient-30" x1="0.636" y1="1.231" x2="0.531" y2="0.666" xlink:href="#linear-gradient-28"/>
    <linearGradient id="linear-gradient-31" x1="0.409" y1="0.31" x2="0.858" y2="1.247" xlink:href="#linear-gradient-28"/>
    <linearGradient id="linear-gradient-32" x1="-0.132" y1="0.019" x2="0.562" y2="1.042" xlink:href="#linear-gradient-29"/>
    <clipPath id="clip-path-2">
      <path id="Caminho_25118" data-name="Caminho 25118" d="M5890.921,6397.215c-.006,0-.013,0-.019,0a12.1,12.1,0,0,1-11.462-12.032h0a12.1,12.1,0,0,0,11.462,12.032c.006,0,.013,0,.02,0Zm-11.481-12.035v0Zm0-.024v0Zm0-.018v0Zm0-.017v0Zm0-.018v0Zm0-.021v0Zm0-.017v0Zm0-.018Zm0-.018Z" transform="translate(-5879.44 -6385.029)" clip-rule="evenodd"/>
    </clipPath>
    <clipPath id="clip-path-3">
      <path id="Caminho_25119" data-name="Caminho 25119" d="M5891.261,6155.533c-.114,0-.224,0-.337-.006h-.023a12.1,12.1,0,0,1-11.461-12.034h0v-.116h0v-.032h0a10.3,10.3,0,0,1,9.227-10.336,12.856,12.856,0,0,1,2.124,2.038h0a.525.525,0,0,0-.528.54v1.131h-.007a5.727,5.727,0,0,0-3.625,1.016,3.513,3.513,0,0,0-1.286,2.912,4.042,4.042,0,0,0,1.187,3,6.836,6.836,0,0,0,2.711,1.511,6.087,6.087,0,0,0-.276,1.312,8.372,8.372,0,0,0,.1,2.34c-.349-.058-.694-.128-1.035-.219a10.731,10.731,0,0,1-1.3-.431.727.727,0,0,0-.228-.045.556.556,0,0,0-.561.514l-.159,1.787a.633.633,0,0,0,.462.656,14.07,14.07,0,0,0,1.479.34,17.147,17.147,0,0,0,2.139.232h.118c.045.1.095.193.14.283v.932a.619.619,0,0,0,.58.617h.035a.582.582,0,0,0,.258-.064,13.889,13.889,0,0,0,1.684,2.038A11.421,11.421,0,0,1,5891.261,6155.533Zm-1-13.332a2.685,2.685,0,0,1-1.187-.6,1.27,1.27,0,0,1-.383-.945,1.2,1.2,0,0,1,.414-.958,2,2,0,0,1,1.156-.4Zm1.161-.913v-1.967l.163.013c.193.02.383.039.572.064A5.746,5.746,0,0,1,5891.42,6141.288Zm.444-4.429-.444-.058v-.849a6.786,6.786,0,0,1,.444.906Z" transform="translate(-5879.44 -6133.009)" clip-rule="evenodd"/>
    </clipPath>
    <clipPath id="clip-path-4">
      <path id="Caminho_25120" data-name="Caminho 25120" d="M6028.671,6201.235h-.032a.615.615,0,0,1-.583-.615v-.929a12.677,12.677,0,0,0,.873,1.48A.526.526,0,0,1,6028.671,6201.235Zm-.752-1.828-.12-.005a17.014,17.014,0,0,1-2.139-.226,14.655,14.655,0,0,1-1.478-.341.635.635,0,0,1-.464-.656l.16-1.791a.555.555,0,0,1,.56-.509.6.6,0,0,1,.228.047,11.615,11.615,0,0,0,1.3.426c.34.089.686.162,1.032.22a11.242,11.242,0,0,0,.918,2.835Zm-.738-6.49a6.77,6.77,0,0,1-2.712-1.512,4.025,4.025,0,0,1-1.189-2.993,3.5,3.5,0,0,1,1.291-2.909,5.7,5.7,0,0,1,3.625-1.014h.006v-1.134a.523.523,0,0,1,.525-.536h0a8.155,8.155,0,0,1,.63.9v.85c.148.016.3.032.446.053a5.238,5.238,0,0,1,.318,1.223,4.3,4.3,0,0,1-.028,1.318c-.188-.026-.378-.047-.574-.063l-.162-.016v1.964A20.276,20.276,0,0,0,6027.181,6192.917Zm1.021-5.86a1.965,1.965,0,0,0-1.158.409,1.192,1.192,0,0,0-.415.951,1.273,1.273,0,0,0,.384.945,2.692,2.692,0,0,0,1.188.609v-2.914Z" transform="translate(-6023.28 -6182.82)" clip-rule="evenodd"/>
    </clipPath>
  </defs>
  <g id="Camada_x0020_1" transform="translate(13.55 -6.72)">
    <path id="Caminho_25062" data-name="Caminho 25062" d="M-13.55,6.72h375V673.387h-375Z" transform="translate(0 0)" fill="#412e6e" fill-rule="evenodd"/>
    <g id="Grupo_4262" data-name="Grupo 4262" transform="translate(-13.55 6.72)" clip-path="url(#clip-path)">
      <g id="_2403342917984" transform="translate(59.836 218.237)">
        <path id="_1" data-name="1" d="M6330.184,5631.666a.888.888,0,0,0-1.672-.413c-4.149,7.9-15.679,28.288-28.729,37.63-21.251,15.21-39.245,43.426-31.594,61.656C6268.189,5730.539,6330.425,5732.279,6330.184,5631.666Z" transform="translate(-6068.686 -5618.369)" fill="#fefefe"/>
        <path id="Caminho_25063" data-name="Caminho 25063" d="M6112.421,5328.853a.85.85,0,0,0-1.648-.037c-2.227,8.246-8.749,29.685-18.988,41.127-16.675,18.63-27.6,48.727-16.657,64.155C6075.127,5434.1,6133.606,5422.758,6112.421,5328.853Z" transform="translate(-5881.041 -5328.192)" fill="#91b3fa"/>
        <path id="Caminho_25064" data-name="Caminho 25064" d="M2467.311,5963.238l-.062,0c-1.041-.069-2.089-.183-3.115-.341a.917.917,0,0,1-.779-.951.906.906,0,0,1,.009-.1.92.92,0,0,1,.907-.781.867.867,0,0,1,.141.012c.974.148,1.97.257,2.958.323a.919.919,0,0,1,.857.96v.018A.919.919,0,0,1,2467.311,5963.238Zm4.959-.01a.919.919,0,0,1-.916-.854.867.867,0,0,1,0-.11.92.92,0,0,1,.853-.872c.989-.069,1.982-.181,2.957-.334a.937.937,0,0,1,.142-.01.919.919,0,0,1,.141,1.826c-1.024.161-2.072.279-3.111.352C2472.314,5963.228,2472.292,5963.229,2472.27,5963.229Zm7.87-1.449a.92.92,0,0,1-.879-.653.931.931,0,0,1-.038-.311.92.92,0,0,1,.651-.835c.946-.286,1.89-.618,2.807-.986a.937.937,0,0,1,.341-.065.919.919,0,0,1,.342,1.771c-.966.388-1.961.736-2.956,1.038A.929.929,0,0,1,2480.141,5961.779Zm7.35-3.174a.92.92,0,0,1-.8-.462.908.908,0,0,1-.12-.5.92.92,0,0,1,.461-.756c.858-.491,1.705-1.025,2.518-1.587a.9.9,0,0,1,.521-.163.917.917,0,0,1,.524,1.672c-.855.594-1.747,1.156-2.649,1.673A.915.915,0,0,1,2487.49,5958.605Zm6.456-4.731a.919.919,0,0,1-.622-1.6c.725-.668,1.433-1.375,2.1-2.107a.919.919,0,1,1,1.354,1.242c-.7.768-1.448,1.515-2.212,2.217A.916.916,0,0,1,2493.947,5953.874Zm5.249-6.041a.9.9,0,0,1-.521-.163.919.919,0,0,1-.4-.8.91.91,0,0,1,.162-.477c.56-.815,1.094-1.663,1.584-2.521a.918.918,0,0,1,.8-.461.93.93,0,0,1,.454.119.919.919,0,0,1,.343,1.254c-.516.9-1.076,1.8-1.667,2.652a.922.922,0,0,1-.758.4Zm3.778-7.053a.911.911,0,0,1-.917-.96.917.917,0,0,1,.064-.3c.365-.919.7-1.862.981-2.808a.919.919,0,1,1,1.759.532c-.3.995-.649,1.989-1.035,2.954A.918.918,0,0,1,2502.973,5940.781Zm2.109-7.718a.909.909,0,0,1-.918-.96c0-.031,0-.065.01-.1.151-.977.262-1.972.33-2.958a.919.919,0,0,1,.915-.856.478.478,0,0,1,.064,0,.919.919,0,0,1,.855.96v.02c-.071,1.038-.189,2.086-.347,3.111A.919.919,0,0,1,2505.082,5933.063Zm.337-8a.921.921,0,0,1-.916-.855c-.067-.99-.178-1.984-.328-2.961a.894.894,0,0,1-.01-.184.92.92,0,0,1,.778-.863.985.985,0,0,1,.141-.01.917.917,0,0,1,.906.778c.159,1.029.275,2.076.347,3.114a.919.919,0,0,1-.854.979Zm-1.434-7.876a.918.918,0,0,1-.88-.654c-.285-.946-.616-1.892-.981-2.811a.9.9,0,0,1-.064-.381.916.916,0,0,1,.578-.81.881.881,0,0,1,.34-.066.92.92,0,0,1,.854.579c.385.965.732,1.962,1.033,2.958a.917.917,0,0,1-.614,1.145A.9.9,0,0,1,2503.984,5917.191Z" transform="translate(-2421.611 -5888.508)" fill-rule="evenodd" fill="url(#linear-gradient)"/>
        <path id="Caminho_25065" data-name="Caminho 25065" d="M3337.579,5775.258a.917.917,0,0,1-.8-.462c-.237-.413-.483-.826-.735-1.228a.919.919,0,0,1,1.556-.978c.265.423.524.858.773,1.293a.918.918,0,0,1-.8,1.374Z" transform="translate(-3258.377 -5753.954)" fill-rule="evenodd" fill="url(#linear-gradient-2)"/>
        <path id="Caminho_25066" data-name="Caminho 25066" d="M2778.195,5383.408a.9.9,0,0,1-.226-.029c-.462-.116-.931-.226-1.395-.321a.92.92,0,0,1-.729-.943.806.806,0,0,1,.018-.146.918.918,0,0,1,.9-.729.843.843,0,0,1,.19.02c.488.1.982.216,1.468.338a.919.919,0,0,1-.224,1.811Z" transform="translate(-2721.285 -5379.064)" fill="#dee8fd"/>
        <path id="Caminho_25067" data-name="Caminho 25067" d="M1728.155,5415.2a.92.92,0,0,1-.836-.538c-.425-.931-.815-1.891-1.16-2.856a.918.918,0,0,1,.556-1.174.919.919,0,0,1,1.175.554c.327.917.7,1.831,1.1,2.713a.919.919,0,0,1-.835,1.3Zm-2.455-7.485a.918.918,0,0,1-.9-.729c-.209-1-.378-2.025-.5-3.043a.905.905,0,0,1-.006-.155.919.919,0,0,1,.806-.868.808.808,0,0,1,.113-.008.921.921,0,0,1,.911.807c.119.968.279,1.94.477,2.891a.916.916,0,0,1-.711,1.086A.83.83,0,0,1,1725.7,5407.715Zm-.753-7.839h-.013a.92.92,0,0,1-.906-.931c.006-.428.019-.851.039-1.274.029-.6.072-1.208.13-1.8a.919.919,0,0,1,.913-.832c.03,0,.06,0,.09.005a.919.919,0,0,1,.826,1c-.093.96-.146,1.94-.16,2.924A.92.92,0,0,1,1724.947,5399.876Zm.966-7.816a.943.943,0,0,1-.213-.026.917.917,0,0,1-.7-.936.932.932,0,0,1,.024-.17c.237-.994.519-1.991.839-2.966a.921.921,0,0,1,.873-.632.907.907,0,0,1,.287.046.921.921,0,0,1,.585,1.162c-.3.924-.572,1.872-.8,2.815A.919.919,0,0,1,1725.913,5392.06Zm2.657-7.409a.918.918,0,0,1-.824-1.323c.449-.917.944-1.828,1.471-2.708a.919.919,0,1,1,1.576.945c-.5.834-.97,1.7-1.4,2.572A.917.917,0,0,1,1728.57,5384.651Zm4.22-6.646a.918.918,0,0,1-.716-1.492c.641-.8,1.322-1.58,2.026-2.321a.916.916,0,0,1,1.3-.035.917.917,0,0,1,.034,1.3c-.669.705-1.317,1.447-1.925,2.207A.917.917,0,0,1,1732.79,5378Zm5.57-5.569a.918.918,0,0,1-.575-1.635c.8-.64,1.635-1.255,2.483-1.826a.926.926,0,0,1,.512-.156.918.918,0,0,1,.514,1.68c-.806.542-1.6,1.127-2.36,1.735A.909.909,0,0,1,1738.359,5372.435Zm6.65-4.219a.92.92,0,0,1-.4-1.746c.92-.45,1.871-.868,2.825-1.237a.887.887,0,0,1,.332-.063.918.918,0,0,1,.333,1.774c-.906.353-1.808.749-2.682,1.177A.925.925,0,0,1,1745.01,5368.216Zm7.416-2.66a.919.919,0,0,1-.211-1.814c.995-.235,2.012-.433,3.026-.583a.934.934,0,0,1,.137-.01.918.918,0,0,1,.135,1.826c-.963.146-1.929.333-2.874.557A.939.939,0,0,1,1752.426,5365.556Zm10.821-.88a.575.575,0,0,1-.065,0c-.256-.017-.515-.034-.773-.046-.556-.027-1.119-.039-1.679-.039-.159,0-.318,0-.476,0h-.013a.916.916,0,0,1-.918-.9c0-.02,0-.04,0-.059a.917.917,0,0,1,.906-.873c.167,0,.335,0,.5,0,.588,0,1.179.014,1.763.041.272.015.543.03.813.049a.909.909,0,0,1,.854.98A.92.92,0,0,1,1763.246,5364.676Z" transform="translate(-1712.604 -5361.333)" fill="#dee8fd"/>
        <path id="Caminho_25068" data-name="Caminho 25068" d="M1861,6705.083a.918.918,0,0,1-.756-.4c-.286-.413-.567-.834-.833-1.254a.92.92,0,0,1,.284-1.269.916.916,0,0,1,1.268.284c.253.4.52.8.792,1.191a.918.918,0,0,1-.231,1.278A.906.906,0,0,1,1861,6705.083Z" transform="translate(-1842.295 -6645.678)" fill="#dee8fd"/>
        <path id="Caminho_25069" data-name="Caminho 25069" d="M1917.389,5560.093a.458.458,0,0,0,.529.061l4.878-2.71a24.279,24.279,0,0,0,7.425,2.624l2.1,5.166a.457.457,0,0,0,.449.287l6.682-.36a.452.452,0,0,0,.417-.33l1.533-5.36a24.329,24.329,0,0,0,7.1-3.4l5.139,2.171a.459.459,0,0,0,.52-.114l4.472-4.979a.459.459,0,0,0,.059-.53l-2.708-4.879a24.28,24.28,0,0,0,2.622-7.424l5.166-2.1a.461.461,0,0,0,.285-.45l-.357-6.682a.463.463,0,0,0-.332-.418l-5.361-1.531a24.344,24.344,0,0,0-3.4-7.1l2.172-5.139a.455.455,0,0,0-.116-.518l-4.978-4.473a.458.458,0,0,0-.529-.061l-4.878,2.71a24.284,24.284,0,0,0-7.425-2.624l-2.1-5.166a.458.458,0,0,0-.449-.287l-6.683.357a.462.462,0,0,0-.416.333l-1.533,5.361a24.322,24.322,0,0,0-7.1,3.4l-5.139-2.171a.459.459,0,0,0-.52.115l-4.472,4.978a.46.46,0,0,0-.06.53l2.709,4.879a24.281,24.281,0,0,0-2.623,7.424l-5.166,2.1a.462.462,0,0,0-.285.45l.358,6.683a.455.455,0,0,0,.331.415l5.361,1.535a24.344,24.344,0,0,0,3.4,7.1l-2.172,5.139a.454.454,0,0,0,.116.517Z" transform="translate(-1886.169 -5499.165)" fill="#584f6e"/>
        <path id="Caminho_25070" data-name="Caminho 25070" d="M2471.834,6066.158a5.158,5.158,0,1,0,.78,3.868,5.218,5.218,0,0,0,.093-.759A5.116,5.116,0,0,0,2471.834,6066.158Zm-10.882,1.581a6.727,6.727,0,1,1-.118.981A6.734,6.734,0,0,1,2460.952,6067.739Z" transform="translate(-2419.186 -6032.201)" fill="#bdd0fb"/>
        <path id="Caminho_25071" data-name="Caminho 25071" d="M2224.074,5836.335q-.039.843.005,1.7c.01.18.022.357.038.537a16.645,16.645,0,0,0,.435,2.613l.009.035c.008.034.017.065.026.1.016.063.034.129.051.191a.392.392,0,0,0,.36.29.338.338,0,0,0,.122-.015.392.392,0,0,0,.276-.481,15.77,15.77,0,0,1,15.98-19.892,15.757,15.757,0,0,1,.064,31.471c-.535.029-1.07.029-1.6,0a15.707,15.707,0,0,1-6.6-1.8.37.37,0,0,0-.165-.046.392.392,0,0,0-.2.739,16.488,16.488,0,0,0,6.927,1.892,16.078,16.078,0,0,0,1.68,0,16.542,16.542,0,0,0-.068-33.039c-.563-.027-1.131-.024-1.7.005a16.545,16.545,0,0,0-15.638,15.7Z" transform="translate(-2192.126 -5800.414)" fill="#bdd0fb"/>
        <path id="Caminho_25072" data-name="Caminho 25072" d="M1839.335,7842.869a.557.557,0,0,1-.153-.021c-.464-.129-.93-.276-1.386-.433a.566.566,0,0,1-.381-.562.584.584,0,0,1,.03-.16.568.568,0,0,1,.536-.382.587.587,0,0,1,.186.031c.434.152.879.29,1.321.414a.568.568,0,0,1-.153,1.114Z" transform="translate(-1821.34 -7738.246)" fill-rule="evenodd" fill="url(#linear-gradient-3)"/>
        <path id="Caminho_25073" data-name="Caminho 25073" d="M1944.281,7242.545h-.014c-.176,0-.351-.012-.525-.021a24.351,24.351,0,0,1-2.484-.244.569.569,0,0,1-.483-.587c0-.02,0-.039.006-.059a.567.567,0,0,1,.56-.482.63.63,0,0,1,.085.006,23.632,23.632,0,0,0,2.37.233c.167.008.334.014.5.018a.568.568,0,0,1,.552.583A.589.589,0,0,1,1944.281,7242.545Zm2.95-.1a.568.568,0,0,1-.564-.515.6.6,0,0,1,0-.081.567.567,0,0,1,.513-.537,23.558,23.558,0,0,0,2.846-.45.567.567,0,0,1,.246,1.107,24.44,24.44,0,0,1-2.984.472Zm5.753-1.279a.568.568,0,0,1-.535-.377.579.579,0,0,1-.032-.217.57.57,0,0,1,.376-.508,23.435,23.435,0,0,0,2.648-1.135.567.567,0,1,1,.511,1.013,24.356,24.356,0,0,1-2.778,1.191A.547.547,0,0,1,1952.984,7241.164Zm5.262-2.654a.567.567,0,0,1-.317-1.038,23.247,23.247,0,0,0,2.289-1.75.568.568,0,0,1,.744.858,24.533,24.533,0,0,1-2.4,1.833A.561.561,0,0,1,1958.246,7238.51Zm4.453-3.856a.568.568,0,0,1-.421-.948,23.724,23.724,0,0,0,1.8-2.252.567.567,0,1,1,.928.652,24.863,24.863,0,0,1-1.882,2.361A.568.568,0,0,1,1962.7,7234.653Zm3.382-4.82a.57.57,0,0,1-.566-.6.577.577,0,0,1,.066-.24,23.213,23.213,0,0,0,1.191-2.62.568.568,0,0,1,.53-.366.548.548,0,0,1,.2.038.568.568,0,0,1,.328.732,24.45,24.45,0,0,1-1.25,2.748A.567.567,0,0,1,1966.08,7229.833Zm2.1-5.5a.545.545,0,0,1-.136-.018.566.566,0,0,1-.431-.577.574.574,0,0,1,.016-.108,23.282,23.282,0,0,0,.512-2.836.568.568,0,0,1,.563-.5.628.628,0,0,1,.068,0,.571.571,0,0,1,.5.63,24.652,24.652,0,0,1-.537,2.973A.569.569,0,0,1,1968.181,7224.332Zm.686-5.852a.568.568,0,0,1-.568-.565c0-.124,0-.25-.006-.375a23.484,23.484,0,0,0-.186-2.5.532.532,0,0,1,0-.1.567.567,0,0,1,.494-.535.622.622,0,0,1,.073,0,.567.567,0,0,1,.562.5,24.719,24.719,0,0,1,.2,2.617c0,.133.005.266.006.4a.562.562,0,0,1-.565.57Z" transform="translate(-1920.462 -7137.046)" fill-rule="evenodd" fill="url(#linear-gradient-4)"/>
        <path id="Caminho_25074" data-name="Caminho 25074" d="M1448.118,6788.6a.568.568,0,0,1-.518-.333,24.267,24.267,0,0,1-1.057-2.779.576.576,0,0,1-.025-.2.567.567,0,0,1,.4-.515.581.581,0,0,1,.169-.025.569.569,0,0,1,.542.4,23.362,23.362,0,0,0,1.008,2.65.567.567,0,0,1-.517.8Zm-1.727-5.534a.568.568,0,0,1-.557-.466,24.867,24.867,0,0,1-.355-2.95.517.517,0,0,1,0-.062.569.569,0,0,1,.533-.54h.035a.567.567,0,0,1,.566.534,23.68,23.68,0,0,0,.338,2.815.569.569,0,0,1-.457.66A.562.562,0,0,1,1446.391,6783.061Zm-.344-5.787h-.035a.568.568,0,0,1-.533-.593v-.009a24.7,24.7,0,0,1,.358-2.947.568.568,0,0,1,.558-.465.615.615,0,0,1,.1.009.57.57,0,0,1,.456.661,23.436,23.436,0,0,0-.342,2.813A.567.567,0,0,1,1446.047,6777.274Zm1.046-5.7a.555.555,0,0,1-.17-.026.567.567,0,0,1-.371-.711,24.739,24.739,0,0,1,1.061-2.776.567.567,0,1,1,1.034.468,23.555,23.555,0,0,0-1.012,2.648.568.568,0,0,1-.541.4Zm2.393-5.275a.569.569,0,0,1-.485-.864,24.825,24.825,0,0,1,1.7-2.438.566.566,0,0,1,.446-.213.56.56,0,0,1,.351.122.566.566,0,0,1,.094.8,23.2,23.2,0,0,0-1.618,2.327.567.567,0,0,1-.485.271Zm3.59-4.55a.564.564,0,0,1-.4-.165.571.571,0,0,1-.164-.428.565.565,0,0,1,.167-.377,24.993,24.993,0,0,1,2.231-1.962.568.568,0,0,1,.7.9,23.185,23.185,0,0,0-2.128,1.872A.565.565,0,0,1,1453.076,6761.75Zm4.576-3.556a.568.568,0,0,1-.487-.277.562.562,0,0,1-.08-.316.571.571,0,0,1,.275-.462,24.8,24.8,0,0,1,2.638-1.371.594.594,0,0,1,.231-.048.568.568,0,0,1,.231,1.087,23.043,23.043,0,0,0-2.515,1.307A.581.581,0,0,1,1457.652,6758.194Z" transform="translate(-1445.478 -6697.176)" fill="#dee8fd"/>
        <path id="Caminho_25075" data-name="Caminho 25075" d="M1530.714,7595.183a.568.568,0,0,1-.467-.244c-.272-.393-.539-.8-.792-1.217a.567.567,0,1,1,.969-.59c.242.395.5.785.755,1.16a.568.568,0,0,1-.143.789A.561.561,0,0,1,1530.714,7595.183Z" transform="translate(-1525.933 -7499.984)" fill="#dee8fd"/>
        <path id="Caminho_25076" data-name="Caminho 25076" d="M1603.187,6885.524a.288.288,0,0,0,.332.038l3.057-1.7a15.253,15.253,0,0,0,4.654,1.644l1.315,3.238a.286.286,0,0,0,.281.178l4.189-.225a.285.285,0,0,0,.261-.208l.961-3.36a15.231,15.231,0,0,0,4.452-2.131l3.221,1.361a.286.286,0,0,0,.325-.074l2.8-3.12a.286.286,0,0,0,.037-.331l-1.7-3.058a15.224,15.224,0,0,0,1.644-4.653l3.238-1.315a.287.287,0,0,0,.179-.282l-.224-4.189a.287.287,0,0,0-.208-.26l-3.36-.961a15.252,15.252,0,0,0-2.132-4.452l1.361-3.221a.286.286,0,0,0-.073-.325l-3.12-2.8a.29.29,0,0,0-.332-.039l-3.057,1.7a15.276,15.276,0,0,0-4.654-1.644l-1.314-3.238a.285.285,0,0,0-.282-.178l-4.189.224a.287.287,0,0,0-.261.207l-.96,3.362a15.154,15.154,0,0,0-4.452,2.132l-3.221-1.361a.284.284,0,0,0-.326.072l-2.8,3.12a.287.287,0,0,0-.037.331l1.7,3.058a15.232,15.232,0,0,0-1.644,4.654l-3.238,1.314a.288.288,0,0,0-.179.282l.225,4.189a.287.287,0,0,0,.208.26l3.36.961a15.246,15.246,0,0,0,2.132,4.452l-1.361,3.221a.288.288,0,0,0,.073.326Z" transform="translate(-1589.28 -6789.427)" fill="#584f6e"/>
        <path id="Caminho_25077" data-name="Caminho 25077" d="M1946.863,7199.61a3.158,3.158,0,1,0,2.49,3.707,3.236,3.236,0,0,0,.056-.46A3.163,3.163,0,0,0,1946.863,7199.61Zm-4.82,2.272a4.274,4.274,0,1,1-.077.631A4.352,4.352,0,0,1,1942.043,7201.882Z" transform="translate(-1921.6 -7121.716)" fill="#bdd0fb"/>
        <path id="Caminho_25078" data-name="Caminho 25078" d="M1787.59,7051.135q-.026.538,0,1.087a10.735,10.735,0,0,0,.336,2.153l.025.094a.567.567,0,0,0,.52.417.552.552,0,0,0,.177-.02.568.568,0,0,0,.4-.7,9.565,9.565,0,0,1-.323-2.008h0c0-.038,0-.075,0-.112a9.458,9.458,0,0,1,.95-4.582,9.632,9.632,0,0,1,1.43-2.139l.014-.015.044-.05a9.555,9.555,0,1,1,7.619,15.927,9.547,9.547,0,0,1-4.971-1.09.568.568,0,1,0-.53,1,10.664,10.664,0,0,0,4.476,1.222,10.464,10.464,0,0,0,1.086,0,10.69,10.69,0,0,0-.043-21.352,10.7,10.7,0,0,0-11.206,10.162Z" transform="translate(-1773.549 -6970.719)" fill="#bdd0fb"/>
        <path id="Caminho_25079" data-name="Caminho 25079" d="M6454.03,6010.125a.15.15,0,0,1-.121-.06.155.155,0,0,1,.019-.215l0,0q3.621-3.109,6.965-6.515a56.233,56.233,0,0,0,14.394-17.249q.992-1.368,1.966-2.75c2.264-3.22,4.4-6.531,6.505-9.852,4.193-6.666,8.032-13.55,11.676-20.534q2.72-5.243,5.241-10.592,1.265-2.673,2.475-5.367l1.186-2.706.581-1.359.28-.683c.09-.224.189-.465.258-.664l.012-.034a.154.154,0,0,1,.146-.1.118.118,0,0,1,.051.01.156.156,0,0,1,.1.189c-.08.27-.167.486-.25.725l-.262.692-.54,1.381c-.364.917-.744,1.828-1.123,2.74q-1.148,2.731-2.358,5.433c-1.617,3.6-3.331,7.161-5.1,10.693s-3.62,7.021-5.555,10.468-3.921,6.86-6.019,10.21a189.8,189.8,0,0,1-13.721,19.331c-2.525,3.042-5.132,6.02-7.907,8.84a103.036,103.036,0,0,1-8.8,7.938A.161.161,0,0,1,6454.03,6010.125Z" transform="translate(-6248.477 -5906.701)" fill="#d9e4fd"/>
        <path id="Caminho_25080" data-name="Caminho 25080" d="M6267.036,5711.174a.146.146,0,0,1-.095-.034.153.153,0,0,1-.027-.208l0,0a109.935,109.935,0,0,0,6.272-9.386c1.939-3.226,3.69-6.561,5.353-9.937s3.182-6.822,4.626-10.3,2.745-7.013,4.023-10.555c2.529-7.1,4.678-14.326,6.627-21.606q1.451-5.462,2.688-10.983.623-2.756,1.193-5.525l.544-2.776.26-1.388.119-.7c.037-.229.08-.474.1-.673l0-.034a.147.147,0,0,1,.148-.134h.017a.149.149,0,0,1,.134.16c-.02.27-.053.488-.083.729l-.1.7-.216,1.4c-.151.933-.314,1.862-.479,2.792q-.5,2.79-1.067,5.564c-.759,3.7-1.617,7.383-2.531,11.049s-1.918,7.312-3,10.932-2.234,7.225-3.5,10.789a181.156,181.156,0,0,1-8.783,20.911c-1.728,3.367-3.542,6.69-5.544,9.9a98.545,98.545,0,0,1-6.571,9.246.155.155,0,0,1-.12.056Z" transform="translate(-6069.157 -5614.688)" fill="#8a64ed"/>
        <path id="Caminho_25081" data-name="Caminho 25081" d="M4819.166,7959.071H4696.16V7811.053a15.612,15.612,0,0,1,15.611-15.612h97.459a15.613,15.613,0,0,1,15.611,15.612v142.341A5.678,5.678,0,0,1,4819.166,7959.071Z" transform="translate(-4562.848 -7694.257)" fill="#8a64ed"/>
        <path id="Caminho_25082" data-name="Caminho 25082" d="M5862.133,7014.578h-5.492l-8.632-25.391,23.994-1.458Z" transform="translate(-5667.459 -6919.671)" fill-rule="evenodd" fill="url(#linear-gradient-5)"/>
        <path id="Caminho_25083" data-name="Caminho 25083" d="M5519.368,5927.828h-.063a17,17,0,0,1-5.116-.852c-18.4-5.886-20.906-38-21.229-48.016l51.429-2.769c-.007,2.005-.077,4.057-.209,6.135q-.146,2.3-.394,4.626C5541.629,5907.111,5533.666,5927.829,5519.368,5927.828Zm-19.9-40.417a.26.26,0,0,0-.043,0,.441.441,0,0,0-.4.486c.59,5.6,1.858,13.722,4.544,20.666,3.251,8.409,7.761,13,13.4,13.649a.367.367,0,0,0,.052,0,.443.443,0,0,0,.05-.882c-12.449-1.432-16.15-23.923-17.163-33.527A.447.447,0,0,0,5499.472,5887.411Zm-.463-6.423-.029,0a.444.444,0,0,0-.43.457c0,.03.023.767.106,2.047a.443.443,0,0,0,.442.417.119.119,0,0,0,.03,0,.444.444,0,0,0,.415-.472c-.083-1.261-.1-2.007-.106-2.015A.429.429,0,0,0,5499.009,5880.988Z" transform="translate(-5326.97 -5853.716)" fill-rule="evenodd" fill="url(#linear-gradient-6)"/>
        <path id="Caminho_25084" data-name="Caminho 25084" d="M5710.24,7740.464h34.054v-4.134H5710.24Z" transform="translate(-5535.34 -7637.571)" fill-rule="evenodd" fill="url(#linear-gradient-5)"/>
        <path id="Caminho_25085" data-name="Caminho 25085" d="M5744.294,7628.194H5710.24l8.619-4.625h16.817Z" transform="translate(-5535.34 -7529.435)" fill-rule="evenodd" fill="url(#linear-gradient-5)"/>
        <path id="Caminho_25086" data-name="Caminho 25086" d="M5351.974,5653.546a2.943,2.943,0,0,1-3.184-2.693v-3.226a3.422,3.422,0,0,1,3.4-3.078l31.364-1.909L5410.57,5641c.082,0,.163-.007.245-.007a3.041,3.041,0,0,1,3.09,2.113,2.47,2.47,0,0,1,.063.556v3.688a3.311,3.311,0,0,1-2.932,3,4.183,4.183,0,0,1-.469.051l-4.437.238-51.429,2.769-2.512.133C5352.119,5653.543,5352.045,5653.546,5351.974,5653.546Zm33.83-6.755h-.025l-31.146,1.675a.444.444,0,0,0,.023.887h.024l31.146-1.675a.444.444,0,0,0-.022-.887Zm13.939-.751h-.017l-5.214.282a.443.443,0,0,0,.021.885h.027l5.211-.279a.444.444,0,0,0-.029-.888Z" transform="translate(-5188.713 -5628.162)" fill="#bdbfc1" fill-rule="evenodd"/>
        <path id="Caminho_25087" data-name="Caminho 25087" d="M6315.037,6551.275a2.592,2.592,0,0,1-2.693-2.025,2.41,2.41,0,0,1,2.386-2.528c.282-.029,19.874-2.1,21.731-12.818.313-1.808.279-4.171-1.666-5.155a6.832,6.832,0,0,0-6.108.6c-1.07.659-2.237,1.811-1.741,3.562a2.3,2.3,0,0,1-2.008,2.754,2.771,2.771,0,0,1-3.27-1.692c-.9-3.18.525-6.286,3.814-8.311a13.048,13.048,0,0,1,12.113-.827c2.032,1.031,5.285,3.664,4.235,9.726-1.038,6-6.043,10.8-14.477,13.89a53.852,53.852,0,0,1-12.006,2.811C6315.244,6551.27,6315.14,6551.275,6315.037,6551.275Z" transform="translate(-6112.734 -6474.682)" fill="#bdbfc1" fill-rule="evenodd"/>
        <path id="Caminho_25088" data-name="Caminho 25088" d="M5251.652,6551.275a2.591,2.591,0,0,0,2.693-2.025,2.409,2.409,0,0,0-2.386-2.528c-.284-.029-19.874-2.1-21.73-12.818-.314-1.808-.279-4.171,1.665-5.155a6.836,6.836,0,0,1,6.11.6c1.068.659,2.236,1.811,1.739,3.562a2.3,2.3,0,0,0,2.009,2.754,2.772,2.772,0,0,0,3.27-1.692c.9-3.18-.525-6.286-3.814-8.311a13.047,13.047,0,0,0-12.113-.827c-2.033,1.031-5.287,3.664-4.237,9.726,1.039,6,6.044,10.8,14.477,13.89a53.864,53.864,0,0,0,12.006,2.811C5251.446,6551.27,5251.549,6551.275,5251.652,6551.275Z" transform="translate(-5069.668 -6474.682)" fill="#bdbfc1" fill-rule="evenodd"/>
        <path id="Caminho_25089" data-name="Caminho 25089" d="M6453.893,5765.267a.443.443,0,0,1-.021-.885l5.214-.282h.017a.444.444,0,0,1,.029.888l-5.212.279Z" transform="translate(-6248.072 -5746.223)" fill="#fefefe" fill-rule="evenodd"/>
        <path id="Caminho_25090" data-name="Caminho 25090" d="M5481.457,5784.982a.444.444,0,0,1-.023-.887l31.146-1.675h.026a.444.444,0,0,1,.021.887l-31.146,1.675Z" transform="translate(-5315.515 -5763.792)" fill="#fefefe" fill-rule="evenodd"/>
        <path id="Caminho_25091" data-name="Caminho 25091" d="M5659.011,6184.615a.364.364,0,0,1-.052,0c-5.64-.649-10.149-5.241-13.4-13.649-2.686-6.943-3.953-15.07-4.544-20.666a.442.442,0,0,1,.4-.486.265.265,0,0,1,.043,0,.446.446,0,0,1,.445.4c1.013,9.6,4.714,32.1,17.163,33.527a.443.443,0,0,1-.05.882Z" transform="translate(-5468.951 -6116.115)" fill-rule="evenodd" fill="url(#linear-gradient-9)"/>
        <path id="Caminho_25092" data-name="Caminho 25092" d="M5629.823,5996.122a.443.443,0,0,1-.442-.416c-.083-1.281-.1-2.018-.106-2.047a.444.444,0,0,1,.43-.457l.03,0a.429.429,0,0,1,.427.433c0,.008.023.754.106,2.016a.443.443,0,0,1-.415.471A.1.1,0,0,1,5629.823,5996.122Z" transform="translate(-5457.695 -5965.928)" fill-rule="evenodd" fill="url(#linear-gradient-10)"/>
        <path id="Caminho_25093" data-name="Caminho 25093" d="M3276.652,9128.644H3164.5V9019.706a4.676,4.676,0,0,1,4.676-4.676h102.8a4.677,4.677,0,0,1,4.677,4.676Z" transform="translate(-3094.002 -8863.831)" fill-rule="evenodd" fill="url(#linear-gradient-11)"/>
        <path id="Caminho_25094" data-name="Caminho 25094" d="M1717.059,9872.887H1626.1a5.675,5.675,0,0,1-5.675-5.676v-60.5a15.613,15.613,0,0,1,15.612-15.613h65.415a15.614,15.614,0,0,1,15.612,15.613Z" transform="translate(-1613.246 -9608.072)" fill-rule="evenodd" fill="url(#linear-gradient-12)"/>
        <path id="Caminho_25095" data-name="Caminho 25095" d="M2213.456,8571.139c.142.287-1.889,12.98-2.365,13.431a1.823,1.823,0,0,1-1.132.343c-5.193.444-9.849,3.422-13.69,6.942s-7.089,7.648-10.951,11.146a14.1,14.1,0,0,1-3.75,2.624c-1.7.731-2.792-.02-4.226.208l-.042,0c1.034,2.222,2.134,4.411,3.277,6.582a13.267,13.267,0,0,1,2.693-3.209,23.734,23.734,0,0,1,6.516-3.336c9.041-3.687,17.112-9.434,26.005-13.512,3.405-1.559,3.807-5.712,5.348-8.914,2.119-4.4,6.3-10.168,5.722-13.866C2223.241,8570.273,2216.687,8569.367,2213.456,8571.139Z" transform="translate(-2147.287 -8436.649)" fill-rule="evenodd" fill="url(#linear-gradient-13)"/>
        <path id="Caminho_25096" data-name="Caminho 25096" d="M2072.3,9444.96l-1.646.343a1.237,1.237,0,0,0-.931.849,27.666,27.666,0,0,0-1.48,11.153,13.052,13.052,0,0,0,2.142,5.564c1.042,1.39,2.022,2.328,2.44,1.9l.751-.457a1.545,1.545,0,0,0,.734-1.494Z" transform="translate(-2042.607 -9276.129)" fill-rule="evenodd" fill="url(#linear-gradient-14)"/>
        <path id="Caminho_25097" data-name="Caminho 25097" d="M2103.262,9445.146l-2.81-.45c-.521-.085-.788.308-1.074.751-1.325,2.043-2.053,6.546-1.847,11.844a6.413,6.413,0,0,0,.9,3.835c2.327,3.226,3.209,3.313,4.044,2.462l3.364-14.311a5.179,5.179,0,0,1-2.573-4.132Z" transform="translate(-2070.756 -9275.864)" fill-rule="evenodd" fill="url(#linear-gradient-15)"/>
        <path id="Caminho_25098" data-name="Caminho 25098" d="M2564.653,8130.276a11.935,11.935,0,0,0-8.051-.584c-2.9.98-3.573,4.016-4.427,6.7q-1.96,6.148-3.358,12.457h0v.007c-.049.218-1.581,8.789-1.584,9.511l.129.006a20.822,20.822,0,0,1-.91,3.906c-.293.276-1.875-.467-2.276-.431-5.192.442-8.705,4.2-12.546,7.718-1.617,1.482-3.129,3.074-4.627,4.68a6.587,6.587,0,0,0,4.753,6.255c6.507-3.366,12.721-7.367,19.4-10.428,3.405-1.56,3.807-5.713,5.349-8.916.129-.269.267-.542.409-.82.029.012,1.408-2.482,2.056-3.75.95-1.709,3.132-6.359,3.434-7q2.261-4.819,4.3-9.738C2568.512,8135.5,2570.265,8132.5,2564.653,8130.276Z" transform="translate(-2482.646 -8014.356)" fill-rule="evenodd" fill="url(#linear-gradient-16)"/>
        <path id="Caminho_25099" data-name="Caminho 25099" d="M2705.905,6288.54s-9.742-7.521-16.034,3.671-8.959,14.547-10.821,11.549a4.871,4.871,0,0,0,.4,2.875c1.039,2.013,3.474,2.334,4.752,2.5,3.7.486,7.108-.725,7.857-1.69C2702.808,6293.576,2705.846,6293.093,2705.905,6288.54Z" transform="translate(-2628.404 -6246.784)" fill-rule="evenodd" fill="url(#linear-gradient-17)"/>
        <path id="Caminho_25100" data-name="Caminho 25100" d="M3761.912,6885.354c5.513-1.432,10.615-5.774,13.813-10.5.367-.542.784-1.145,1.42-1.264a2.36,2.36,0,0,1,1.8.732c1.013.826,3.765,2.5,2.911,4.225-.558,1.126-3.451,2.292-4.491,3.023.581-.408.524-1.958.334-2.508a7.99,7.99,0,0,1-1,1.488,5.75,5.75,0,0,1-1.506.989,23.988,23.988,0,0,0-3.067,2.12c-2.414,2.364-4.752,4.9-7.732,6.529a26.4,26.4,0,0,1-8.141,2.51,13.276,13.276,0,0,1-3.6.279,14.443,14.443,0,0,1-3.231-.837,36.472,36.472,0,0,1-9.194-4.271,17.451,17.451,0,0,1-3.593-3.305,10.236,10.236,0,0,1-2.506-5.174c-.112-1.62.458-3.8,2.353-2.627,4.165,2.57,7.746,5.957,12.334,7.658A21.973,21.973,0,0,0,3761.912,6885.354Z" transform="translate(-3640.246 -6810.188)" fill-rule="evenodd" fill="url(#linear-gradient-18)"/>
        <path id="Caminho_25101" data-name="Caminho 25101" d="M2713.819,6865.58c-.79.063-1.573.129-2.35.191-3.106.25-5.372,2.131-7.533,4.269a31.411,31.411,0,0,0-3.072,3.523,20.587,20.587,0,0,0-4.281,14.783,31.52,31.52,0,0,0,2.37,7.664,15.725,15.725,0,0,0,2.442,4.451c1.334,1.536,3.217,2.531,4.491,4.117a1.375,1.375,0,0,1,.4.983,1.517,1.517,0,0,1-.659.885q-1.7,1.376-3.407,2.75a.98.98,0,0,1-.521.267c-.31.018-.552-.251-.737-.5-.926-1.247-2.21-2.953-2.429-4.514.5-.134,1.677.967,2,.393-1.81-3.979-5.412-6.909-7.309-10.846a26.17,26.17,0,0,1-2.029-8.183,21.762,21.762,0,0,1,.123-8.344,19.621,19.621,0,0,1,1.553-3.779,47.163,47.163,0,0,1,14.286-17.123,26.213,26.213,0,0,1,14.764-5.2,24.653,24.653,0,0,1,6.566.4,22.052,22.052,0,0,1,5.446,2.373c2.44,1.313,5.351,3.375,6.654,5.858-3.074.527-2.946,2.011-4.857,3.388a7.269,7.269,0,0,1-3.011,1.043c-3.388.614-7.172,1.417-10.595,1.057A45.684,45.684,0,0,0,2713.819,6865.58Z" transform="translate(-2639.774 -6788.863)" fill-rule="evenodd" fill="url(#linear-gradient-19)"/>
        <path id="Caminho_25102" data-name="Caminho 25102" d="M3137.284,7739.1c-1.081,2.221-7.117,11.861-7.381,13.447a6.223,6.223,0,0,0,2.074,5.032c1.042.886,10.218,3.022,13.839,2.077,2.73-.713,7.133-11.81,6.563-16.09a11.984,11.984,0,0,1-.068-2.361C3147.045,7740.976,3142.592,7740.006,3137.284,7739.1Z" transform="translate(-3060.783 -7640.228)" fill-rule="evenodd" fill="url(#linear-gradient-20)"/>
        <path id="Caminho_25103" data-name="Caminho 25103" d="M4382.272,8372.7c-.088-.073-.175-.147-.263-.224-2.953-2.316-3.224-5.151-4.034-8.542q-1.359-5.7-2.841-11.363c-.057-.216-.115-.432-.172-.648a25.534,25.534,0,0,1-7.273,1.081c1.049,2.213,4.78,11.815,5.961,14.165.832,1.653,2.521,5.84,2.112,6.83C4375.676,8374.206,4379.806,8373.66,4382.272,8372.7Z" transform="translate(-4247.848 -8227.915)" fill-rule="evenodd" fill="url(#linear-gradient-21)"/>
        <path id="Caminho_25104" data-name="Caminho 25104" d="M3205.52,6854.538c2.371-1.507,2.656,3.692,1.865,11.834l2.528,22.619c3.122,2.587,11.512,3.929,14.957,1.973,1.64-9.777,7.009-22.706,6.01-25.654a18.614,18.614,0,0,1-2.1-9.641c-.938-1.25-3.875-2.132-6.727-3.112l-6.566-.4A16.761,16.761,0,0,0,3205.52,6854.538Z" transform="translate(-3133.339 -6789.654)" fill="#8a64ed" fill-rule="evenodd"/>
        <path id="Caminho_25105" data-name="Caminho 25105" d="M3434.107,6627.5c-.066.3-2.812,9.722-2.973,9.884s-4.767.754-7.053-.574l4.62-10.961Z" transform="translate(-3342.936 -6572.632)" fill-rule="evenodd" fill="url(#linear-gradient-22)"/>
        <path id="Caminho_25106" data-name="Caminho 25106" d="M3453.307,6292.743s4.105,1.65,6.977,7.492.849,8.6-1.744,9.014a12.167,12.167,0,0,1-10.658-3.307C3443.7,6302.208,3447.974,6290.793,3453.307,6292.743Z" transform="translate(-3364.146 -6252.973)" fill-rule="evenodd" fill="url(#linear-gradient-23)"/>
        <path id="Caminho_25107" data-name="Caminho 25107" d="M3322.492,6203.65s-3.222-8.563,4.416-8.795l1.819,1.226s.993-3.617-3.647-5.82-9.74-1.261-11.593,4.969-.637,10.215,2.671,13.125,5.014-.313,5.014-.313-2.241-2.905-1.546-4.4,2.264.763,2.264.763Z" transform="translate(-3236.047 -6153.873)" fill-rule="evenodd" fill="url(#linear-gradient-24)"/>
        <path id="Caminho_25108" data-name="Caminho 25108" d="M3174.346,7747.741l.059,0c0,.062,0,.121,0,.182C3174.382,7747.863,3174.364,7747.8,3174.346,7747.741Zm13.731,17.139q-1.828-6.994-3.841-13.94c-.822-2.834-1.015-5.936-2.494-8.549-2.254-3.982-8.491-3.65-13.946-2.611-6.336.684-11.7.949-18.058,1.642-6.2.674-12.686,1.479-17.241,6.231-1.969,2.054-3.192,5.064-2.368,7.789.8,2.66,3.385,4.476,6.081,5.149,4.164,1.039,9.143.31,13.193-.924,8.289-2.524,17.437-7.579,24.993-11.564-.084,3.387-.727,6.183.854,9.32,2.085,4.135,5.267,8.481,7.153,12.711a38.437,38.437,0,0,0,6.3-2.795C3188.5,7766.519,3188.29,7765.7,3188.077,7764.88Z" transform="translate(-3060.79 -7640.227)" fill-rule="evenodd" fill="url(#linear-gradient-25)"/>
        <path id="Caminho_25109" data-name="Caminho 25109" d="M4565.69,8741.811l.908,1.443a1.268,1.268,0,0,0,1.137.594c4.209-.21,8.243-.732,11.664-2.32a6.812,6.812,0,0,0,2.471-2c1.682-2.151,3.145-4.577,2.346-4.936l-1.482-1.186Z" transform="translate(-4437.728 -8593.76)" fill-rule="evenodd" fill="url(#linear-gradient-26)"/>
        <path id="Caminho_25110" data-name="Caminho 25110" d="M4552.41,8739.018l.545,2.794a1.328,1.328,0,0,0,1.008,1.044c2.375.54,6.945.208,11.848-1.81a7.328,7.328,0,0,0,3.269-2.674c2.227-3.3,2-4.47.918-4.961l-13.329,1.821C4556.288,8736.974,4553.947,8738.422,4552.41,8739.018Z" transform="translate(-4424.993 -8593.761)" fill-rule="evenodd" fill="url(#linear-gradient-27)"/>
        <path id="Caminho_25111" data-name="Caminho 25111" d="M3766.881,6937.88c-.7,3.373.137,6.953,2.1,10.685l4.7,3.3c1.354-3.816,2.172-7.363.99-9.9Z" transform="translate(-3671.446 -6871.866)" fill="#8a64ed" fill-rule="evenodd"/>
        <path id="Caminho_25112" data-name="Caminho 25112" d="M3034.428,6902.22c-.932,3.184.749,6.771,3.045,10.454l5.915-2.182c1.637-5.706,1.856-10.253-.957-12.332Z" transform="translate(-2969.013 -6833.774)" fill="#8a64ed" fill-rule="evenodd"/>
        <path id="Caminho_25113" data-name="Caminho 25113" d="M5824.866,6153.042c-.122,0-.246,0-.369,0a13.127,13.127,0,0,1-12.467-13.057,11.192,11.192,0,0,1,8.632-11.15,11.24,11.24,0,0,0-6.874,10.588,13.127,13.127,0,0,0,12.467,13.056c.124,0,.245.005.369.005a11.5,11.5,0,0,0,2.576-.289A11.28,11.28,0,0,1,5824.866,6153.042Z" transform="translate(-5632.955 -6095.996)" fill-rule="evenodd" fill="url(#linear-gradient-28)"/>
        <path id="Caminho_25114" data-name="Caminho 25114" d="M5867.746,6132.542c-.124,0-.246,0-.369-.005a13.127,13.127,0,0,1-12.467-13.056,11.155,11.155,0,0,1,11.218-11.441,12.168,12.168,0,0,1,1.25.065,13.193,13.193,0,0,1,11.088,9.446,12.66,12.66,0,0,1,.511,3.552,11.737,11.737,0,0,1-1.523,5.838,11.046,11.046,0,0,1-7.131,5.312A11.5,11.5,0,0,1,5867.746,6132.542Zm-1.542-23.94a10.66,10.66,0,0,0-10.706,10.919,12.528,12.528,0,0,0,11.879,12.459c.125,0,.247.007.371.007a10.7,10.7,0,0,0,10.718-10.918,12.609,12.609,0,0,0-11.088-12.407A11.5,11.5,0,0,0,5866.2,6108.6Z" transform="translate(-5674.076 -6076.058)" fill-rule="evenodd" fill="url(#linear-gradient-29)"/>
        <path id="Caminho_25115" data-name="Caminho 25115" d="M5881.49,6145.125c-.123,0-.245,0-.371-.006a12.53,12.53,0,0,1-11.879-12.459,10.661,10.661,0,0,1,10.707-10.919,11.627,11.627,0,0,1,1.173.06,12.609,12.609,0,0,1,11.089,12.407A10.7,10.7,0,0,1,5881.49,6145.125Zm-.35-.4c.118,0,.234.006.35.006a10.335,10.335,0,0,0,10.353-10.545,12.176,12.176,0,0,0-10.724-11.984,11.019,11.019,0,0,0-1.12-.057,10.29,10.29,0,0,0-10.34,10.4h0v.148a12.1,12.1,0,0,0,11.46,12.034Zm-11.481-12.035Z" transform="translate(-5687.818 -6089.195)" fill-rule="evenodd" fill="url(#linear-gradient-30)"/>
        <path id="Caminho_25116" data-name="Caminho 25116" d="M5891.291,6154.106c-.116,0-.231,0-.35-.006.114,0,.227.005.341.005a10.8,10.8,0,0,0,1.41-.092,13.824,13.824,0,0,1-1.685-2.036.565.565,0,0,0,.3-.5v-1.224a5.962,5.962,0,0,0,3.693-1.3,3.873,3.873,0,0,0,1.305-3.059,3.979,3.979,0,0,0-1.18-2.94,8.333,8.333,0,0,0-3.684-1.884v-1.21a5.75,5.75,0,0,0,.737-1.885,8.463,8.463,0,0,1,1.209.268,8.013,8.013,0,0,1,.945.353.56.56,0,0,0,.226.049.521.521,0,0,0,.519-.482l.135-1.39a.647.647,0,0,0-.441-.665q-.7-.229-1.409-.4-.738-.174-1.474-.278a6.6,6.6,0,0,0-.445-.9v-.26a.656.656,0,0,0-.58-.643l-.05,0a12.747,12.747,0,0,0-2.124-2.043,10.3,10.3,0,0,0-9.225,10.339,10.29,10.29,0,0,1,10.34-10.4,10.88,10.88,0,0,1,1.12.057,12.176,12.176,0,0,1,10.724,11.984A10.335,10.335,0,0,1,5891.291,6154.106Zm-1.156-3.612c-.046-.093-.093-.188-.138-.284l.138.007Zm-.011-2.994q-.524-.038-1.043-.125a8.611,8.611,0,0,1-.1-2.342,6.3,6.3,0,0,1,.279-1.312q.415.135.875.249Zm1.188-.01h-.008v-3.238a2.926,2.926,0,0,1,1.271.7,1.483,1.483,0,0,1,.4,1.065,1.382,1.382,0,0,1-.432,1.09A1.783,1.783,0,0,1,5891.312,6147.491Zm-11.852-5.443v0Zm0-.017v0Zm0-.018v0Zm0-.016v0Zm0-.018v0Zm0-.016v0Zm0-.016v0Zm0-.016v0Z" transform="translate(-5697.62 -6098.575)" fill-rule="evenodd" fill="url(#linear-gradient-31)"/>
        <path id="Caminho_25117" data-name="Caminho 25117" d="M6115.956,6201.116a13.114,13.114,0,0,1-.872-1.482v-.276l-.138-.007a11.193,11.193,0,0,1-.917-2.835c.347.058.694.1,1.044.125l.011-3.529c-.307-.077-.6-.16-.875-.25a20.217,20.217,0,0,1,2.179-3.865v1.21a8.34,8.34,0,0,1,3.684,1.884,3.983,3.983,0,0,1,1.181,2.94,3.873,3.873,0,0,1-1.306,3.058,5.955,5.955,0,0,1-3.693,1.3v1.224A.564.564,0,0,1,6115.956,6201.116Zm.3-7.724v3.238h.008a1.78,1.78,0,0,0,1.23-.385,1.381,1.381,0,0,0,.432-1.089,1.485,1.485,0,0,0-.4-1.065A2.931,2.931,0,0,0,6116.254,6193.392Zm3.251-5.612a.554.554,0,0,1-.227-.049,8.1,8.1,0,0,0-.945-.352,8.442,8.442,0,0,0-1.208-.268,4.3,4.3,0,0,0,.026-1.321,5.138,5.138,0,0,0-.317-1.22q.735.1,1.474.278.71.166,1.409.4a.648.648,0,0,1,.441.665l-.134,1.39A.521.521,0,0,1,6119.505,6187.78Zm-3.117-4.114a8.1,8.1,0,0,0-.63-.907l.05,0a.656.656,0,0,1,.58.643Z" transform="translate(-5922.569 -6147.713)" fill-rule="evenodd" fill="url(#linear-gradient-32)"/>
      </g>
      <g id="Grupo_4259" data-name="Grupo 4259" transform="translate(241.675 261.578)" clip-path="url(#clip-path-2)">
        <rect id="Retângulo_808" data-name="Retângulo 808" width="11.64" height="12.332" transform="translate(-0.076 -0.073)" fill="none"/>
      </g>
      <g id="Grupo_4260" data-name="Grupo 4260" transform="translate(241.675 251.243)" clip-path="url(#clip-path-3)">
        <rect id="Retângulo_809" data-name="Retângulo 809" width="13.38" height="22.678" transform="translate(-0.076 -0.084)" fill="none"/>
      </g>
      <g id="Grupo_4261" data-name="Grupo 4261" transform="translate(247.574 253.285)" clip-path="url(#clip-path-4)">
        <rect id="Retângulo_810" data-name="Retângulo 810" width="7.057" height="18.525" transform="translate(-0.082 -0.068)" fill="none"/>
      </g>
    </g>
    <path id="Caminho_25122" data-name="Caminho 25122" d="M-13.55,6.72h375V673.387h-375Z" transform="translate(0 0)" fill="none" fill-rule="evenodd"/>
    <g id="_2403342914096" transform="translate(317.862 168.492)">
      <path id="Caminho_25123" data-name="Caminho 25123" d="M8464.473,3953.019l.211,11.352a1.614,1.614,0,1,0,3.227-.062l-.21-11.351a1.614,1.614,0,1,0-3.227.061Z" transform="translate(-8448.196 -3951.374)" fill="#8a64ed"/>
      <path id="Caminho_25124" data-name="Caminho 25124" d="M8474.281,4484.724l.211,11.352a1.614,1.614,0,1,0,3.227-.062l-.21-11.352a1.614,1.614,0,0,0-3.228.062Z" transform="translate(-8457.604 -4461.275)" fill="#8a64ed"/>
      <path id="Caminho_25125" data-name="Caminho 25125" d="M8612.323,4348.115l-11.347.212a1.613,1.613,0,1,0,.057,3.225l11.346-.211a1.613,1.613,0,1,0-.056-3.226Z" transform="translate(-8577.582 -4331.845)" fill="#8a64ed"/>
      <path id="Caminho_25126" data-name="Caminho 25126" d="M8080.532,4358.062l-11.352.208a1.615,1.615,0,1,0,.061,3.229l11.352-.212a1.613,1.613,0,1,0-.061-3.226Z" transform="translate(-8067.595 -4341.382)" fill="#8a64ed"/>
      <path id="Caminho_25127" data-name="Caminho 25127" d="M8568.676,4064.979l-7.881,8.176a1.614,1.614,0,0,0,2.325,2.239l7.877-8.175a1.613,1.613,0,1,0-2.321-2.239Z" transform="translate(-8540.137 -4059.845)" fill="#8a64ed"/>
      <path id="Caminho_25128" data-name="Caminho 25128" d="M8199.735,4447.91l-7.88,8.175a1.615,1.615,0,0,0,2.324,2.242l7.881-8.179a1.613,1.613,0,0,0-2.324-2.238Z" transform="translate(-8186.326 -4427.074)" fill="#8a64ed"/>
      <path id="Caminho_25129" data-name="Caminho 25129" d="M8574.668,4452.449l-8.17-7.878a1.615,1.615,0,1,0-2.241,2.325l8.172,7.877a1.614,1.614,0,0,0,2.239-2.324Z" transform="translate(-8543.415 -4423.913)" fill="#8a64ed"/>
      <path id="Caminho_25130" data-name="Caminho 25130" d="M8191.609,4083.42l-8.18-7.877a1.611,1.611,0,1,0-2.236,2.321l8.176,7.882a1.614,1.614,0,1,0,2.24-2.325Z" transform="translate(-8176.058 -4070.017)" fill="#8a64ed"/>
    </g>
    <g id="_2403348707984" transform="translate(22.097 27.747)">
      <path id="Caminho_25131" data-name="Caminho 25131" d="M1172.133,520.756l.168,9.052a1.287,1.287,0,1,0,2.573-.049l-.168-9.051a1.287,1.287,0,1,0-2.573.048Z" transform="translate(-1159.154 -519.445)" fill="#8a64ed"/>
      <path id="Caminho_25132" data-name="Caminho 25132" d="M1179.953,944.742l.168,9.052a1.287,1.287,0,1,0,2.573-.049l-.168-9.052a1.287,1.287,0,0,0-2.573.049Z" transform="translate(-1166.654 -926.045)" fill="#8a64ed"/>
      <path id="Caminho_25133" data-name="Caminho 25133" d="M1290.035,835.806l-9.048.169a1.286,1.286,0,1,0,.045,2.571l9.047-.168a1.286,1.286,0,1,0-.045-2.572Z" transform="translate(-1262.332 -822.831)" fill="#8a64ed"/>
      <path id="Caminho_25134" data-name="Caminho 25134" d="M865.982,843.733l-9.052.166a1.288,1.288,0,1,0,.048,2.575l9.051-.169a1.286,1.286,0,1,0-.048-2.572Z" transform="translate(-855.666 -830.434)" fill="#8a64ed"/>
      <path id="Caminho_25135" data-name="Caminho 25135" d="M1255.226,610.035l-6.285,6.519a1.287,1.287,0,0,0,1.854,1.785l6.281-6.519a1.286,1.286,0,1,0-1.85-1.786Z" transform="translate(-1232.468 -605.941)" fill="#8a64ed"/>
      <path id="Caminho_25136" data-name="Caminho 25136" d="M961.036,915.384l-6.284,6.519a1.288,1.288,0,0,0,1.853,1.788l6.284-6.522a1.287,1.287,0,0,0-1.854-1.785Z" transform="translate(-950.343 -898.77)" fill="#8a64ed"/>
      <path id="Caminho_25137" data-name="Caminho 25137" d="M1260.007,919l-6.515-6.282a1.287,1.287,0,1,0-1.786,1.854l6.515,6.282a1.287,1.287,0,0,0,1.786-1.853Z" transform="translate(-1235.087 -896.247)" fill="#8a64ed"/>
      <path id="Caminho_25138" data-name="Caminho 25138" d="M954.555,624.739l-6.523-6.282a1.285,1.285,0,1,0-1.783,1.851l6.519,6.285a1.287,1.287,0,0,0,1.786-1.854Z" transform="translate(-942.154 -614.051)" fill="#8a64ed"/>
    </g>
    <text id="RECEBA" transform="translate(53.759 125.26)" fill="#fefefe" font-size="65" font-family="SegoeUI-Bold, Segoe UI" font-weight="700"><tspan x="0" y="0">RECEBA</tspan></text>
    <text id="POR_HORA" data-name="POR HORA" transform="translate(55.695 158.137)" fill="#fff212" font-size="33" font-family="Arial-BoldMT, Arial" font-weight="700"><tspan x="0" y="0">POR HORA</tspan></text>
  </g>
</svg>
