<svg xmlns="http://www.w3.org/2000/svg" xmlns:xlink="http://www.w3.org/1999/xlink" width="375" height="666.667" viewBox="0 0 375 666.667">
  <defs>
    <clipPath id="clip-path">
      <path id="Caminho_24355" data-name="Caminho 24355" d="M-.107.053h375V666.72h-375V.053Zm187.5,0,187.5,333.333M187.393,666.72-.107,333.387" transform="translate(0.107 -0.053)" clip-rule="evenodd"/>
    </clipPath>
    <linearGradient id="linear-gradient" x1="0.561" y1="0.492" x2="0.965" y2="0.492" gradientUnits="objectBoundingBox">
      <stop offset="0" stop-color="#6165d7"/>
      <stop offset="1" stop-color="#aa80f9"/>
    </linearGradient>
    <linearGradient id="linear-gradient-2" x1="0.197" y1="0.494" x2="0.935" y2="0.494" xlink:href="#linear-gradient"/>
  </defs>
  <g id="Camada_x0020_1" transform="translate(0.107 -0.053)">
    <path id="Caminho_24354" data-name="Caminho 24354" d="M-.107.053h375V666.719h-375Z" transform="translate(0 0)" fill="#412e6e" fill-rule="evenodd"/>
    <path id="_1" data-name="1" d="M-.107.053h375V666.719h-375Z" transform="translate(0 0)" fill="none" fill-rule="evenodd"/>
    <g id="Grupo_4186" data-name="Grupo 4186" transform="translate(-0.107 0.053)" clip-path="url(#clip-path)">
      <path id="_2" data-name="2" d="M-.107.053l375,666.667m0-666.667L-.107,666.72" transform="translate(0.107 -0.053)" fill="none" stroke="#373435" stroke-miterlimit="22.926" stroke-width="0.06" fill-rule="evenodd"/>
    </g>
    <g id="_2402782293376" transform="translate(194.125 264.975)">
      <path id="Caminho_24356" data-name="Caminho 24356" d="M61.782,61.454c8.569,0,15.515,6.526,15.515,14.578S70.351,90.611,61.782,90.611,46.267,84.083,46.267,76.032s6.946-14.578,15.516-14.578ZM53.5,68.915h4.667a1.553,1.553,0,0,1,1.683,1.577l-.014,7.6c.122,1.1.811,1.239,1.667,1.249l4.493-.006a2.212,2.212,0,0,1-1.9,1.843c-1.393.384-6.217.717-6.31-2.709l-.025-7.359-2.26-.027.078,7.132c.876,8.191,13.114,6.34,12.881-.009.045-2.564-.059-5.141-.015-7.706a1.978,1.978,0,0,1,2.029-1.625l.034,8.887a8.542,8.542,0,0,1-9.767,8.094,8.258,8.258,0,0,1-7.2-8.156L53.5,68.915Zm10.4-.059,2.076.446-.744,3.461c-.543.666-1.216,1.406-2.381.97Z" transform="translate(-0.125 -8.111)" fill="#fefefe" fill-rule="evenodd"/>
      <path id="Caminho_24357" data-name="Caminho 24357" d="M95.051,194.464a14.96,14.96,0,0,1-7.7-2.115c-.344-.206-.693-.417-1.051-.635-1.3-.791-2.691-1.663-4.155-2.612a163.269,163.269,0,0,1-15.278-11.186c-2.632-2.183-5.27-4.528-7.835-7.029-10.123-9.868-16.771-19.867-19.791-29.774a43.524,43.524,0,0,1-1.543-7.1l-.025-.192-.306-52.1c0-10.3,6.715-18.653,19.324-24.148,9.589-4.174,22.05-6.413,35.347-6.413q.71,0,1.424.011-2.049.026-4.062.128C78.381,51.839,68.18,54,60.06,57.576,47.619,63.071,41,71.425,41,81.724l.3,52.1.025.189c1.556,12.211,8.674,24.647,21.056,36.877a155.186,155.186,0,0,0,27.943,21.463,14.576,14.576,0,0,0,6.188,2.047c-.334.031-.671.052-1.007.062-.149,0-.3.007-.448.007ZM41,81.724Z" transform="translate(-37.365 -51.163)" fill="#8a64ed" fill-rule="evenodd"/>
      <path id="Caminho_24358" data-name="Caminho 24358" d="M104.553,191.13c-.627-.67-1.224-1.346-1.8-2.03v0c13.36-8.821,42.424-30.673,45.544-55.955l.279-49.642c0-19.041-28.612-29.137-56.253-29.137-1.273,0-2.547.021-3.813.064,0,0,0,0,0,0-.709-1.118-1.4-2.165-2.04-3.123C75.45,51.839,65.25,54,57.129,57.576c-12.44,5.5-19.064,13.849-19.064,24.148h0c0-10.3,6.624-18.653,19.064-24.148C65.25,54,75.45,51.839,86.467,51.3q2.013-.1,4.063-.128c.5-.007,1-.011,1.505-.011q1.69,0,3.4.05c14.226.42,27.389,3.394,37.129,8.351a47.851,47.851,0,0,1,4.758,2.756c8.485,5.6,12.9,12.859,12.9,21.227l-.072,13.137-.118,21.4-.022,4.084-.05,8.967-.011,2.194-.026.178c-1.423,11.691-7.968,23.782-19.537,36q-1.384,1.462-2.8,2.86-1.12,1.11-2.25,2.18a167.978,167.978,0,0,1-20.784,16.579h0Z" transform="translate(-34.434 -51.163)" fill="#6e4ebd" fill-rule="evenodd"/>
      <path id="Caminho_24359" data-name="Caminho 24359" d="M62.04,186.514a48.973,48.973,0,0,1-5.41-7.9A152.744,152.744,0,0,0,81.7,158.25c9.65-9.986,15.146-19.487,16.4-28.3l.278-49.211c-.011-4.722-3.63-8.91-10.789-12.46-8.093-4.017-19.773-6.5-32.1-6.791-.723-.018-1.442-.025-2.16-.029-1.828-3.547-3.754-6.809-5.528-9.615,1.266-.043,2.54-.064,3.813-.064,27.641,0,56.253,10.1,56.253,29.137l-.279,49.642c-3.12,25.282-32.184,47.134-45.544,55.955Z" transform="translate(6.277 -48.579)" fill="#6e4ebb" fill-rule="evenodd"/>
      <path id="Caminho_24360" data-name="Caminho 24360" d="M52.168,170.8h0q-.955-1.732-1.756-3.517a147.573,147.573,0,0,0,23.239-19.022C82.76,138.85,87.967,130,89.185,121.914l.278-49.029c-.009-3.412-3.028-6.634-9-9.587-7.524-3.721-18.4-6.047-29.988-6.389-.524-1.111-1.066-2.194-1.613-3.255,0,0,0-.007,0-.007.718,0,1.437.011,2.16.029,12.328.292,24.008,2.774,32.1,6.791,7.159,3.55,10.778,7.738,10.789,12.46l-.278,49.211c-1.253,8.814-6.749,18.314-16.4,28.3A152.741,152.741,0,0,1,52.168,170.8Z" transform="translate(10.739 -40.768)" fill="#412e6e" fill-rule="evenodd"/>
      <path id="Caminho_24361" data-name="Caminho 24361" d="M110.816,140.362h0q-2.173,2.619-4.768,5.3a147.6,147.6,0,0,1-23.239,19.022l-.66.439a142.9,142.9,0,0,1-24.372-18.756q-3.079-3.032-5.6-6.006h-.95v-1.145c-5.549-6.82-8.848-13.39-9.813-19.589l-.3-50.678c.009-3.5,3.223-6.706,9.53-9.5,7.518-3.33,18.086-5.185,29.234-5.185q1.13,0,2.263.029c.244,0,.487.011.73.018,11.585.342,22.464,2.667,29.987,6.389,5.967,2.952,8.987,6.175,8.995,9.586l-.277,49.029c-.987,6.551-4.591,13.6-10.765,21.043Z" transform="translate(-21.657 -38.172)" fill-rule="evenodd" fill="url(#linear-gradient)"/>
      <path id="Caminho_24362" data-name="Caminho 24362" d="M94.992,194.351q-.714,0-1.417-.068a14.575,14.575,0,0,1-6.188-2.047,155.187,155.187,0,0,1-27.943-21.463c-12.382-12.23-19.5-24.666-21.056-36.877l-.025-.189-.3-52.1c0-10.3,6.624-18.653,19.064-24.148,8.121-3.579,18.321-5.737,29.338-6.275.641.958,1.331,2.005,2.04,3.123,0,0,0,0,0,0C64.082,55.146,41.5,63.985,41.5,81.648l.3,51.836c3.412,26.446,34.494,47.859,48.031,55.994a11.68,11.68,0,0,0,6.027,1.657,12.115,12.115,0,0,0,6.659-2l.228-.151v0c.577.684,1.175,1.36,1.8,2.03-.388.259-.763.513-1.135.763a15.153,15.153,0,0,1-7.988,2.563c-.146,0-.293.007-.438.007Z" transform="translate(-34.434 -51.051)" fill="#6e4ebb" fill-rule="evenodd"/>
      <path id="Caminho_24363" data-name="Caminho 24363" d="M93.09,188.611a11.68,11.68,0,0,1-6.027-1.657c-13.538-8.135-44.619-29.548-48.031-55.994l-.3-51.836c0-17.663,22.58-26.5,47.006-27.331,1.774,2.806,3.7,6.068,5.528,9.615h-.3c-11.567,0-22.585,1.941-30.5,5.434C52.876,70.19,49,74.377,48.992,79.27l.3,50.974c1.343,9.106,7.2,18.8,17.352,28.777A147.074,147.074,0,0,0,92.42,178.7a1.845,1.845,0,0,0,.959.266h.044a1.912,1.912,0,0,0,1-.313l.142-.093a48.968,48.968,0,0,0,5.41,7.9c-.076.051-.152.1-.228.151a12.114,12.114,0,0,1-6.659,2Z" transform="translate(-31.66 -48.528)" fill-rule="evenodd" fill="url(#linear-gradient-2)"/>
      <path id="Caminho_24364" data-name="Caminho 24364" d="M85.1,171.206a1.845,1.845,0,0,1-.959-.266,147.077,147.077,0,0,1-25.778-19.678C48.2,141.287,42.349,131.59,41.006,122.484l-.3-50.974c.012-4.893,3.884-9.081,11.473-12.428,7.913-3.493,18.932-5.434,30.5-5.434h.3s0,0,0,.007c.547,1.061,1.09,2.144,1.613,3.255-.242-.007-.486-.014-.729-.018q-1.134-.026-2.263-.028c-11.148,0-21.716,1.855-29.234,5.185-6.307,2.792-9.521,6-9.53,9.5l.3,50.678c1.3,8.34,6.82,17.35,16.361,26.741a142.942,142.942,0,0,0,24.372,18.756l.661-.439q.8,1.783,1.756,3.517h0l-.142.093a1.913,1.913,0,0,1-1,.313H85.1Z" transform="translate(-23.377 -40.768)" fill="#412e6e" fill-rule="evenodd"/>
      <path id="Caminho_24365" data-name="Caminho 24365" d="M43.12,79.154c0-14.592,6.66-16.882,16.474-16.882C49.78,62.272,43.12,64.563,43.12,79.154ZM74.7,62.748c-3.467,0-6.8-.192-9.924-.333C67.892,62.556,71.229,62.748,74.7,62.748Zm9.923-.333c1.8-.08,3.525-.144,5.167-.144C88.145,62.271,86.417,62.335,84.619,62.415Zm5.179-.144h0Zm-30.193,0h0Z" transform="translate(-13.288 -4.692)" fill="#33445a"/>
      <path id="Caminho_24366" data-name="Caminho 24366" d="M49.042,101.109C63.53,100.952,79.8,76.963,56.258,59.78c23.358,7.64,19.269,46.23-7.187,46.23l-.03-4.9Z" transform="translate(11.485 -15.115)" fill="#3f294d" fill-rule="evenodd"/>
      <path id="Caminho_24367" data-name="Caminho 24367" d="M67.409,59.489c12.68,0,22.958,9.658,22.958,21.572s-10.279,21.572-22.958,21.572S44.451,92.974,44.451,81.06,54.73,59.489,67.409,59.489ZM55.15,70.529h6.905a2.3,2.3,0,0,1,2.491,2.333l-.021,11.249c.181,1.634,1.2,1.834,2.467,1.849l6.648-.009c-.341,1.339-.829,2.182-2.81,2.727-2.061.568-9.2,1.061-9.337-4.009l-.037-10.889-3.345-.041.116,10.553c1.3,12.121,19.406,9.381,19.06-.013.066-3.794-.087-7.607-.021-11.4a2.926,2.926,0,0,1,3-2.4l.052,13.15A12.64,12.64,0,0,1,65.866,95.6c-5.8-1.042-10.458-5.179-10.659-12.069Zm15.39-.087,3.073.66-1.1,5.121c-.8.985-1.8,2.08-3.523,1.436Z" transform="translate(-7.72 -16.333)" fill="#420a82" fill-rule="evenodd"/>
    </g>
    <text id="_PRATICIDADE" data-name="+ PRATICIDADE" transform="translate(112.636 68.485)" fill="#fefefe" font-size="27" font-family="Arial-BoldMT, Arial" font-weight="700"><tspan x="0" y="0">+ PRATICIDADE</tspan></text>
    <text id="E_SEGURANÇA" data-name="E SEGURANÇA" transform="translate(112.636 104.172)" fill="#c0adef" font-size="27" font-family="Arial-BoldMT, Arial" font-weight="700"><tspan x="0" y="0">E SEGURANÇA</tspan></text>
    <text id="PARA_VOCÊ" data-name="PARA VOCÊ" transform="translate(112.636 139.859)" fill="#c0adef" font-size="27" font-family="Arial-BoldMT, Arial" font-weight="700"><tspan x="0" y="0">PARA VOCÊ</tspan></text>
    <g id="_2402782288720" transform="translate(331.305 161.825)">
      <path id="Caminho_24368" data-name="Caminho 24368" d="M66.97,32.908l.21,11.352a1.614,1.614,0,1,0,3.227-.062L70.2,32.847a1.614,1.614,0,1,0-3.227.061Z" transform="translate(-50.694 -31.263)" fill="#8a64ed"/>
      <path id="Caminho_24369" data-name="Caminho 24369" d="M67.048,37.112l.21,11.352a1.614,1.614,0,1,0,3.227-.062l-.21-11.352a1.614,1.614,0,0,0-3.227.062Z" transform="translate(-50.369 -13.664)" fill="#8a64ed"/>
      <path id="Caminho_24370" data-name="Caminho 24370" d="M80.97,34.4l-11.346.212a1.613,1.613,0,1,0,.056,3.225l11.346-.211A1.613,1.613,0,1,0,80.97,34.4Z" transform="translate(-46.228 -18.131)" fill="#8a64ed"/>
      <path id="Caminho_24371" data-name="Caminho 24371" d="M76.767,34.481l-11.351.208a1.615,1.615,0,1,0,.061,3.229l11.351-.212a1.613,1.613,0,1,0-.061-3.225Z" transform="translate(-63.83 -17.802)" fill="#8a64ed"/>
      <path id="Caminho_24372" data-name="Caminho 24372" d="M76.061,32.653,68.18,40.828A1.614,1.614,0,0,0,70.5,43.067l7.876-8.175a1.612,1.612,0,1,0-2.32-2.239Z" transform="translate(-47.521 -27.519)" fill="#8a64ed"/>
      <path id="Caminho_24373" data-name="Caminho 24373" d="M73.141,35.68l-7.881,8.175A1.615,1.615,0,0,0,67.585,46.1l7.881-8.179a1.613,1.613,0,0,0-2.324-2.238Z" transform="translate(-59.732 -14.844)" fill="#8a64ed"/>
      <path id="Caminho_24374" data-name="Caminho 24374" d="M78.66,43.49l-8.171-7.879a1.614,1.614,0,1,0-2.24,2.325l8.171,7.878a1.614,1.614,0,0,0,2.24-2.324Z" transform="translate(-47.407 -14.954)" fill="#8a64ed"/>
      <path id="Caminho_24375" data-name="Caminho 24375" d="M75.638,40.572l-8.18-7.878a1.611,1.611,0,1,0-2.236,2.321L73.4,42.9a1.614,1.614,0,0,0,2.24-2.325Z" transform="translate(-60.087 -27.168)" fill="#8a64ed"/>
    </g>
    <g id="_2402782287520" transform="translate(54.24 22.017)">
      <path id="Caminho_24376" data-name="Caminho 24376" d="M12.882,5.6l.168,9.052a1.287,1.287,0,1,0,2.573-.049l-.168-9.051a1.287,1.287,0,1,0-2.573.048Z" transform="translate(0.097 -4.291)" fill="#8a64ed"/>
      <path id="Caminho_24377" data-name="Caminho 24377" d="M12.944,8.954l.168,9.052a1.287,1.287,0,1,0,2.573-.049l-.168-9.052a1.287,1.287,0,0,0-2.573.049Z" transform="translate(0.356 9.743)" fill="#8a64ed"/>
      <path id="Caminho_24378" data-name="Caminho 24378" d="M24.045,6.794,15,6.963a1.286,1.286,0,1,0,.045,2.571l9.047-.168a1.286,1.286,0,1,0-.045-2.572Z" transform="translate(3.658 6.181)" fill="#8a64ed"/>
      <path id="Caminho_24379" data-name="Caminho 24379" d="M20.694,6.857l-9.051.166A1.288,1.288,0,1,0,11.691,9.6l9.051-.169a1.286,1.286,0,1,0-.048-2.572Z" transform="translate(-10.378 6.443)" fill="#8a64ed"/>
      <path id="Caminho_24380" data-name="Caminho 24380" d="M20.13,5.4l-6.284,6.519A1.287,1.287,0,0,0,15.7,13.7L21.98,7.185A1.286,1.286,0,1,0,20.13,5.4Z" transform="translate(2.627 -1.305)" fill="#8a64ed"/>
      <path id="Caminho_24381" data-name="Caminho 24381" d="M17.8,7.813l-6.284,6.519a1.288,1.288,0,0,0,1.853,1.788L19.656,9.6A1.287,1.287,0,0,0,17.8,7.813Z" transform="translate(-7.11 8.801)" fill="#8a64ed"/>
      <path id="Caminho_24382" data-name="Caminho 24382" d="M22.2,14.04,15.688,7.758A1.287,1.287,0,0,0,13.9,9.612l6.515,6.282A1.287,1.287,0,0,0,22.2,14.04Z" transform="translate(2.718 8.714)" fill="#8a64ed"/>
      <path id="Caminho_24383" data-name="Caminho 24383" d="M19.793,11.713,13.27,5.432a1.285,1.285,0,1,0-1.783,1.851l6.519,6.285a1.287,1.287,0,0,0,1.786-1.854Z" transform="translate(-7.393 -1.025)" fill="#8a64ed"/>
    </g>
    <path id="Caminho_24384" data-name="Caminho 24384" d="M145.952,165.19c-40.078,0-72.565-6.461-72.565-14.428,0-1.612,1.33-3.16,3.78-4.607l-1.525,5.356h22.78l1.643-2.355,1.385,2.291-.018.064h29.259l1.093-.751v0l.733-.505,1.608-1.1-.13,2.355h25.579a7.254,7.254,0,0,0-.32-1.122l-6.624-23.263H93.91a3.535,3.535,0,0,0-3.725-2.855,3.773,3.773,0,0,0-.472.025l-2.329.625c.059-.074.152-.154.112-.2a1.733,1.733,0,0,0-.4-.358.007.007,0,0,0-.006,0,.932.932,0,0,0-.244.2.939.939,0,0,1-.244.195H86.6c-.059-.03.224-.536.164-.561a1.758,1.758,0,0,0-.649-.121h0l-1.63-.454V113.066c4.972-.121,10.071-.185,15.27-.185,2.527,0,5.023.019,7.5.049,5.036-4,15.888-7.163,29.508-8.578l.225,2.959a6.262,6.262,0,0,0,.581.645h-.581l-18.659,3.964v4.46h27.93v-8.356l.082-.068.63-4.306q2.886-.1,5.867-.1c26.867,0,48.649,6.459,48.649,14.428,0,2.8-2.694,5.407-7.339,7.618a2.822,2.822,0,0,1,.694,1.716c0,3.788-9.626,7.231-25.35,9.806,28.517,1.943,49.024,7.316,49.024,13.648,0,7.967-32.492,14.428-72.567,14.428Zm20.715-57.233-4.707,3.964v4.459h16.106V111.92l-4.909-3.964ZM78.529,141.375c-42.292-1.464-73.855-7.206-73.855-14.067s31.569-12.6,73.876-14.066v17.387h1.519a1.655,1.655,0,0,0,.253.253.061.061,0,0,0,.041.013l-.109.246a1.709,1.709,0,0,0-.565,1.273h0a1.715,1.715,0,0,0,.633,1.333.082.082,0,0,0,.049.01,1.1,1.1,0,0,0,.274-.066c.027-.009.054-.019.08-.025l-.778,2.73h0l-1.418,4.981Z" transform="translate(20 432.952)" fill="#584f6e"/>
    <path id="Caminho_24385" data-name="Caminho 24385" d="M45.524,126.062c0,1.82-7.53,3.3-16.817,3.3s-16.82-1.476-16.82-3.3c0,0,3.517-20.136,3.612-20.529,2.3-.99,8.286-1.126,13.236-1.126,6.445,0,12.088.017,13.332,1.519C42.067,105.925,45.524,125.835,45.524,126.062Z" transform="translate(50.178 436.553)" fill="#3c536f"/>
    <path id="Caminho_24386" data-name="Caminho 24386" d="M13.736,106.551l-1.574,10.222c0,2.692,6.809,4.03,15.211,4.03C27.373,120.8,24.713,102.759,13.736,106.551Z" transform="translate(51.328 443.333)" fill="#477496"/>
    <path id="Caminho_24387" data-name="Caminho 24387" d="M40.03,110.77l-.84-4.845c-1.244-1.5-6.887-1.519-13.332-1.519-4.95,0-10.936.136-13.236,1.126-.027.113-.157-.725.185,1.693C12.807,107.225,33.639,113.979,40.03,110.77Z" transform="translate(53.055 436.551)" fill="#384c65"/>
    <path id="Caminho_24388" data-name="Caminho 24388" d="M42.4,107.469c0,1.82-6.754,3.3-15.089,3.3s-15.084-1.476-15.084-3.3a23.665,23.665,0,0,1,.1-2.512c2.6-.992,9.381-1.128,14.98-1.128,7.293,0,13.683.016,15.089,1.521Z" transform="translate(51.595 434.139)" fill="#3c536f"/>
    <path id="Caminho_24389" data-name="Caminho 24389" d="M42.4,106.968c0,1.985-6.754,3.593-15.089,3.593s-15.084-1.608-15.084-3.593,6.755-3.6,15.084-3.6S42.4,104.982,42.4,106.968Z" transform="translate(51.595 432.225)" fill="#477496"/>
    <path id="Caminho_24390" data-name="Caminho 24390" d="M39.452,106.428c0,1.622-6.024,2.94-13.457,2.94s-13.455-1.318-13.455-2.94,6.026-2.94,13.455-2.94S39.452,104.8,39.452,106.428Z" transform="translate(52.91 432.708)" fill="#303e52"/>
    <path id="Caminho_24391" data-name="Caminho 24391" d="M21.32,91.305a1.418,1.418,0,1,1,1.419-1.417A1.418,1.418,0,0,1,21.32,91.305Zm0-3.674a2.257,2.257,0,1,0,2.258,2.257A2.256,2.256,0,0,0,21.32,87.632Z" transform="translate(80.198 366.375)" fill="#303e52"/>
    <path id="Caminho_24392" data-name="Caminho 24392" d="M19.148,173.189H22.78V88.351H19.148Z" transform="translate(80.553 369.383)" fill="#b7b7b8"/>
    <path id="Caminho_24393" data-name="Caminho 24393" d="M19.643,173.189H20.71V88.351H19.643Z" transform="translate(82.623 369.383)" fill="#f1f1f0"/>
    <path id="Caminho_24394" data-name="Caminho 24394" d="M19.148,173.189h1.116V88.351H19.148Z" transform="translate(80.553 369.383)" fill="#8e8f91"/>
    <path id="Caminho_24395" data-name="Caminho 24395" d="M19,89.925H24.16V88.351H19Z" transform="translate(79.937 369.383)" fill="#3c536f"/>
    <path id="Caminho_24396" data-name="Caminho 24396" d="M18.926,131.139h5.938V103.424H18.926Z" transform="translate(79.623 432.443)" fill="#3c536f"/>
    <path id="Caminho_24397" data-name="Caminho 24397" d="M24.864,131.139H18.926l5.938-27.715Z" transform="translate(79.623 432.443)" fill="#303e52"/>
    <path id="Caminho_24398" data-name="Caminho 24398" d="M25.577,108.235l-5.712,1.107,10.021,2.62A3.7,3.7,0,0,0,25.577,108.235Z" transform="translate(83.554 452.46)" fill="#f0d0a2"/>
    <path id="Caminho_24399" data-name="Caminho 24399" d="M24.1,108.506l-3.723.235,7.1,2.043c-.172-2.631-3.381-2.279-3.381-2.279Z" transform="translate(85.695 453.636)" fill="#bca583"/>
    <path id="Caminho_24400" data-name="Caminho 24400" d="M20.661,108.874c-.378-.03,3.019-.554,3.019-.554A11.774,11.774,0,0,1,20.661,108.874Z" transform="translate(86.758 452.924)" fill="#bca583"/>
    <path id="Caminho_24401" data-name="Caminho 24401" d="M25.67,108.428l-6.077.161,8.474,4.149C27.914,108.432,25.67,108.428,25.67,108.428Z" transform="translate(82.413 453.374)" fill="#d6bb93"/>
    <path id="Caminho_24402" data-name="Caminho 24402" d="M24.234,110.168l-4.327-1.67,6.662,3.948C26.449,109.816,24.234,110.168,24.234,110.168Z" transform="translate(83.727 453.668)" fill="#9b896e"/>
    <path id="Caminho_24403" data-name="Caminho 24403" d="M19.907,108.475c.7-.191,5.244,1.02,5.244,1.02S20.832,108.789,19.907,108.475Z" transform="translate(83.727 453.487)" fill="#9b896e"/>
    <path id="Caminho_24404" data-name="Caminho 24404" d="M24.032,109.812l-4.563-1.273,3.485,4.319S25.127,111.067,24.032,109.812Z" transform="translate(81.896 453.84)" fill="#9b896e"/>
    <path id="Caminho_24405" data-name="Caminho 24405" d="M23.445,110.5a1.713,1.713,0,0,1-1.713,1.714,1.824,1.824,0,0,1-.443-.057c-.126-.034.112-.38,0-.441-.045-.025-.176.019-.309.062s-.279.089-.322.055a1.718,1.718,0,0,1-.03-2.642c.064-.051.493.121.493.121l-.073-.382a1.713,1.713,0,0,1,1.311-.027c.059.023-.214.509-.159.539.026.013.133-.087.24-.185s.217-.2.24-.186a1.714,1.714,0,0,1,.38.342c.059.072-.19.221-.144.3.057.1.411.129.446.24A1.68,1.68,0,0,1,23.445,110.5Z" transform="translate(84.196 454.867)" fill="#7b6d58"/>
    <path id="Caminho_24406" data-name="Caminho 24406" d="M20.456,109.222a1.082,1.082,0,0,1,1.526,0,1.15,1.15,0,0,1,.172.223c.042.074-.217.121-.194.2s.324.163.331.231a1.066,1.066,0,0,1-.31.876,1.081,1.081,0,0,1-.851.312c-.05,0-.166-.274-.166-.274l-.138.2a1.052,1.052,0,0,1-.371-.239,1.145,1.145,0,0,1-.224-.329c-.015-.036.323-.131.31-.169s-.371-.013-.379-.049a1.132,1.132,0,0,1-.016-.322c0-.057.184-.011.2-.069s-.123-.238-.092-.306A1.23,1.23,0,0,1,20.456,109.222Z" transform="translate(84.707 455.381)" fill="#9b896e"/>
    <path id="Caminho_24407" data-name="Caminho 24407" d="M21.8,110.1l-1.33-1.557-1.325,2.986S22.9,111.352,21.8,110.1Z" transform="translate(80.543 453.839)" fill="#9b896e"/>
    <path id="Caminho_24408" data-name="Caminho 24408" d="M22.57,110.5a1.714,1.714,0,0,1-1.714,1.714,1.783,1.783,0,0,1-.441-.057c-.128-.034.11-.38,0-.441-.047-.025-.178.019-.31.062s-.279.089-.323.055a1.719,1.719,0,0,1-.028-2.642c.063-.051.49.121.49.121l-.074-.382a1.712,1.712,0,0,1,.689-.144,1.672,1.672,0,0,1,.622.117c.059.023-.214.509-.157.539.026.013.132-.087.24-.185s.216-.2.24-.186a1.661,1.661,0,0,1,.378.342c.062.072-.189.221-.144.3.059.1.41.129.447.24a1.713,1.713,0,0,1,.088.545Z" transform="translate(80.543 454.867)" fill="#7b6d58"/>
    <path id="Caminho_24409" data-name="Caminho 24409" d="M19.585,109.222a1.082,1.082,0,0,1,1.526,0,1.166,1.166,0,0,1,.169.223c.042.074-.218.121-.194.2s.327.163.333.231a1.077,1.077,0,0,1-1.16,1.188c-.053,0-.167-.274-.167-.274l-.138.2a1.01,1.01,0,0,1-.37-.239,1.065,1.065,0,0,1-.226-.329c-.015-.036.322-.131.31-.169s-.371-.013-.379-.049a.989.989,0,0,1-.015-.322c0-.057.183-.011.2-.069s-.124-.238-.091-.306a1.091,1.091,0,0,1,.2-.283Z" transform="translate(81.053 455.381)" fill="#9b896e"/>
    <path id="Caminho_24410" data-name="Caminho 24410" d="M21.464,108.234l5.5,1.112-9.808,2.617a3.7,3.7,0,0,1,4.311-3.729Z" transform="translate(72.206 452.457)" fill="#f0d0a2"/>
    <path id="Caminho_24411" data-name="Caminho 24411" d="M20.583,108.506l3.513.237L17.2,110.784c.172-2.63,3.379-2.278,3.379-2.278Z" transform="translate(72.421 453.636)" fill="#bca583"/>
    <path id="Caminho_24412" data-name="Caminho 24412" d="M21.333,109.454a33.744,33.744,0,0,0-3.6-1.135S20.357,109.531,21.333,109.454Z" transform="translate(74.63 452.922)" fill="#bca583"/>
    <path id="Caminho_24413" data-name="Caminho 24413" d="M20.7,108.877l5.282-.418L17.724,112.6c.151-4.3,2.979-3.725,2.979-3.725Z" transform="translate(74.596 453.504)" fill="#d6bb93"/>
    <path id="Caminho_24414" data-name="Caminho 24414" d="M20.1,110.163l4.116-1.665-6.451,3.942C17.878,109.809,20.1,110.163,20.1,110.163Z" transform="translate(74.744 453.665)" fill="#9b896e"/>
    <path id="Caminho_24415" data-name="Caminho 24415" d="M23.066,108.475c-.7-.191-5.033,1.019-5.033,1.019S22.139,108.789,23.066,108.475Z" transform="translate(75.889 453.487)" fill="#9b896e"/>
    <path id="Caminho_24416" data-name="Caminho 24416" d="M18.9,109.812l4.1-1.273-3.022,4.319S17.806,111.067,18.9,109.812Z" transform="translate(78.223 453.84)" fill="#9b896e"/>
    <path id="Caminho_24417" data-name="Caminho 24417" d="M18.321,110.5a1.713,1.713,0,0,0,1.711,1.714,1.815,1.815,0,0,0,.443-.057c.129-.034-.109-.38,0-.441.1-.051.548.183.631.117a1.711,1.711,0,0,0,.028-2.642c-.061-.051-.491.121-.491.121l.078-.382a1.725,1.725,0,0,0-.692-.144,1.687,1.687,0,0,0-.622.117c-.056.023.214.509.159.539s-.431-.4-.479-.371a1.679,1.679,0,0,0-.38.342c-.06.072.192.221.143.3-.056.1-.407.129-.445.24a1.747,1.747,0,0,0-.087.545Z" transform="translate(77.091 454.867)" fill="#7b6d58"/>
    <path id="Caminho_24418" data-name="Caminho 24418" d="M20.284,109.222a1.082,1.082,0,0,0-1.526,0,1.292,1.292,0,0,0-.172.223c-.039.074.218.121.194.2s-.323.163-.332.231a1.077,1.077,0,0,0,1.162,1.188c.052,0,.167-.274.167-.274l.136.2a1.019,1.019,0,0,0,.371-.239,1.1,1.1,0,0,0,.225-.329c.015-.036-.323-.131-.31-.169s.371-.013.377-.049a1.037,1.037,0,0,0,.017-.322c0-.057-.183-.011-.2-.069s.124-.238.09-.306A1.155,1.155,0,0,0,20.284,109.222Z" transform="translate(77.602 455.381)" fill="#9b896e"/>
    <path id="Caminho_24419" data-name="Caminho 24419" d="M26.16,107.57l-6.294,1.693,10.6,2.039A3.7,3.7,0,0,0,26.16,107.57Z" transform="translate(83.554 449.68)" fill="#f0d0a2"/>
    <path id="Caminho_24420" data-name="Caminho 24420" d="M24.683,107.842l-4.306.817,7.684,1.462c-.171-2.63-3.378-2.278-3.378-2.278Z" transform="translate(85.695 450.859)" fill="#bca583"/>
    <path id="Caminho_24421" data-name="Caminho 24421" d="M20.657,108.791a33.318,33.318,0,0,1,3.6-1.135S21.635,108.869,20.657,108.791Z" transform="translate(86.761 450.145)" fill="#bca583"/>
    <path id="Caminho_24422" data-name="Caminho 24422" d="M25.67,107.9l-6.077.163,9.057,3.566c-.15-4.306-2.979-3.729-2.979-3.729Z" transform="translate(82.413 451.043)" fill="#d6bb93"/>
    <path id="Caminho_24423" data-name="Caminho 24423" d="M24.814,109.036l-4.907-1.091,7.245,3.367C27.032,108.682,24.814,109.036,24.814,109.036Z" transform="translate(83.727 451.356)" fill="#9b896e"/>
    <path id="Caminho_24424" data-name="Caminho 24424" d="M19.907,107.936a46.518,46.518,0,0,1,5.826.439A46.046,46.046,0,0,1,19.907,107.936Z" transform="translate(83.727 451.167)" fill="#9b896e"/>
    <path id="Caminho_24425" data-name="Caminho 24425" d="M25.11,109.259l-5.641-1.273,4.563,4.317S26.206,110.517,25.11,109.259Z" transform="translate(81.896 451.53)" fill="#9b896e"/>
    <path id="Caminho_24426" data-name="Caminho 24426" d="M23.653,109.947a1.711,1.711,0,0,1-1.711,1.712,1.675,1.675,0,0,1-.441-.057c-.131-.037.109-.378-.007-.44-.047-.023-.176.02-.306.062s-.281.089-.324.053a1.709,1.709,0,0,1-.028-2.639c.063-.052.491.121.491.121l-.074-.382a1.721,1.721,0,0,1,1.312-.027c.057.024-.214.51-.159.539.026.013.133-.087.24-.187s.217-.2.242-.187a1.846,1.846,0,0,1,.379.344c.057.07-.194.22-.146.3.057.1.408.13.445.238a1.688,1.688,0,0,1,.087.547Z" transform="translate(85.064 452.557)" fill="#7b6d58"/>
    <path id="Caminho_24427" data-name="Caminho 24427" d="M20.666,108.67a1.077,1.077,0,0,1,1.522,0,1.1,1.1,0,0,1,.173.222c.041.072-.219.121-.195.2s.326.163.331.229a1.075,1.075,0,0,1-1.161,1.188c-.052,0-.166-.272-.166-.272l-.135.2a1.069,1.069,0,0,1-.371-.242,1.136,1.136,0,0,1-.228-.329c-.015-.039.323-.131.31-.17s-.371-.013-.378-.051a1.146,1.146,0,0,1-.018-.32c.007-.059.184-.013.2-.07s-.127-.24-.092-.306A1.032,1.032,0,0,1,20.666,108.67Z" transform="translate(85.578 453.07)" fill="#9b896e"/>
    <path id="Caminho_24428" data-name="Caminho 24428" d="M21.8,109.542l-1.33-1.555-1.325,2.987S22.9,110.8,21.8,109.542Z" transform="translate(80.543 451.53)" fill="#9b896e"/>
    <path id="Caminho_24429" data-name="Caminho 24429" d="M22.57,109.947a1.712,1.712,0,0,1-1.714,1.712,1.671,1.671,0,0,1-.441-.057c-.128-.037.11-.378,0-.44a.665.665,0,0,0-.308.062c-.139.044-.281.089-.325.053a1.716,1.716,0,0,1-.028-2.639c.063-.052.49.121.49.121l-.074-.382a1.72,1.72,0,0,1,1.311-.027c.059.024-.214.51-.157.539.026.013.133-.087.24-.187s.216-.2.24-.187a1.712,1.712,0,0,1,.378.344c.062.07-.189.22-.144.3.059.1.41.13.447.238a1.734,1.734,0,0,1,.088.547Z" transform="translate(80.543 452.557)" fill="#7b6d58"/>
    <path id="Caminho_24430" data-name="Caminho 24430" d="M19.585,108.67a1.081,1.081,0,0,1,1.526,0,1.111,1.111,0,0,1,.169.222c.042.072-.218.121-.194.2s.327.163.333.229a1.074,1.074,0,0,1-1.16,1.188c-.053,0-.167-.272-.167-.272l-.138.2a1.082,1.082,0,0,1-.37-.242,1.04,1.04,0,0,1-.226-.329c-.015-.039.322-.131.31-.17s-.371-.013-.379-.051a.975.975,0,0,1-.015-.32c0-.059.183-.013.2-.07s-.124-.24-.091-.306a1.042,1.042,0,0,1,.2-.282Z" transform="translate(81.053 453.07)" fill="#9b896e"/>
    <path id="Caminho_24431" data-name="Caminho 24431" d="M21.31,107.57l6.292,1.693L17,111.3A3.7,3.7,0,0,1,21.31,107.57Z" transform="translate(71.565 449.68)" fill="#f0d0a2"/>
    <path id="Caminho_24432" data-name="Caminho 24432" d="M20.429,107.842l4.308.817-7.686,1.462c.172-2.63,3.378-2.278,3.378-2.278Z" transform="translate(71.78 450.859)" fill="#bca583"/>
    <path id="Caminho_24433" data-name="Caminho 24433" d="M21.176,108.791a33.106,33.106,0,0,0-3.6-1.135S20.2,108.869,21.176,108.791Z" transform="translate(73.99 450.145)" fill="#bca583"/>
    <path id="Caminho_24434" data-name="Caminho 24434" d="M20.552,107.9l6.075.163-9.057,3.566c.153-4.306,2.981-3.729,2.981-3.729Z" transform="translate(73.954 451.043)" fill="#d6bb93"/>
    <path id="Caminho_24435" data-name="Caminho 24435" d="M19.944,109.036l4.911-1.091-7.248,3.367C17.727,108.682,19.944,109.036,19.944,109.036Z" transform="translate(74.101 451.356)" fill="#9b896e"/>
    <path id="Caminho_24436" data-name="Caminho 24436" d="M23.707,107.936a46.518,46.518,0,0,0-5.827.439A46.078,46.078,0,0,0,23.707,107.936Z" transform="translate(75.248 451.167)" fill="#9b896e"/>
    <path id="Caminho_24437" data-name="Caminho 24437" d="M18.6,109.259l5.639-1.273L19.679,112.3S17.506,110.517,18.6,109.259Z" transform="translate(76.98 451.53)" fill="#9b896e"/>
    <path id="Caminho_24438" data-name="Caminho 24438" d="M18.023,109.947a1.715,1.715,0,0,0,2.155,1.655c.128-.034-.112-.378,0-.44.1-.051.547.184.63.115a1.71,1.71,0,0,0,.03-2.639c-.063-.052-.49.121-.49.121l.074-.382a1.722,1.722,0,0,0-1.312-.027c-.058.024.214.51.158.539s-.432-.406-.48-.374a1.84,1.84,0,0,0-.38.344c-.059.07.192.22.147.3-.057.1-.411.13-.446.238a1.7,1.7,0,0,0-.089.547Z" transform="translate(75.847 452.557)" fill="#7b6d58"/>
    <path id="Caminho_24439" data-name="Caminho 24439" d="M19.987,108.67a1.081,1.081,0,0,0-1.526,0,1.149,1.149,0,0,0-.171.222c-.041.072.217.121.2.2s-.326.163-.334.229a1.074,1.074,0,0,0,1.16,1.188c.052,0,.169-.272.169-.272l.135.2a1.089,1.089,0,0,0,.371-.242,1.065,1.065,0,0,0,.225-.329c.016-.039-.321-.131-.31-.17s.373-.013.38-.051a1.161,1.161,0,0,0,.015-.32c0-.059-.183-.013-.2-.07s.124-.24.092-.306a1.06,1.06,0,0,0-.2-.282Z" transform="translate(76.358 453.07)" fill="#9b896e"/>
    <path id="Caminho_24440" data-name="Caminho 24440" d="M25.832,106.933l-5.949,1.154,10.436,2.728A3.849,3.849,0,0,0,25.832,106.933Z" transform="translate(83.625 447.007)" fill="#f0d0a2"/>
    <path id="Caminho_24441" data-name="Caminho 24441" d="M24.294,107.216l-3.878.246,7.4,2.125C27.632,106.848,24.294,107.216,24.294,107.216Z" transform="translate(85.855 448.234)" fill="#bca583"/>
    <path id="Caminho_24442" data-name="Caminho 24442" d="M20.711,107.6c-.392-.03,3.143-.575,3.143-.575A12.347,12.347,0,0,1,20.711,107.6Z" transform="translate(86.963 447.492)" fill="#bca583"/>
    <path id="Caminho_24443" data-name="Caminho 24443" d="M25.927,107.133,19.6,107.3l8.825,4.321c-.159-4.487-2.5-4.49-2.5-4.49Z" transform="translate(82.438 447.959)" fill="#d6bb93"/>
    <path id="Caminho_24444" data-name="Caminho 24444" d="M24.432,108.944l-4.507-1.737,6.94,4.111C26.741,108.577,24.432,108.944,24.432,108.944Z" transform="translate(83.804 448.265)" fill="#9b896e"/>
    <path id="Caminho_24445" data-name="Caminho 24445" d="M19.925,107.183c.731-.2,5.465,1.065,5.465,1.065S20.89,107.51,19.925,107.183Z" transform="translate(83.804 448.078)" fill="#9b896e"/>
    <path id="Caminho_24446" data-name="Caminho 24446" d="M24.219,108.573,19.47,107.25l3.629,4.494S25.36,109.882,24.219,108.573Z" transform="translate(81.899 448.447)" fill="#9b896e"/>
    <path id="Caminho_24447" data-name="Caminho 24447" d="M23.611,109.291a1.783,1.783,0,0,1-1.786,1.782,1.658,1.658,0,0,1-.458-.062c-.135-.032.116-.39,0-.454-.049-.027-.185.017-.321.062s-.291.1-.336.057a1.781,1.781,0,0,1-.03-2.749c.064-.053.511.125.511.125l-.078-.4a1.788,1.788,0,0,1,1.366-.03c.06.025-.223.532-.164.561.027.013.139-.091.25-.195s.225-.21.25-.193a1.733,1.733,0,0,1,.4.358c.061.072-.2.231-.151.312.062.106.427.136.465.253a1.81,1.81,0,0,1,.092.568Z" transform="translate(84.292 449.513)" fill="#7b6d58"/>
    <path id="Caminho_24448" data-name="Caminho 24448" d="M20.5,107.962a1.123,1.123,0,0,1,1.589,0,1.092,1.092,0,0,1,.177.232c.044.076-.227.125-.2.208.021.066.338.167.344.237a1.12,1.12,0,0,1-1.209,1.237c-.053,0-.173-.282-.173-.282l-.14.21a1.084,1.084,0,0,1-.389-.253,1.126,1.126,0,0,1-.235-.341c-.016-.04.336-.138.324-.178s-.387-.013-.4-.049a1.284,1.284,0,0,1-.017-.333c.008-.062.194-.017.21-.074.017-.074-.131-.25-.1-.32a1.159,1.159,0,0,1,.211-.293Z" transform="translate(84.827 450.047)" fill="#9b896e"/>
    <path id="Caminho_24449" data-name="Caminho 24449" d="M21.9,108.868l-1.385-1.618-1.382,3.109S23.042,110.179,21.9,108.868Z" transform="translate(80.488 448.447)" fill="#9b896e"/>
    <path id="Caminho_24450" data-name="Caminho 24450" d="M22.7,109.291a1.785,1.785,0,0,1-1.786,1.782,1.674,1.674,0,0,1-.461-.062c-.132-.032.116-.39,0-.454-.048-.027-.183.017-.32.062s-.292.1-.337.057a1.785,1.785,0,0,1-.03-2.749c.063-.053.513.125.513.125l-.077-.4a1.747,1.747,0,0,1,.716-.151,1.764,1.764,0,0,1,.648.121c.062.025-.222.532-.163.561.026.013.137-.091.249-.195s.226-.21.251-.193a1.8,1.8,0,0,1,.4.358c.061.072-.2.231-.151.312.059.106.423.136.465.253a1.822,1.822,0,0,1,.092.568Z" transform="translate(80.488 449.513)" fill="#7b6d58"/>
    <path id="Caminho_24451" data-name="Caminho 24451" d="M19.588,107.962a1.126,1.126,0,0,1,1.768.232c.044.076-.227.125-.2.208.019.066.335.167.344.237a1.123,1.123,0,0,1-1.209,1.237c-.055,0-.173-.282-.173-.282l-.142.21a1.118,1.118,0,0,1-.388-.253,1.1,1.1,0,0,1-.233-.341c-.016-.04.334-.138.322-.178s-.388-.013-.395-.049a1.14,1.14,0,0,1-.018-.333c.007-.062.192-.017.207-.074.02-.074-.126-.25-.094-.32a1.123,1.123,0,0,1,.21-.293Z" transform="translate(81.021 450.047)" fill="#9b896e"/>
    <path id="Caminho_24452" data-name="Caminho 24452" d="M21.548,106.932l5.723,1.158-10.213,2.726A3.852,3.852,0,0,1,21.548,106.932Z" transform="translate(71.808 447.004)" fill="#f0d0a2"/>
    <path id="Caminho_24453" data-name="Caminho 24453" d="M20.631,107.215l3.657.25-7.177,2.123c.179-2.741,3.52-2.373,3.52-2.373Z" transform="translate(72.031 448.231)" fill="#bca583"/>
    <path id="Caminho_24454" data-name="Caminho 24454" d="M21.41,108.2a34.621,34.621,0,0,0-3.749-1.182S20.4,108.285,21.41,108.2Z" transform="translate(74.332 447.489)" fill="#bca583"/>
    <path id="Caminho_24455" data-name="Caminho 24455" d="M20.755,107.6l5.5-.435-8.6,4.319c.157-4.486,3.1-3.884,3.1-3.884Z" transform="translate(74.295 448.095)" fill="#d6bb93"/>
    <path id="Caminho_24456" data-name="Caminho 24456" d="M20.122,108.942l4.284-1.736-6.717,4.109C17.814,108.574,20.122,108.942,20.122,108.942Z" transform="translate(74.451 448.263)" fill="#9b896e"/>
    <path id="Caminho_24457" data-name="Caminho 24457" d="M23.214,107.183c-.732-.2-5.24,1.061-5.24,1.061S22.249,107.51,23.214,107.183Z" transform="translate(75.643 448.078)" fill="#9b896e"/>
    <path id="Caminho_24458" data-name="Caminho 24458" d="M18.877,108.573l4.271-1.323L20,111.744S17.735,109.882,18.877,108.573Z" transform="translate(78.073 448.447)" fill="#9b896e"/>
    <path id="Caminho_24459" data-name="Caminho 24459" d="M18.273,109.291a1.783,1.783,0,0,0,1.783,1.782,1.651,1.651,0,0,0,.46-.062c.133-.032-.115-.39.007-.454.1-.055.567.192.657.119a1.785,1.785,0,0,0,.028-2.747c-.065-.055-.51.123-.51.123l.076-.4a1.744,1.744,0,0,0-.718-.151,1.779,1.779,0,0,0-.649.121c-.06.025.223.532.166.561s-.449-.42-.5-.388a1.713,1.713,0,0,0-.395.358c-.062.072.2.231.15.312-.06.106-.427.136-.464.255a1.742,1.742,0,0,0-.091.566Z" transform="translate(76.893 449.513)" fill="#7b6d58"/>
    <path id="Caminho_24460" data-name="Caminho 24460" d="M20.318,107.962a1.119,1.119,0,0,0-1.765.232c-.044.076.224.125.2.208-.021.066-.339.167-.349.237a1.123,1.123,0,0,0,1.211,1.237c.052,0,.173-.282.173-.282l.141.21a1.129,1.129,0,0,0,.62-.594c.017-.04-.334-.138-.324-.178s.389-.013.4-.049a1.073,1.073,0,0,0,.017-.333c0-.062-.189-.017-.2-.074-.02-.074.128-.25.094-.32a1.133,1.133,0,0,0-.212-.293Z" transform="translate(77.426 450.047)" fill="#9b896e"/>
    <path id="Caminho_24461" data-name="Caminho 24461" d="M26.436,106.241,19.883,108l11.042,2.123a3.85,3.85,0,0,0-4.489-3.882Z" transform="translate(83.625 444.111)" fill="#f0d0a2"/>
    <path id="Caminho_24462" data-name="Caminho 24462" d="M24.9,106.523l-4.482.851,8,1.521c-.176-2.738-3.52-2.372-3.52-2.372Z" transform="translate(85.855 445.338)" fill="#bca583"/>
    <path id="Caminho_24463" data-name="Caminho 24463" d="M20.707,107.511a35.072,35.072,0,0,1,3.748-1.182S21.722,107.592,20.707,107.511Z" transform="translate(86.966 444.596)" fill="#bca583"/>
    <path id="Caminho_24464" data-name="Caminho 24464" d="M25.927,106.58l-6.328.169,9.432,3.714C28.871,105.978,25.927,106.58,25.927,106.58Z" transform="translate(82.438 445.531)" fill="#d6bb93"/>
    <path id="Caminho_24465" data-name="Caminho 24465" d="M25.039,107.764l-5.114-1.133,7.547,3.506C27.348,107.4,25.039,107.764,25.039,107.764Z" transform="translate(83.804 445.857)" fill="#9b896e"/>
    <path id="Caminho_24466" data-name="Caminho 24466" d="M19.925,106.621a48.284,48.284,0,0,1,6.067.458A47.617,47.617,0,0,1,19.925,106.621Z" transform="translate(83.804 445.658)" fill="#9b896e"/>
    <path id="Caminho_24467" data-name="Caminho 24467" d="M25.345,108l-5.875-1.326,4.754,4.5S26.484,109.309,25.345,108Z" transform="translate(81.899 446.039)" fill="#9b896e"/>
    <path id="Caminho_24468" data-name="Caminho 24468" d="M23.827,108.716a1.784,1.784,0,0,1-1.783,1.782,1.857,1.857,0,0,1-.463-.06c-.133-.036.116-.392,0-.458-.1-.053-.57.193-.655.121a1.783,1.783,0,0,1-.033-2.748c.066-.055.513.125.513.125l-.079-.4a1.8,1.8,0,0,1,.72-.151,1.828,1.828,0,0,1,.646.121c.062.024-.222.531-.164.563s.45-.42.5-.386a1.711,1.711,0,0,1,.394.356c.062.073-.2.227-.15.314.059.1.425.134.463.251a1.75,1.75,0,0,1,.094.568Z" transform="translate(85.2 447.11)" fill="#7b6d58"/>
    <path id="Caminho_24469" data-name="Caminho 24469" d="M20.717,107.387a1.119,1.119,0,0,1,1.585,0,1.2,1.2,0,0,1,.179.231c.043.077-.226.125-.2.205s.339.17.347.24a1.126,1.126,0,0,1-1.209,1.236c-.054,0-.172-.285-.172-.285l-.145.212a1.172,1.172,0,0,1-.62-.594c-.017-.038.336-.137.324-.176s-.389-.015-.4-.053a1.094,1.094,0,0,1-.015-.333c0-.062.192-.015.2-.073.02-.074-.128-.25-.094-.318a1.032,1.032,0,0,1,.212-.3Z" transform="translate(85.733 447.644)" fill="#9b896e"/>
    <path id="Caminho_24470" data-name="Caminho 24470" d="M21.9,108.3l-1.385-1.623-1.382,3.112S23.042,109.6,21.9,108.3Z" transform="translate(80.488 446.037)" fill="#9b896e"/>
    <path id="Caminho_24471" data-name="Caminho 24471" d="M22.7,108.716a1.786,1.786,0,0,1-1.786,1.782,1.843,1.843,0,0,1-.461-.06c-.132-.036.116-.392,0-.458-.1-.053-.569.193-.657.121a1.784,1.784,0,0,1-.03-2.748c.063-.055.513.125.513.125l-.077-.4a1.78,1.78,0,0,1,.716-.151,1.825,1.825,0,0,1,.648.121c.062.024-.222.531-.163.563s.45-.42.5-.386a1.716,1.716,0,0,1,.4.356c.061.073-.2.227-.151.314.059.1.423.134.465.251a1.83,1.83,0,0,1,.092.568Z" transform="translate(80.488 447.11)" fill="#7b6d58"/>
    <path id="Caminho_24472" data-name="Caminho 24472" d="M19.588,107.387a1.123,1.123,0,0,1,1.589,0,1.139,1.139,0,0,1,.179.231c.044.077-.227.125-.2.205s.335.17.344.24a1.125,1.125,0,0,1-1.209,1.236c-.055,0-.173-.285-.173-.285l-.142.212a1.164,1.164,0,0,1-.388-.255,1.1,1.1,0,0,1-.233-.339c-.016-.038.334-.137.322-.176s-.388-.015-.395-.053a1.135,1.135,0,0,1-.018-.333c.007-.062.192-.015.207-.073.02-.074-.126-.25-.094-.318a1.063,1.063,0,0,1,.21-.3Z" transform="translate(81.021 447.644)" fill="#9b896e"/>
    <path id="Caminho_24473" data-name="Caminho 24473" d="M21.384,106.241,27.94,108,16.9,110.122a3.849,3.849,0,0,1,4.487-3.882Z" transform="translate(71.139 444.111)" fill="#f0d0a2"/>
    <path id="Caminho_24474" data-name="Caminho 24474" d="M20.472,106.523l4.484.851-8,1.521c.178-2.738,3.52-2.372,3.52-2.372Z" transform="translate(71.363 445.338)" fill="#bca583"/>
    <path id="Caminho_24475" data-name="Caminho 24475" d="M21.251,107.511a34.971,34.971,0,0,0-3.75-1.182S20.236,107.592,21.251,107.511Z" transform="translate(73.663 444.596)" fill="#bca583"/>
    <path id="Caminho_24476" data-name="Caminho 24476" d="M20.594,106.58l6.331.169-9.432,3.714C17.652,105.978,20.594,106.58,20.594,106.58Z" transform="translate(73.628 445.531)" fill="#d6bb93"/>
    <path id="Caminho_24477" data-name="Caminho 24477" d="M19.961,107.764l5.114-1.133-7.545,3.506C17.652,107.4,19.961,107.764,19.961,107.764Z" transform="translate(73.782 445.857)" fill="#9b896e"/>
    <path id="Caminho_24478" data-name="Caminho 24478" d="M23.882,106.621a48.285,48.285,0,0,0-6.068.458A47.628,47.628,0,0,0,23.882,106.621Z" transform="translate(74.975 445.658)" fill="#9b896e"/>
    <path id="Caminho_24479" data-name="Caminho 24479" d="M18.567,108l5.875-1.326-4.754,4.5S17.427,109.309,18.567,108Z" transform="translate(76.779 446.039)" fill="#9b896e"/>
    <path id="Caminho_24480" data-name="Caminho 24480" d="M17.963,108.716a1.786,1.786,0,0,0,1.786,1.782,1.822,1.822,0,0,0,.46-.06c.136-.036-.115-.392,0-.458.1-.053.572.193.657.121a1.784,1.784,0,0,0,.03-2.748c-.063-.055-.511.125-.511.125l.076-.4a1.791,1.791,0,0,0-.717-.151,1.844,1.844,0,0,0-.649.121c-.058.024.226.531.167.563s-.452-.42-.5-.386a1.717,1.717,0,0,0-.4.356c-.061.073.2.227.151.314-.059.1-.426.134-.464.251a1.772,1.772,0,0,0-.093.568Z" transform="translate(75.597 447.11)" fill="#7b6d58"/>
    <path id="Caminho_24481" data-name="Caminho 24481" d="M20.008,107.387a1.122,1.122,0,0,0-1.588,0,1.206,1.206,0,0,0-.177.231c-.044.077.227.125.2.205s-.34.17-.349.24a1.124,1.124,0,0,0,.324.91,1.112,1.112,0,0,0,.885.327c.055,0,.175-.285.175-.285l.141.212a1.158,1.158,0,0,0,.386-.255,1.109,1.109,0,0,0,.234-.339c.016-.038-.334-.137-.321-.176s.385-.015.393-.053a1.163,1.163,0,0,0,.018-.333c-.007-.062-.193-.015-.208-.073-.02-.074.131-.25.1-.318a1.064,1.064,0,0,0-.212-.3Z" transform="translate(76.131 447.644)" fill="#9b896e"/>
    <path id="Caminho_24482" data-name="Caminho 24482" d="M25.577,105.866l-5.712,1.107L29.887,109.6A3.7,3.7,0,0,0,25.577,105.866Z" transform="translate(83.554 442.55)" fill="#f0d0a2"/>
    <path id="Caminho_24483" data-name="Caminho 24483" d="M24.1,106.138l-3.723.233,7.1,2.044C27.308,105.786,24.1,106.138,24.1,106.138Z" transform="translate(85.695 443.73)" fill="#bca583"/>
    <path id="Caminho_24484" data-name="Caminho 24484" d="M20.661,106.505c-.378-.03,3.019-.554,3.019-.554A11.865,11.865,0,0,1,20.661,106.505Z" transform="translate(86.758 443.014)" fill="#bca583"/>
    <path id="Caminho_24485" data-name="Caminho 24485" d="M25.67,106.059l-6.077.162,8.474,4.149C27.914,106.066,25.67,106.059,25.67,106.059Z" transform="translate(82.413 443.465)" fill="#d6bb93"/>
    <path id="Caminho_24486" data-name="Caminho 24486" d="M24.235,107.8l-4.328-1.672,6.662,3.947C26.449,107.446,24.235,107.8,24.235,107.8Z" transform="translate(83.727 443.757)" fill="#9b896e"/>
    <path id="Caminho_24487" data-name="Caminho 24487" d="M19.907,106.106c.7-.191,5.244,1.022,5.244,1.022S20.832,106.422,19.907,106.106Z" transform="translate(83.727 443.577)" fill="#9b896e"/>
    <path id="Caminho_24488" data-name="Caminho 24488" d="M24.032,107.445l-4.563-1.275,3.485,4.321S25.127,108.7,24.032,107.445Z" transform="translate(81.896 443.929)" fill="#9b896e"/>
    <path id="Caminho_24489" data-name="Caminho 24489" d="M23.445,108.13a1.71,1.71,0,0,1-2.157,1.654c-.126-.033.112-.38,0-.441-.094-.048-.547.185-.63.119a1.718,1.718,0,0,1-.031-2.641c.064-.053.493.118.493.118l-.073-.378a1.66,1.66,0,0,1,.689-.146,1.738,1.738,0,0,1,.622.116c.059.023-.214.507-.159.536s.434-.4.48-.369a1.674,1.674,0,0,1,.38.341c.059.07-.19.221-.144.3.057.1.411.129.446.241a1.683,1.683,0,0,1,.089.545Z" transform="translate(84.196 444.958)" fill="#7b6d58"/>
    <path id="Caminho_24490" data-name="Caminho 24490" d="M20.456,106.854a1.081,1.081,0,0,1,1.526,0,1.1,1.1,0,0,1,.172.223c.041.072-.217.119-.194.2s.324.161.331.228a1.063,1.063,0,0,1-.31.876,1.075,1.075,0,0,1-.851.312c-.05,0-.166-.272-.166-.272l-.138.2a1.074,1.074,0,0,1-.6-.571c-.015-.036.323-.132.31-.169s-.371-.013-.379-.049a1.124,1.124,0,0,1-.016-.321c0-.059.184-.013.2-.07s-.123-.24-.092-.306a1.2,1.2,0,0,1,.2-.282Z" transform="translate(84.707 445.471)" fill="#9b896e"/>
    <path id="Caminho_24491" data-name="Caminho 24491" d="M21.8,107.729l-1.33-1.559-1.325,2.988S22.9,108.983,21.8,107.729Z" transform="translate(80.543 443.931)" fill="#9b896e"/>
    <path id="Caminho_24492" data-name="Caminho 24492" d="M22.57,108.13a1.714,1.714,0,0,1-1.714,1.714,1.674,1.674,0,0,1-.441-.059c-.128-.033.11-.38,0-.441-.1-.048-.548.185-.633.119a1.719,1.719,0,0,1-.028-2.641c.063-.053.49.118.49.118l-.074-.378a1.674,1.674,0,0,1,.689-.146,1.729,1.729,0,0,1,.623.116c.058.023-.215.507-.158.536s.432-.4.479-.369a1.624,1.624,0,0,1,.378.341c.062.07-.189.221-.144.3.059.1.41.129.447.241a1.716,1.716,0,0,1,.088.545Z" transform="translate(80.543 444.958)" fill="#7b6d58"/>
    <path id="Caminho_24493" data-name="Caminho 24493" d="M19.585,106.854a1.081,1.081,0,0,1,1.526,0,1.114,1.114,0,0,1,.169.223c.042.072-.218.119-.194.2s.327.161.334.228a1.078,1.078,0,0,1-1.161,1.188c-.053,0-.167-.272-.167-.272l-.138.2a1.054,1.054,0,0,1-.37-.242,1.013,1.013,0,0,1-.226-.329c-.015-.036.322-.132.31-.169s-.37-.013-.379-.049a.982.982,0,0,1-.015-.321c0-.059.183-.013.2-.07s-.124-.24-.091-.306a1.055,1.055,0,0,1,.2-.282Z" transform="translate(81.053 445.471)" fill="#9b896e"/>
    <path id="Caminho_24494" data-name="Caminho 24494" d="M21.464,105.865l5.5,1.112-9.808,2.618a3.7,3.7,0,0,1,4.311-3.73Z" transform="translate(72.206 442.547)" fill="#f0d0a2"/>
    <path id="Caminho_24495" data-name="Caminho 24495" d="M20.583,106.137l3.513.238-6.892,2.04c.172-2.63,3.379-2.278,3.379-2.278Z" transform="translate(72.421 443.727)" fill="#bca583"/>
    <path id="Caminho_24496" data-name="Caminho 24496" d="M21.333,107.084a33.117,33.117,0,0,0-3.6-1.133S20.357,107.162,21.333,107.084Z" transform="translate(74.63 443.013)" fill="#bca583"/>
    <path id="Caminho_24497" data-name="Caminho 24497" d="M20.7,106.508l5.282-.418-8.261,4.147C17.876,105.928,20.7,106.508,20.7,106.508Z" transform="translate(74.596 443.594)" fill="#d6bb93"/>
    <path id="Caminho_24498" data-name="Caminho 24498" d="M20.1,107.8l4.116-1.667-6.451,3.945C17.878,107.444,20.1,107.8,20.1,107.8Z" transform="translate(74.744 443.758)" fill="#9b896e"/>
    <path id="Caminho_24499" data-name="Caminho 24499" d="M23.066,106.106c-.7-.191-5.033,1.018-5.033,1.018S22.139,106.422,23.066,106.106Z" transform="translate(75.889 443.577)" fill="#9b896e"/>
    <path id="Caminho_24500" data-name="Caminho 24500" d="M18.9,107.445,23,106.17l-3.022,4.321S17.806,108.7,18.9,107.445Z" transform="translate(78.223 443.929)" fill="#9b896e"/>
    <path id="Caminho_24501" data-name="Caminho 24501" d="M18.321,108.13a1.707,1.707,0,0,0,2.154,1.654c.129-.033-.109-.38,0-.441.1-.048.548.185.631.119a1.711,1.711,0,0,0,.028-2.641c-.061-.053-.491.118-.491.118l.078-.378a1.686,1.686,0,0,0-.692-.146,1.738,1.738,0,0,0-.622.116c-.056.023.214.507.159.536s-.431-.4-.479-.369a1.64,1.64,0,0,0-.38.341c-.06.07.192.221.143.3-.056.1-.407.129-.445.241a1.75,1.75,0,0,0-.087.545Z" transform="translate(77.091 444.958)" fill="#7b6d58"/>
    <path id="Caminho_24502" data-name="Caminho 24502" d="M20.284,106.854a1.082,1.082,0,0,0-1.526,0,1.229,1.229,0,0,0-.172.223c-.039.072.218.119.194.2s-.323.161-.332.228a1.078,1.078,0,0,0,1.162,1.188c.052,0,.167-.272.167-.272l.136.2a1.059,1.059,0,0,0,.371-.242,1.043,1.043,0,0,0,.225-.329c.015-.036-.323-.132-.31-.169s.371-.013.377-.049a1.03,1.03,0,0,0,.017-.321c0-.059-.183-.013-.2-.07s.124-.24.09-.306a1.114,1.114,0,0,0-.2-.282Z" transform="translate(77.602 445.471)" fill="#9b896e"/>
    <path id="Caminho_24503" data-name="Caminho 24503" d="M26.16,105.2l-6.294,1.69,10.6,2.037A3.7,3.7,0,0,0,26.16,105.2Z" transform="translate(83.554 439.77)" fill="#f0d0a2"/>
    <path id="Caminho_24504" data-name="Caminho 24504" d="M24.683,105.474l-4.306.817,7.684,1.461c-.171-2.632-3.378-2.279-3.378-2.279Z" transform="translate(85.695 440.949)" fill="#bca583"/>
    <path id="Caminho_24505" data-name="Caminho 24505" d="M20.657,106.423a32.76,32.76,0,0,1,3.6-1.135S21.635,106.5,20.657,106.423Z" transform="translate(86.761 440.238)" fill="#bca583"/>
    <path id="Caminho_24506" data-name="Caminho 24506" d="M25.67,105.528l-6.077.163,9.057,3.566c-.15-4.306-2.979-3.729-2.979-3.729Z" transform="translate(82.413 441.133)" fill="#d6bb93"/>
    <path id="Caminho_24507" data-name="Caminho 24507" d="M24.814,106.665l-4.907-1.088,7.245,3.367C27.032,106.312,24.814,106.665,24.814,106.665Z" transform="translate(83.727 441.448)" fill="#9b896e"/>
    <path id="Caminho_24508" data-name="Caminho 24508" d="M19.907,105.568a46.11,46.11,0,0,1,5.826.437A45.9,45.9,0,0,1,19.907,105.568Z" transform="translate(83.727 441.257)" fill="#9b896e"/>
    <path id="Caminho_24509" data-name="Caminho 24509" d="M25.11,106.893l-5.641-1.275,4.563,4.318S26.206,108.148,25.11,106.893Z" transform="translate(81.896 441.622)" fill="#9b896e"/>
    <path id="Caminho_24510" data-name="Caminho 24510" d="M23.653,107.578a1.71,1.71,0,0,1-1.711,1.711,1.693,1.693,0,0,1-.44-.057c-.131-.034.109-.378-.007-.439-.1-.05-.545.182-.631.115a1.71,1.71,0,0,1-.028-2.639c.063-.051.491.119.491.119l-.074-.38a1.7,1.7,0,0,1,.689-.144,1.733,1.733,0,0,1,.622.114c.057.023-.214.509-.159.539s.432-.4.482-.371a1.789,1.789,0,0,1,.379.342c.057.072-.194.223-.146.3.057.1.408.131.445.239a1.671,1.671,0,0,1,.087.547Z" transform="translate(85.064 442.651)" fill="#7b6d58"/>
    <path id="Caminho_24511" data-name="Caminho 24511" d="M20.666,106.3a1.074,1.074,0,0,1,1.522,0,1.085,1.085,0,0,1,.173.221c.041.074-.219.121-.195.2s.326.161.332.227a1.077,1.077,0,0,1-1.161,1.19c-.052,0-.166-.271-.166-.271l-.135.2a1.1,1.1,0,0,1-.371-.24,1.134,1.134,0,0,1-.227-.331c-.015-.036.323-.132.31-.168s-.371-.015-.378-.053a1.125,1.125,0,0,1-.018-.318c.007-.06.184-.015.2-.07.018-.07-.127-.239-.091-.306a1.02,1.02,0,0,1,.2-.282Z" transform="translate(85.578 443.159)" fill="#9b896e"/>
    <path id="Caminho_24512" data-name="Caminho 24512" d="M21.8,107.174l-1.33-1.556-1.325,2.988S22.9,108.432,21.8,107.174Z" transform="translate(80.543 441.619)" fill="#9b896e"/>
    <path id="Caminho_24513" data-name="Caminho 24513" d="M22.57,107.578a1.712,1.712,0,0,1-1.714,1.711,1.693,1.693,0,0,1-.441-.057c-.128-.034.11-.378,0-.439-.1-.05-.548.182-.633.115a1.716,1.716,0,0,1-.028-2.639c.063-.051.49.119.49.119l-.074-.38a1.706,1.706,0,0,1,.689-.144,1.727,1.727,0,0,1,.623.114c.058.023-.215.509-.158.539s.432-.4.479-.371a1.662,1.662,0,0,1,.378.342c.062.072-.189.223-.144.3.059.1.41.131.447.239a1.715,1.715,0,0,1,.088.547Z" transform="translate(80.543 442.651)" fill="#7b6d58"/>
    <path id="Caminho_24514" data-name="Caminho 24514" d="M19.585,106.3a1.078,1.078,0,0,1,1.526,0,1.092,1.092,0,0,1,.169.221c.042.074-.218.121-.194.2s.327.161.334.227a1.094,1.094,0,0,1-.31.88,1.082,1.082,0,0,1-.851.31c-.053,0-.167-.271-.167-.271l-.138.2a1.114,1.114,0,0,1-.37-.24,1.048,1.048,0,0,1-.226-.331c-.015-.036.322-.132.31-.168s-.37-.015-.379-.053a.958.958,0,0,1-.015-.318c0-.06.183-.015.2-.07.018-.07-.124-.239-.091-.306a1.03,1.03,0,0,1,.2-.282Z" transform="translate(81.053 443.159)" fill="#9b896e"/>
    <path id="Caminho_24515" data-name="Caminho 24515" d="M21.31,105.2l6.292,1.69L17,108.929A3.7,3.7,0,0,1,21.31,105.2Z" transform="translate(71.565 439.77)" fill="#f0d0a2"/>
    <path id="Caminho_24516" data-name="Caminho 24516" d="M20.429,105.474l4.308.817-7.686,1.461c.172-2.632,3.378-2.279,3.378-2.279Z" transform="translate(71.78 440.949)" fill="#bca583"/>
    <path id="Caminho_24517" data-name="Caminho 24517" d="M21.176,106.423a32.554,32.554,0,0,0-3.6-1.135S20.2,106.5,21.176,106.423Z" transform="translate(73.99 440.238)" fill="#bca583"/>
    <path id="Caminho_24518" data-name="Caminho 24518" d="M20.552,105.528l6.075.163-9.057,3.566c.153-4.306,2.981-3.729,2.981-3.729Z" transform="translate(73.954 441.133)" fill="#d6bb93"/>
    <path id="Caminho_24519" data-name="Caminho 24519" d="M19.944,106.665l4.911-1.088-7.248,3.367C17.727,106.312,19.944,106.665,19.944,106.665Z" transform="translate(74.101 441.448)" fill="#9b896e"/>
    <path id="Caminho_24520" data-name="Caminho 24520" d="M23.707,105.568A46.111,46.111,0,0,0,17.88,106,45.934,45.934,0,0,0,23.707,105.568Z" transform="translate(75.248 441.257)" fill="#9b896e"/>
    <path id="Caminho_24521" data-name="Caminho 24521" d="M18.6,106.893l5.639-1.275-4.564,4.318S17.506,108.148,18.6,106.893Z" transform="translate(76.98 441.622)" fill="#9b896e"/>
    <path id="Caminho_24522" data-name="Caminho 24522" d="M18.023,107.578a1.716,1.716,0,0,0,2.155,1.654c.128-.034-.112-.378,0-.439.1-.05.547.182.63.115a1.711,1.711,0,0,0,.03-2.639c-.063-.051-.49.119-.49.119l.074-.38a1.706,1.706,0,0,0-.689-.144,1.727,1.727,0,0,0-.623.114c-.058.023.214.509.158.539s-.432-.4-.48-.371a1.782,1.782,0,0,0-.38.342c-.059.072.192.223.147.3-.057.1-.411.131-.446.239a1.682,1.682,0,0,0-.089.547Z" transform="translate(75.847 442.651)" fill="#7b6d58"/>
    <path id="Caminho_24523" data-name="Caminho 24523" d="M19.987,106.3a1.078,1.078,0,0,0-1.526,0,1.129,1.129,0,0,0-.171.221c-.041.074.217.121.2.2s-.326.161-.334.227a1.075,1.075,0,0,0,1.16,1.19c.052,0,.169-.271.169-.271l.135.2a1.117,1.117,0,0,0,.371-.24,1.073,1.073,0,0,0,.225-.331c.016-.036-.321-.132-.31-.168s.373-.015.38-.053a1.141,1.141,0,0,0,.015-.318c0-.06-.183-.015-.2-.07-.019-.07.124-.239.092-.306a1.047,1.047,0,0,0-.2-.282Z" transform="translate(76.358 443.159)" fill="#9b896e"/>
    <path id="Caminho_24524" data-name="Caminho 24524" d="M25.832,104.563l-5.949,1.154,10.436,2.73A3.852,3.852,0,0,0,25.832,104.563Z" transform="translate(83.625 437.095)" fill="#f0d0a2"/>
    <path id="Caminho_24525" data-name="Caminho 24525" d="M24.294,104.847l-3.878.246,7.4,2.128C27.632,104.48,24.294,104.847,24.294,104.847Z" transform="translate(85.855 438.324)" fill="#bca583"/>
    <path id="Caminho_24526" data-name="Caminho 24526" d="M20.711,105.228c-.392-.032,3.143-.575,3.143-.575A12.447,12.447,0,0,1,20.711,105.228Z" transform="translate(86.963 437.583)" fill="#bca583"/>
    <path id="Caminho_24527" data-name="Caminho 24527" d="M25.927,104.765l-6.328.168,8.825,4.321c-.159-4.484-2.5-4.489-2.5-4.489Z" transform="translate(82.438 438.05)" fill="#d6bb93"/>
    <path id="Caminho_24528" data-name="Caminho 24528" d="M24.432,106.577l-4.507-1.74,6.94,4.111C26.741,106.209,24.432,106.577,24.432,106.577Z" transform="translate(83.804 438.353)" fill="#9b896e"/>
    <path id="Caminho_24529" data-name="Caminho 24529" d="M19.925,104.814c.731-.2,5.465,1.065,5.465,1.065S20.89,105.143,19.925,104.814Z" transform="translate(83.804 438.168)" fill="#9b896e"/>
    <path id="Caminho_24530" data-name="Caminho 24530" d="M24.219,106.206l-4.749-1.326,3.629,4.5S25.36,107.515,24.219,106.206Z" transform="translate(81.899 438.535)" fill="#9b896e"/>
    <path id="Caminho_24531" data-name="Caminho 24531" d="M23.611,106.921a1.784,1.784,0,0,1-1.786,1.783,1.825,1.825,0,0,1-.458-.059c-.135-.036.116-.395,0-.458-.1-.053-.57.191-.657.121a1.781,1.781,0,0,1-.03-2.749c.064-.055.511.123.511.123l-.079-.394a1.781,1.781,0,0,1,.718-.15,1.818,1.818,0,0,1,.649.121c.06.024-.223.53-.164.56s.45-.419.5-.385a1.729,1.729,0,0,1,.4.356c.061.075-.2.232-.151.315.062.1.427.135.465.252a1.779,1.779,0,0,1,.092.567Z" transform="translate(84.292 439.605)" fill="#7b6d58"/>
    <path id="Caminho_24532" data-name="Caminho 24532" d="M20.5,105.592a1.126,1.126,0,0,1,1.589,0,1.1,1.1,0,0,1,.177.233c.044.075-.227.125-.2.206s.338.168.344.24A1.116,1.116,0,0,1,21.2,107.5c-.053,0-.173-.282-.173-.282l-.14.21a1.146,1.146,0,0,1-.389-.25,1.16,1.16,0,0,1-.235-.342c-.016-.04.336-.137.324-.178s-.387-.014-.4-.051a1.284,1.284,0,0,1-.017-.335c.008-.06.194-.013.21-.073s-.131-.25-.1-.32a1.179,1.179,0,0,1,.211-.293Z" transform="translate(84.827 440.138)" fill="#9b896e"/>
    <path id="Caminho_24533" data-name="Caminho 24533" d="M21.9,106.5l-1.385-1.621-1.382,3.11S23.042,107.808,21.9,106.5Z" transform="translate(80.488 438.536)" fill="#9b896e"/>
    <path id="Caminho_24534" data-name="Caminho 24534" d="M22.7,106.921a1.786,1.786,0,0,1-1.786,1.783,1.842,1.842,0,0,1-.461-.059c-.132-.036.116-.395,0-.458-.1-.053-.569.191-.657.121a1.784,1.784,0,0,1-.03-2.749c.063-.055.513.123.513.123l-.077-.394a1.759,1.759,0,0,1,.716-.15,1.823,1.823,0,0,1,.648.121c.062.024-.222.53-.163.56s.45-.419.5-.385a1.791,1.791,0,0,1,.4.356c.061.075-.2.232-.151.315.059.1.423.135.465.252a1.8,1.8,0,0,1,.092.567Z" transform="translate(80.488 439.605)" fill="#7b6d58"/>
    <path id="Caminho_24535" data-name="Caminho 24535" d="M19.588,105.592a1.126,1.126,0,0,1,1.589,0,1.138,1.138,0,0,1,.179.233c.044.075-.227.125-.2.206s.335.168.344.24a1.119,1.119,0,0,1-1.209,1.234c-.055,0-.173-.282-.173-.282l-.142.21a1.183,1.183,0,0,1-.388-.25,1.138,1.138,0,0,1-.233-.342c-.016-.04.334-.137.322-.178s-.388-.014-.395-.051a1.141,1.141,0,0,1-.018-.335c.007-.06.192-.013.207-.073s-.126-.25-.094-.32a1.141,1.141,0,0,1,.21-.293Z" transform="translate(81.021 440.138)" fill="#9b896e"/>
    <path id="Caminho_24536" data-name="Caminho 24536" d="M21.548,104.562l5.723,1.158-10.213,2.723A3.853,3.853,0,0,1,21.548,104.562Z" transform="translate(71.808 437.091)" fill="#f0d0a2"/>
    <path id="Caminho_24537" data-name="Caminho 24537" d="M20.631,104.846l3.657.25-7.177,2.121C17.29,104.481,20.631,104.846,20.631,104.846Z" transform="translate(72.031 438.321)" fill="#bca583"/>
    <path id="Caminho_24538" data-name="Caminho 24538" d="M21.41,105.832a35.014,35.014,0,0,0-3.749-1.179S20.4,105.913,21.41,105.832Z" transform="translate(74.332 437.581)" fill="#bca583"/>
    <path id="Caminho_24539" data-name="Caminho 24539" d="M20.755,105.232l5.5-.435-8.6,4.318c.157-4.486,3.1-3.884,3.1-3.884Z" transform="translate(74.295 438.185)" fill="#d6bb93"/>
    <path id="Caminho_24540" data-name="Caminho 24540" d="M20.122,106.575l4.284-1.738-6.717,4.108C17.814,106.206,20.122,106.575,20.122,106.575Z" transform="translate(74.451 438.355)" fill="#9b896e"/>
    <path id="Caminho_24541" data-name="Caminho 24541" d="M23.214,104.814c-.732-.2-5.24,1.061-5.24,1.061S22.249,105.143,23.214,104.814Z" transform="translate(75.643 438.168)" fill="#9b896e"/>
    <path id="Caminho_24542" data-name="Caminho 24542" d="M18.877,106.206l4.271-1.326L20,109.378S17.735,107.515,18.877,106.206Z" transform="translate(78.073 438.535)" fill="#9b896e"/>
    <path id="Caminho_24543" data-name="Caminho 24543" d="M18.273,106.921a1.784,1.784,0,0,0,1.783,1.783,1.816,1.816,0,0,0,.46-.059c.133-.036-.115-.395.007-.458.1-.053.567.191.657.121a1.787,1.787,0,0,0,.028-2.749c-.065-.055-.51.123-.51.123l.076-.394a1.757,1.757,0,0,0-.718-.15,1.84,1.84,0,0,0-.649.121c-.06.024.223.53.166.56s-.449-.419-.5-.385a1.709,1.709,0,0,0-.395.356c-.062.075.2.232.15.315-.06.1-.427.135-.464.252a1.734,1.734,0,0,0-.091.567Z" transform="translate(76.893 439.605)" fill="#7b6d58"/>
    <path id="Caminho_24544" data-name="Caminho 24544" d="M20.318,105.592a1.117,1.117,0,0,0-1.765.233c-.044.075.224.125.2.206s-.339.168-.349.24a1.119,1.119,0,0,0,1.211,1.234c.052,0,.173-.282.173-.282l.141.21a1.16,1.16,0,0,0,.386-.25,1.125,1.125,0,0,0,.234-.342c.017-.04-.334-.137-.324-.178s.389-.014.4-.051a1.075,1.075,0,0,0,.017-.335c0-.06-.189-.013-.2-.073s.128-.25.094-.32a1.152,1.152,0,0,0-.212-.293Z" transform="translate(77.426 440.138)" fill="#9b896e"/>
    <path id="Caminho_24545" data-name="Caminho 24545" d="M26.436,103.872l-6.554,1.761,11.042,2.123A3.852,3.852,0,0,0,26.436,103.872Z" transform="translate(83.625 434.202)" fill="#f0d0a2"/>
    <path id="Caminho_24546" data-name="Caminho 24546" d="M24.9,104.154l-4.482.853,8,1.52c-.176-2.74-3.52-2.373-3.52-2.373Z" transform="translate(85.855 435.428)" fill="#bca583"/>
    <path id="Caminho_24547" data-name="Caminho 24547" d="M20.707,105.142a35.175,35.175,0,0,1,3.748-1.181S21.722,105.225,20.707,105.142Z" transform="translate(86.966 434.687)" fill="#bca583"/>
    <path id="Caminho_24548" data-name="Caminho 24548" d="M25.927,104.211l-6.328.167,9.432,3.714C28.871,103.608,25.927,104.211,25.927,104.211Z" transform="translate(82.438 435.622)" fill="#d6bb93"/>
    <path id="Caminho_24549" data-name="Caminho 24549" d="M25.039,105.395l-5.114-1.133,7.547,3.5C27.348,105.028,25.039,105.395,25.039,105.395Z" transform="translate(83.804 435.947)" fill="#9b896e"/>
    <path id="Caminho_24550" data-name="Caminho 24550" d="M19.925,104.252a48.285,48.285,0,0,1,6.067.458A47.672,47.672,0,0,1,19.925,104.252Z" transform="translate(83.804 435.749)" fill="#9b896e"/>
    <path id="Caminho_24551" data-name="Caminho 24551" d="M25.345,105.631l-5.875-1.326,4.754,4.495S26.484,106.938,25.345,105.631Z" transform="translate(81.899 436.129)" fill="#9b896e"/>
    <path id="Caminho_24552" data-name="Caminho 24552" d="M23.827,106.345a1.784,1.784,0,0,1-1.783,1.784,1.734,1.734,0,0,1-.463-.062c-.133-.034.116-.392,0-.456-.1-.055-.57.191-.655.119a1.782,1.782,0,0,1-.033-2.747c.066-.055.513.123.513.123l-.079-.395a1.8,1.8,0,0,1,1.366-.03c.062.024-.222.531-.164.56s.45-.42.5-.386a1.777,1.777,0,0,1,.394.356c.062.074-.2.229-.15.314.059.1.425.136.463.253a1.731,1.731,0,0,1,.094.566Z" transform="translate(85.2 437.199)" fill="#7b6d58"/>
    <path id="Caminho_24553" data-name="Caminho 24553" d="M20.717,105.018a1.12,1.12,0,0,1,1.585,0,1.147,1.147,0,0,1,.179.231c.043.074-.226.123-.2.206s.339.167.347.237a1.121,1.121,0,0,1-.323.912,1.107,1.107,0,0,1-.886.324c-.054,0-.172-.282-.172-.282l-.145.21a1.121,1.121,0,0,1-.383-.253,1.167,1.167,0,0,1-.237-.341c-.017-.038.336-.138.324-.176s-.389-.012-.4-.051a1.1,1.1,0,0,1-.015-.333c0-.061.192-.017.2-.075.02-.074-.128-.25-.094-.317a1.059,1.059,0,0,1,.212-.293Z" transform="translate(85.733 437.735)" fill="#9b896e"/>
    <path id="Caminho_24554" data-name="Caminho 24554" d="M21.9,105.926l-1.385-1.62-1.382,3.109S23.042,107.232,21.9,105.926Z" transform="translate(80.488 436.13)" fill="#9b896e"/>
    <path id="Caminho_24555" data-name="Caminho 24555" d="M22.7,106.345a1.787,1.787,0,0,1-1.786,1.784,1.721,1.721,0,0,1-.461-.062c-.132-.034.116-.392,0-.456-.1-.055-.569.191-.657.119a1.782,1.782,0,0,1-.03-2.747c.063-.055.513.123.513.123l-.077-.395a1.793,1.793,0,0,1,1.364-.03c.062.024-.222.531-.163.56s.45-.42.5-.386a1.782,1.782,0,0,1,.4.356c.061.074-.2.229-.151.314.059.1.423.136.465.253A1.81,1.81,0,0,1,22.7,106.345Z" transform="translate(80.488 437.199)" fill="#7b6d58"/>
    <path id="Caminho_24556" data-name="Caminho 24556" d="M19.588,105.018a1.124,1.124,0,0,1,1.589,0,1.088,1.088,0,0,1,.179.231c.044.074-.227.123-.2.206s.335.167.344.237a1.123,1.123,0,0,1-.323.912,1.109,1.109,0,0,1-.886.324c-.055,0-.173-.282-.173-.282l-.142.21a1.152,1.152,0,0,1-.388-.253,1.14,1.14,0,0,1-.233-.341c-.016-.038.334-.138.322-.176s-.388-.012-.395-.051a1.138,1.138,0,0,1-.018-.333c.007-.061.192-.017.207-.075.02-.074-.126-.25-.094-.317a1.091,1.091,0,0,1,.21-.293Z" transform="translate(81.021 437.735)" fill="#9b896e"/>
    <path id="Caminho_24557" data-name="Caminho 24557" d="M21.384,103.872l6.556,1.761L16.9,107.755A3.851,3.851,0,0,1,21.384,103.872Z" transform="translate(71.139 434.202)" fill="#f0d0a2"/>
    <path id="Caminho_24558" data-name="Caminho 24558" d="M20.472,104.154l4.484.853-8,1.52c.178-2.74,3.52-2.373,3.52-2.373Z" transform="translate(71.363 435.428)" fill="#bca583"/>
    <path id="Caminho_24559" data-name="Caminho 24559" d="M21.251,105.142a35.074,35.074,0,0,0-3.75-1.181S20.236,105.225,21.251,105.142Z" transform="translate(73.663 434.687)" fill="#bca583"/>
    <path id="Caminho_24560" data-name="Caminho 24560" d="M20.594,104.211l6.331.167-9.432,3.714C17.652,103.608,20.594,104.211,20.594,104.211Z" transform="translate(73.628 435.622)" fill="#d6bb93"/>
    <path id="Caminho_24561" data-name="Caminho 24561" d="M19.961,105.395l5.114-1.133-7.545,3.5C17.652,105.028,19.961,105.395,19.961,105.395Z" transform="translate(73.782 435.947)" fill="#9b896e"/>
    <path id="Caminho_24562" data-name="Caminho 24562" d="M23.882,104.252a48.286,48.286,0,0,0-6.068.458A47.683,47.683,0,0,0,23.882,104.252Z" transform="translate(74.975 435.749)" fill="#9b896e"/>
    <path id="Caminho_24563" data-name="Caminho 24563" d="M18.567,105.631l5.875-1.326L19.688,108.8S17.427,106.938,18.567,105.631Z" transform="translate(76.779 436.129)" fill="#9b896e"/>
    <path id="Caminho_24564" data-name="Caminho 24564" d="M17.963,106.345a1.786,1.786,0,0,0,1.786,1.784,1.7,1.7,0,0,0,.46-.062c.136-.034-.115-.392,0-.456.1-.055.572.191.657.119a1.782,1.782,0,0,0,.03-2.747c-.063-.055-.511.123-.511.123l.076-.395a1.769,1.769,0,0,0-.717-.15,1.79,1.79,0,0,0-.649.12c-.058.024.226.531.167.56s-.452-.42-.5-.386a1.783,1.783,0,0,0-.4.356c-.061.074.2.229.151.314-.059.1-.426.136-.464.253a1.753,1.753,0,0,0-.093.566Z" transform="translate(75.597 437.199)" fill="#7b6d58"/>
    <path id="Caminho_24565" data-name="Caminho 24565" d="M20.008,105.018a1.123,1.123,0,0,0-1.588,0,1.149,1.149,0,0,0-.177.231c-.044.074.227.123.2.206s-.34.167-.349.237a1.132,1.132,0,0,0,.324.912,1.11,1.11,0,0,0,.885.324c.055,0,.175-.282.175-.282l.141.21a1.127,1.127,0,0,0,.62-.594c.016-.038-.334-.138-.321-.176s.385-.012.393-.051a1.166,1.166,0,0,0,.018-.333c-.007-.061-.193-.017-.208-.075-.02-.074.131-.25.1-.317a1.092,1.092,0,0,0-.212-.293Z" transform="translate(76.131 437.735)" fill="#9b896e"/>
    <path id="Caminho_24566" data-name="Caminho 24566" d="M54.909,33.326c-11.23-4.538-18.9,19.123-18.9,19.123s29.158-13.921,18.9-19.123Z" transform="translate(151.105 136.773)" fill="#6a3b82"/>
    <path id="Caminho_24567" data-name="Caminho 24567" d="M50.372,33.766c-5.92-2.391-14.359,15.346-14.359,15.346S55.781,36.51,50.372,33.766Z" transform="translate(151.105 140.109)" fill="#6a3b82"/>
    <path id="Caminho_24568" data-name="Caminho 24568" d="M33.346,33.326c11.232-4.538,18.9,19.123,18.9,19.123S23.09,38.527,33.346,33.326Z" transform="translate(130.802 136.773)" fill="#6a3b82"/>
    <path id="Caminho_24569" data-name="Caminho 24569" d="M33.214,33.766c5.92-2.391,14.36,15.346,14.36,15.346S27.8,36.51,33.214,33.766Z" transform="translate(135.474 140.109)" fill="#6a3b82"/>
    <path id="Caminho_24570" data-name="Caminho 24570" d="M46.107,41.135a5.885,5.885,0,1,1-5.884-5.888A5.887,5.887,0,0,1,46.107,41.135Z" transform="translate(144.09 147.231)" fill="#6a3b82"/>
    <path id="Caminho_24571" data-name="Caminho 24571" d="M30.076,79.94c.712.182-9.853-59.356,32.53-40.295C40.248,51.222,30.788,80.122,30.788,80.122l-.712-.182Z" transform="translate(123.438 149.883)" fill="#6a3b82"/>
    <path id="Caminho_24572" data-name="Caminho 24572" d="M65.753,79.94c-.715.182,12.08-59.356-30.3-40.295C57.811,51.222,65.038,80.122,65.038,80.122l.715-.182Z" transform="translate(148.757 149.883)" fill="#6a3b82"/>
    <path id="Caminho_24573" data-name="Caminho 24573" d="M38.826,44.381S43.88,77.36,27.75,81.34c2.671,3.239,22,12.159,40.026,1.72L38.826,44.381Z" transform="translate(116.537 185.442)" fill="#332a28"/>
    <path id="Caminho_24574" data-name="Caminho 24574" d="M63.868,44.381S58.816,77.36,74.945,81.34c-2.671,3.239-22,12.159-40.022,1.72L63.868,44.381Z" transform="translate(146.545 185.442)" fill="#332a28"/>
    <path id="Caminho_24575" data-name="Caminho 24575" d="M45.259,104.4,26.6,108.362v4.458h27.93V104.4Z" transform="translate(111.73 436.511)" fill="#d3d0d0"/>
    <path id="Caminho_24576" data-name="Caminho 24576" d="M28.242,79.386,33.2,140.071l5.2,68.31s4.154,5.614,9.354,0L53.7,167.756l-2.229-27.685L64.407,79.386H28.242Z" transform="translate(118.594 331.882)" fill="#2d8a95"/>
    <path id="Caminho_24577" data-name="Caminho 24577" d="M32.108,133.217l5.377-36.738.034.417L32.2,133.213l-.1,0Z" transform="translate(134.77 403.388)" fill="#ba83a6"/>
    <path id="Caminho_24578" data-name="Caminho 24578" d="M32.444,107.94v-.068H31.88c.214-.2.428-.412.646-.645l.535-3.657.1,0-.63,4.306Z" transform="translate(133.817 433.036)" fill="#926782"/>
    <path id="Caminho_24579" data-name="Caminho 24579" d="M31.255,106.715l-.029-.522a6.456,6.456,0,0,0,3.392-1.8h.564v.068C34.723,104.828,32.479,106.563,31.255,106.715Z" transform="translate(131.079 436.513)" fill="#b1b0b0"/>
    <path id="Caminho_24580" data-name="Caminho 24580" d="M34.563,162.265,30.428,91.912l.1-.919c3.581.441,7.552.815,11.817,1.031l-.03.133,2.2,27.27-5.377,36.738-.535,3.657c-.218.233-.433.449-.646.645A6.456,6.456,0,0,1,34.563,162.265Z" transform="translate(127.743 380.439)" fill="#2c767f"/>
    <path id="Caminho_24581" data-name="Caminho 24581" d="M46.215,104.4H39.725l-4.707,3.966v4.458H51.124v-4.458Z" transform="translate(146.942 436.511)" fill="#d3d0d0"/>
    <path id="Caminho_24582" data-name="Caminho 24582" d="M64.457,79.511l-1.735,60.557L54.3,208.5s-4.3,3.485-6.527-.289l-5.945-40.627L44.054,139.9l-10.9-60.39Z" transform="translate(139.148 332.405)" fill="#2d8a95"/>
    <path id="Caminho_24583" data-name="Caminho 24583" d="M47.842,106.328H35.368c0-.768,3.881-1.394,8.671-1.394s3.8.625,3.8,1.394Z" transform="translate(148.408 438.762)" fill="#b1b0b0"/>
    <path id="Caminho_24584" data-name="Caminho 24584" d="M46.708,61.068l5.326-2.63L46.2,59.569a5.982,5.982,0,0,0,.5,1.5l5.326-2.63L46.2,59.569l5.826-1.128H46.095a5.96,5.96,0,0,0,.108,1.128l5.826-1.128h-.011L46.26,57.052a5.867,5.867,0,0,0-.165,1.389h5.924L46.26,57.052l5.73,1.38-5.5-2.115a6.017,6.017,0,0,0-.229.735l5.73,1.38-5.5-2.115L51.9,58.4,46.81,55.62a5.623,5.623,0,0,0-.322.7L51.9,58.4,46.81,55.62l4.856,2.65-4.679-2.951c-.043.068-.1.159-.177.3l4.856,2.65-4.679-2.951L50.922,57.8l-3.786-2.7c-.023.032-.062.087-.148.221L50.922,57.8l-3.787-2.7,2.046,1.458L47.156,55.07l-.021.029,2.046,1.458L47.156,55.07l.816.6-.814-.6v0l.816.6-.814-.6h0c-.007.013-.053.071-.118.156-.128.168-.327.424-.568.748-.454.609-1.06,1.454-1.765,2.526a71.193,71.193,0,0,0-4.428,7.883,115.68,115.68,0,0,0-7.61,21.066A195.174,195.174,0,0,0,27.11,121.4l-.009.112-2.154,49.546,11.879.516,2.149-49.432-5.939-.258,5.925.483a189,189,0,0,1,4.453-28.906c2.831-11.731,6.245-19.569,8.867-24.436a49.917,49.917,0,0,1,3.19-5.21c.191-.272.363-.5.513-.706.112-.152.214-.285.305-.408.07-.087.134-.172.2-.253.047-.062.093-.12.142-.187.038-.049.078-.1.125-.165.034-.049.074-.1.123-.175.038-.052.08-.113.134-.2.04-.062.087-.136.142-.233.042-.071.091-.155.148-.266a5.8,5.8,0,0,0,.331-.748,6.2,6.2,0,0,0,.212-.735l-5.8-1.293h0L56.3,62.593l-3.75-3.657,3.733,3.673.017-.017-3.75-3.657,3.733,3.673a5.932,5.932,0,0,0,1.6-5.3,5.993,5.993,0,0,0-.5-1.5L46.708,61.068Z" transform="translate(104.807 230.142)" fill="#d5845e"/>
    <path id="Caminho_24585" data-name="Caminho 24585" d="M25.327,103.486C26.318,64.347,56.6,52.331,56.6,52.331L62.731,80.7C49.1,85.156,46.383,103.486,46.383,103.486Z" transform="translate(106.402 218.698)" fill="#d2d3d5"/>
    <path id="Caminho_24586" data-name="Caminho 24586" d="M101.812,70.379S76.9,105.74,89.609,158.342c-17.237,14.186-61.368-36.626-61.368-67.818S44.674,54.855,52.433,52.212H92.884c6.277,2.2,8.928,9.011,8.928,18.167Z" transform="translate(118.594 218.201)" fill="#d3d0d0"/>
    <path id="Caminho_24587" data-name="Caminho 24587" d="M31.458,52.78Z" transform="translate(132.05 220.577)" fill="#d2d3d5"/>
    <path id="Caminho_24588" data-name="Caminho 24588" d="M31.579,55.156h0l-.146-.673a24.808,24.808,0,0,1,3.5-2.271H39.1a54.507,54.507,0,0,0-7.517,2.944Z" transform="translate(131.932 218.201)" fill="#2f2826"/>
    <path id="Caminho_24589" data-name="Caminho 24589" d="M30.955,54.81a26.416,26.416,0,0,1,2.46-2.16l.146.673h0C32.7,53.761,31.829,54.25,30.955,54.81Z" transform="translate(129.946 220.034)" fill="#b1b3b5"/>
    <path id="Caminho_24590" data-name="Caminho 24590" d="M28.954,81.1c.616-9.091,4.187-18.328,10.373-24.456.874-.56,1.748-1.049,2.607-1.487h0a54.509,54.509,0,0,1,7.517-2.944H51.6C40.512,56.351,38.294,64.2,37.212,78.6a28.343,28.343,0,0,0-8.258,2.5Z" transform="translate(121.575 218.201)" fill="#b1b0b0"/>
    <path id="Caminho_24591" data-name="Caminho 24591" d="M39.885,88.723l-.068-.09c.1-1.54.233-3.109.386-4.715a17.852,17.852,0,0,0-3.867-2.242c.643-11.881,6.353-24.131,16.371-29.465H59.02C46.635,56.837,45.436,69.275,39.885,88.723Z" transform="translate(152.458 218.201)" fill="#b1b0b0"/>
    <path id="Caminho_24592" data-name="Caminho 24592" d="M99.057,176.672c-6.022,32.645-3.79,53.89-3.79,53.89-35.129,7.976-68.5-1.68-68.5-1.68l9.6-108.244L34.414,63.166c7.314-8.817,36.849-7.121,45.826,0-4.97,51.985,16.265,69.466,16.265,69.466S105.077,156.322,99.057,176.672Z" transform="translate(112.421 238.952)" fill="#6a3b82"/>
    <path id="Caminho_24593" data-name="Caminho 24593" d="M29.612,63.144c1.2,0,4.676,17.656,4.676,38.736s-3.934,38.171-5.131,38.171.8-17.09.8-38.171-1.54-38.736-.342-38.736Z" transform="translate(120.821 263.933)" fill="#3f294d"/>
    <path id="Caminho_24594" data-name="Caminho 24594" d="M44.674,52.212C34.022,57.883,28.242,71.367,28.242,83.919h8.01c1.241-20.066,6.771-27.082,19.156-31.707Z" transform="translate(118.594 218.201)" fill="#6a3b82"/>
    <path id="Caminho_24595" data-name="Caminho 24595" d="M51.9,52.212c-14.935,4.625-16.43,19.155-16.43,31.707h8.349c-.5-18.661,5.163-26.149,18.817-31.707Z" transform="translate(148.841 218.201)" fill="#6a3b82"/>
    <path id="Caminho_24596" data-name="Caminho 24596" d="M29.419,70.032c0-7.9,3.606-9.141,8.919-9.141C33.025,60.892,29.419,62.132,29.419,70.032Zm17.1-8.883c-1.877,0-3.684-.1-5.373-.18C42.832,61.045,44.639,61.15,46.516,61.15Zm5.373-.18c.974-.043,1.909-.078,2.8-.078C53.8,60.891,52.863,60.926,51.889,60.969Zm2.8-.078h0Zm-16.348,0h0Z" transform="translate(123.521 254.51)" fill="#33445a"/>
    <path id="Caminho_24597" data-name="Caminho 24597" d="M70.647,60.935c.059.114.085.162.108.2.041.075.056.1.07.127.023.042.034.059.046.081.024.039.047.08.081.136.125.217.384.671.755,1.386a83.5,83.5,0,0,1,6.206,16.92,140.269,140.269,0,0,1,4.277,35.593c0,4.6-.187,9.485-.609,14.664l5.924.486-.621-5.914-52.463,5.523,1.245,11.826,57.363-6.039.4-4.913c.448-5.5.649-10.714.649-15.633,0-19.414-3.125-34.262-6.328-44.355a92.97,92.97,0,0,0-4.471-11.562c-.626-1.328-1.161-2.354-1.553-3.073-.2-.36-.358-.645-.475-.842-.057-.1-.1-.181-.134-.23l-.015-.026L81.1,55.28l-3.207,1.885,3.226-1.853c-.015-.026-.017-.032-.019-.032l-3.207,1.885,3.226-1.853L76.4,58.023l4.76-2.643c-.019-.036-.03-.055-.038-.068L76.4,58.023l4.76-2.643-5.036,2.8L81.2,55.452a.517.517,0,0,0-.038-.071l-5.036,2.8L81.2,55.452l-5.152,2.766,5.182-2.711c-.011-.023-.021-.039-.03-.055l-5.152,2.766,5.182-2.711L81,55.115l0-.007L70.916,61.414l5.042-3.151Z" transform="translate(144.448 230.317)" fill="#d5845e"/>
    <path id="Caminho_24598" data-name="Caminho 24598" d="M33.072,68.18s12.244-1.551,12.055,6.305-7.554,1.71-7.554,1.71Z" transform="translate(138.804 284.484)" fill="#fdc043"/>
    <path id="Caminho_24599" data-name="Caminho 24599" d="M40.967,74.176c-.059-.7,1.727-3.033,1.727-3.033a16.678,16.678,0,0,0-9.621-3.06C36.729,69.389,39.794,73.206,40.967,74.176Z" transform="translate(138.804 284.581)" fill="#b48c37"/>
    <path id="Caminho_24600" data-name="Caminho 24600" d="M55.327,89.17,34.556,87.122V71.407l20.771-2.736Z" transform="translate(145.011 287.054)" fill="#fdc043"/>
    <path id="Caminho_24601" data-name="Caminho 24601" d="M48.257,74.394S46.227,67.8,38.2,67.959s-7.85,18.235-5.517,20.959,7.636,5.8,15.576,1.192S48.257,74.394,48.257,74.394Z" transform="translate(131.311 284.066)" fill="#fdc043"/>
    <path id="Caminho_24602" data-name="Caminho 24602" d="M77.209,103.486c-.99-39.139-31.275-51.156-31.275-51.156L39.807,80.7c13.633,4.459,16.348,22.789,16.348,22.789Z" transform="translate(166.976 218.698)" fill="#d2d3d5"/>
    <path id="Caminho_24603" data-name="Caminho 24603" d="M46.9,52.212C48.1,52.205,33.126,60.675,33.192,75l-2.386,26.586c-2.522.011-2.157,2.135-2.288-25.359C28.45,61.9,45.705,52.219,46.9,52.212Z" transform="translate(119.748 218.201)" fill="#6a3b82"/>
    <path id="Caminho_24604" data-name="Caminho 24604" d="M54.172,52.212c1.2-.007-13.779,8.463-13.711,22.789L38.075,93.4c-2.52.012-2.289-5.517-2.289-17.17C35.786,61.9,52.974,52.219,54.172,52.212Z" transform="translate(150.132 218.201)" fill="#6a3b82"/>
    <path id="Caminho_24605" data-name="Caminho 24605" d="M57.9,52.331c-5.568,4.554-3.394,6.792-16.427,6.792-9.751,0-10.756-2.238-5.19-6.792Z" transform="translate(138.089 218.698)" fill="#d5845e"/>
    <path id="Caminho_24606" data-name="Caminho 24606" d="M41.331,51.184c0,3.99-2.7,7.229-6.022,7.229s-6.02-3.239-6.02-7.229,2.694-7.223,6.02-7.223S41.331,47.193,41.331,51.184Z" transform="translate(122.977 183.683)" fill="#d5845e"/>
    <path id="Caminho_24607" data-name="Caminho 24607" d="M51.593,51.184c0,3.99-2.694,7.229-6.02,7.229s-6.022-3.239-6.022-7.229,2.7-7.223,6.022-7.223S51.593,47.193,51.593,51.184Z" transform="translate(165.906 183.683)" fill="#d5845e"/>
    <path id="Caminho_24608" data-name="Caminho 24608" d="M46.952,65.966l-12.84-.842H34.1c.032-.9.017-8.534-.009-15.255l12.88-.052C47.035,64.953,46.977,65.662,46.952,65.966Z" transform="translate(143.073 208.184)" fill="#d5845e"/>
    <path id="Caminho_24609" data-name="Caminho 24609" d="M42.05,56.212a7.847,7.847,0,0,1-7.783-5.079A16.592,16.592,0,0,0,40.51,52.39a16.4,16.4,0,0,0,5.634-1.024c-.229,2.461-.749,4.619-1.869,4.619A10.23,10.23,0,0,1,42.05,56.212Z" transform="translate(143.802 213.687)" fill="#b27151"/>
    <path id="Caminho_24610" data-name="Caminho 24610" d="M89.524,62.509c0,19.5-13.391,45.875-29.911,45.875S29.7,82.013,29.7,62.509,43.094,37.748,59.614,37.748,89.524,43,89.524,62.509Z" transform="translate(124.699 157.692)" fill="#d5845e"/>
    <path id="Caminho_24611" data-name="Caminho 24611" d="M39.567,41.654c2.448,8.777,7.019,12.923,3.286,28.25.053.586,5-11.4,6.319-28.25Z" transform="translate(165.974 174.035)" fill="#332a28"/>
    <path id="Caminho_24612" data-name="Caminho 24612" d="M35.6,91.979C35.5,93.093,4.352,32.329,84.749,36.6c-4.737,3.961,2.528,17.049,7.708,19.449,3.748,8.616-11.809,25.228-32.346-1.188,0,0-.685,12.052-23.893,17.441C34.259,76.853,35.521,83.934,35.6,91.979Z" transform="translate(124.201 151.982)" fill="#332a28"/>
    <path id="Caminho_24613" data-name="Caminho 24613" d="M33.9,48.805c0,3.521,3.657,6.374,8.166,6.374s8.162-2.853,8.162-6.374Z" transform="translate(142.25 203.95)" fill="#d3d0d0"/>
    <path id="Caminho_24614" data-name="Caminho 24614" d="M35.228,60.25l7.729-1.593-2.4-9.607.889-3.7.333,4.078,2.876,10.2Z" transform="translate(147.82 189.512)" fill="#b27151"/>
    <path id="Caminho_24615" data-name="Caminho 24615" d="M36.256,44.178,41.8,43.66s3.351,1.895,9.386,1.895C48.44,46.769,36.256,44.178,36.256,44.178Z" transform="translate(152.121 182.423)" fill="#332a28"/>
    <path id="Caminho_24616" data-name="Caminho 24616" d="M46.973,44.178l-5.545-.518s-3.351,1.895-9.386,1.895C34.789,46.769,46.973,44.178,46.973,44.178Z" transform="translate(134.495 182.423)" fill="#332a28"/>
    <path id="Caminho_24617" data-name="Caminho 24617" d="M40.175,49.128c0,2.517-.706,4.561-1.578,4.561s-1.576-2.044-1.576-4.561.7-4.567,1.576-4.567S40.175,46.605,40.175,49.128Z" transform="translate(155.322 186.195)" fill="#332a28"/>
    <path id="Caminho_24618" data-name="Caminho 24618" d="M36.479,49.128c0,2.517-.706,4.561-1.578,4.561s-1.578-2.044-1.578-4.561.709-4.567,1.578-4.567S36.479,46.605,36.479,49.128Z" transform="translate(139.851 186.195)" fill="#332a28"/>
    <path id="Caminho_24619" data-name="Caminho 24619" d="M37.373,44.573v2.676a2.59,2.59,0,0,0,2.393-2.134C39.231,45.914,37.373,44.573,37.373,44.573Z" transform="translate(156.793 186.245)" fill="#332a28"/>
    <path id="Caminho_24620" data-name="Caminho 24620" d="M33.666,44.573v2.676a2.587,2.587,0,0,0,2.391-2.134C35.524,45.914,33.666,44.573,33.666,44.573Z" transform="translate(141.288 186.245)" fill="#332a28"/>
    <path id="Caminho_24621" data-name="Caminho 24621" d="M36.31,89.07s1.49-10.918-6.329-11.705-.386,5.649-.386,5.649,2.606,9.06,4.858,9.36C35.4,92.5,36.31,89.07,36.31,89.07Z" transform="translate(110.901 323.146)" fill="#fdc043"/>
    <path id="Caminho_24622" data-name="Caminho 24622" d="M24.613,73.758l-.534,20.868L39.671,96.57l5.282-20.277Z" transform="translate(101.179 308.338)" fill="#fdc043"/>
    <path id="Caminho_24623" data-name="Caminho 24623" d="M42.132,82A58.786,58.786,0,0,1,42.6,98.57c-1.146,7.948-13.5,3.078-15.914.424s-5.7-11.639-.141-18.942S42.132,82,42.132,82Z" transform="translate(98.718 322.913)" fill="#fdc043"/>
    <path id="Caminho_24624" data-name="Caminho 24624" d="M95.352,108.095H25.309l-6.944,24.389h22.78l1.643-2.358,1.422,2.358h29.2l3.434-2.358-.13,2.358H102.3Z" transform="translate(77.277 451.981)" fill="#f0d0a2"/>
    <path id="Caminho_24625" data-name="Caminho 24625" d="M25.7,108.095l-6.944,24.389h1.362l6.946-24.389Z" transform="translate(78.91 451.981)" fill="#bca583"/>
    <path id="Caminho_24626" data-name="Caminho 24626" d="M26.355,108.095l-6.944,24.389h1.361l6.947-24.389Z" transform="translate(81.651 451.981)" fill="#bca583"/>
    <path id="Caminho_24627" data-name="Caminho 24627" d="M27.012,108.095l-6.947,24.389h1.364l6.944-24.389Z" transform="translate(84.389 451.981)" fill="#bca583"/>
    <path id="Caminho_24628" data-name="Caminho 24628" d="M27.664,108.095,20.72,132.484h1.364l6.944-24.389Z" transform="translate(87.13 451.981)" fill="#bca583"/>
    <path id="Caminho_24629" data-name="Caminho 24629" d="M28.32,108.095l-6.944,24.389h1.361l6.947-24.389Z" transform="translate(89.871 451.981)" fill="#bca583"/>
    <path id="Caminho_24630" data-name="Caminho 24630" d="M28.975,108.095l-6.944,24.389h1.362l6.946-24.389Z" transform="translate(92.611 451.981)" fill="#bca583"/>
    <path id="Caminho_24631" data-name="Caminho 24631" d="M29.631,108.095l-6.946,24.389h.386l1.643-2.358,6.279-22.031Z" transform="translate(95.351 451.981)" fill="#bca583"/>
    <path id="Caminho_24632" data-name="Caminho 24632" d="M30.284,108.095,23.34,132.484H24.7l6.944-24.389Z" transform="translate(98.091 451.981)" fill="#bca583"/>
    <path id="Caminho_24633" data-name="Caminho 24633" d="M33.846,108.095l6.943,24.389H39.425l-6.943-24.389Z" transform="translate(136.335 451.981)" fill="#bca583"/>
    <path id="Caminho_24634" data-name="Caminho 24634" d="M33.191,108.095l6.945,24.389H38.774l-6.947-24.389Z" transform="translate(133.594 451.981)" fill="#bca583"/>
    <path id="Caminho_24635" data-name="Caminho 24635" d="M32.534,108.095l6.944,24.389H38.117l-6.945-24.389Z" transform="translate(130.855 451.981)" fill="#bca583"/>
    <path id="Caminho_24636" data-name="Caminho 24636" d="M31.882,108.095l6.945,24.389H37.462l-6.945-24.389Z" transform="translate(128.114 451.981)" fill="#bca583"/>
    <path id="Caminho_24637" data-name="Caminho 24637" d="M31.226,108.095l6.945,24.389H36.806l-6.944-24.389Z" transform="translate(125.374 451.981)" fill="#bca583"/>
    <path id="Caminho_24638" data-name="Caminho 24638" d="M30.57,108.095l6.945,24.389H36.153l-6.946-24.389Z" transform="translate(122.633 451.981)" fill="#bca583"/>
    <path id="Caminho_24639" data-name="Caminho 24639" d="M29.915,108.095l6.946,24.389H35.6l-7.048-24.389Z" transform="translate(119.894 451.981)" fill="#bca583"/>
    <path id="Caminho_24640" data-name="Caminho 24640" d="M28.595,108.095l6.649,24.389H33.987l-6.755-24.389Z" transform="translate(114.372 451.981)" fill="#bca583"/>
    <path id="Caminho_24641" data-name="Caminho 24641" d="M28.276,108.095l5.39,24.389H32.409l-5.5-24.389Z" transform="translate(113.028 451.981)" fill="#bca583"/>
    <path id="Caminho_24642" data-name="Caminho 24642" d="M30.56,108.095l-6.648,24.389h1.257l6.755-24.389Z" transform="translate(100.484 451.981)" fill="#bca583"/>
    <path id="Caminho_24643" data-name="Caminho 24643" d="M30.061,108.095l-5.39,24.389H25.93l5.5-24.389Z" transform="translate(103.657 451.981)" fill="#bca583"/>
    <path id="Caminho_24644" data-name="Caminho 24644" d="M28.208,108.095l-2.641,24.389h1.257l2.748-24.389Z" transform="translate(107.406 451.981)" fill="#bca583"/>
    <path id="Caminho_24645" data-name="Caminho 24645" d="M27.985,108.095l2.643,24.389H29.368l-2.748-24.389Z" transform="translate(111.813 451.981)" fill="#bca583"/>
    <path id="Caminho_24646" data-name="Caminho 24646" d="M26.458,108.095l-.119,24.389H27.6l.223-24.389Z" transform="translate(110.638 451.981)" fill="#bca583"/>
    <path id="Caminho_24647" data-name="Caminho 24647" d="M29.258,108.095,35.77,130.95l-1.14.783L27.9,108.095Z" transform="translate(117.154 451.981)" fill="#bca583"/>
    <path id="Caminho_24648" data-name="Caminho 24648" d="M34.816,113.706l-.32-1.122A7.25,7.25,0,0,1,34.816,113.706Z" transform="translate(144.758 470.759)" fill="#865858"/>
    <path id="Caminho_24649" data-name="Caminho 24649" d="M61.321,132.481h0L61,131.359h0ZM61,131.359a18.066,18.066,0,0,0-4.3-6.512L51.929,108.1h2.448L61,131.359Zm-6.151-8.213a30.563,30.563,0,0,0-2.58-1.926L48.533,108.1h2.032l4.285,15.05Zm-4.238-2.968c-.749-.439-1.551-.876-2.405-1.3L45.137,108.1h2.032Zm-3.977-2.044c-.734-.329-1.5-.65-2.308-.961L41.743,108.1h2.032ZM42.8,116.608q-1.078-.378-2.242-.736L38.347,108.1h2.032l2.425,8.512Zm-3.729-1.17q-1.063-.3-2.2-.574L34.951,108.1h2.032Zm-3.655-.913q-1.054-.236-2.16-.448l-1.7-5.982h2.032Zm-3.572-.707q-1.054-.184-2.158-.35L28.16,108.1h2.034Z" transform="translate(118.252 451.984)" fill="#b38e5f"/>
    <path id="Caminho_24650" data-name="Caminho 24650" d="M38.615,124.846c-.549-.558-1.162-1.129-1.847-1.7L32.482,108.1h1.364l4.768,16.751Z" transform="translate(136.335 451.982)" fill="#90744f"/>
    <path id="Caminho_24651" data-name="Caminho 24651" d="M36.928,121.219c-.524-.35-1.075-.7-1.659-1.041L31.827,108.1h1.364Z" transform="translate(133.594 451.984)" fill="#90744f"/>
    <path id="Caminho_24652" data-name="Caminho 24652" d="M35.6,118.878q-.757-.379-1.572-.744L31.172,108.1h1.362Z" transform="translate(130.855 451.983)" fill="#90744f"/>
    <path id="Caminho_24653" data-name="Caminho 24653" d="M34.465,117.172c-.492-.191-1-.38-1.523-.565L30.517,108.1h1.364l2.583,9.077Z" transform="translate(128.114 451.983)" fill="#90744f"/>
    <path id="Caminho_24654" data-name="Caminho 24654" d="M33.44,115.872q-.728-.223-1.487-.434L29.862,108.1h1.364Z" transform="translate(125.374 451.983)" fill="#90744f"/>
    <path id="Caminho_24655" data-name="Caminho 24655" d="M32.5,114.864c-.478-.116-.963-.231-1.46-.339l-1.832-6.43H30.57Z" transform="translate(122.633 451.983)" fill="#90744f"/>
    <path id="Caminho_24656" data-name="Caminho 24656" d="M31.619,114.077c-.463-.089-.934-.176-1.412-.259L28.552,108.1h1.362l1.7,5.982Z" transform="translate(119.894 451.982)" fill="#90744f"/>
    <path id="Caminho_24657" data-name="Caminho 24657" d="M19.2,112.087l.778-2.73h0l-.778,2.73Z" transform="translate(80.751 457.261)" fill="#865858"/>
    <path id="Caminho_24658" data-name="Caminho 24658" d="M19.652,108.674h0l.139-.488h0Z" transform="translate(82.661 452.361)" fill="#2d3438"/>
    <path id="Caminho_24659" data-name="Caminho 24659" d="M19.346,111.294l.1-.342h0l-.1.342Zm.663-2.329.021-.072h0l-.02.072Z" transform="translate(81.379 455.322)" fill="#64513a"/>
    <path id="Caminho_24660" data-name="Caminho 24660" d="M19.365,110.895h0l.566-1.987h0Z" transform="translate(81.457 455.381)" fill="#7b6344"/>
    <path id="Caminho_24661" data-name="Caminho 24661" d="M19.68,108.5h0l.111-.39h0Z" transform="translate(82.774 452.047)" fill="#7b6344"/>
    <path id="Caminho_24662" data-name="Caminho 24662" d="M19.649,108.333l.015-.053h0l-.014.053Z" transform="translate(82.649 452.755)" fill="#7b6344"/>
    <path id="Caminho_24663" data-name="Caminho 24663" d="M19.477,111.418l.186-.652h0l-.185.652Zm.716-2.514h0l.175-.613h0Z" transform="translate(81.93 452.8)" fill="#64513a"/>
    <path id="Caminho_24664" data-name="Caminho 24664" d="M19.513,110.271l.53-1.863h0l-.53,1.863Z" transform="translate(82.08 453.294)" fill="#7b6344"/>
    <path id="Caminho_24665" data-name="Caminho 24665" d="M19.7,108.177l.023-.082Z" transform="translate(82.863 451.981)" fill="#64513a"/>
    <path id="Caminho_24666" data-name="Caminho 24666" d="M19.2,117.365l.778-2.73.1-.342.566-1.987.02-.072.185-.652.53-1.863.175-.613.014-.053.14-.49.11-.388.023-.081h2.023l-2.267,7.961a23.766,23.766,0,0,0-2.4,1.309Zm3.951-1.985,2.075-7.284h2.032l-1.848,6.489C24.632,114.824,23.879,115.087,23.147,115.38Zm3.743-1.217,1.728-6.067H30.65l-1.585,5.562q-1.11.225-2.175.5Zm3.614-.774,1.507-5.293h2.032l-1.415,4.971Q31.548,113.208,30.5,113.388Zm3.537-.493,1.366-4.8H37.44l-1.31,4.6c-.706.059-1.4.125-2.089.2Zm3.482-.306L38.8,108.1h2.032l-1.246,4.376C38.892,112.506,38.2,112.544,37.523,112.59Zm3.446-.178L42.2,108.1H44.23l-1.211,4.253q-1.037.026-2.05.064Zm3.42-.094,1.2-4.223h2.032l-1.195,4.2c-.687.007-1.368.017-2.041.028Zm3.408-.038,1.192-4.186h1.3l-1.139,4.179-1.357.007Z" transform="translate(80.751 451.983)" fill="#b38e5f"/>
    <path id="Caminho_24667" data-name="Caminho 24667" d="M19.658,116.056l2.267-7.961h1.364l-2.075,7.284C20.684,115.59,20.165,115.817,19.658,116.056Z" transform="translate(82.684 451.983)" fill="#90744f"/>
    <path id="Caminho_24668" data-name="Caminho 24668" d="M20.394,114.584l1.848-6.489h1.364l-1.728,6.067q-.754.2-1.483.422Z" transform="translate(85.764 451.983)" fill="#90744f"/>
    <path id="Caminho_24669" data-name="Caminho 24669" d="M21.1,113.658l1.585-5.562h1.361l-1.507,5.293q-.73.124-1.439.269Z" transform="translate(88.717 451.983)" fill="#90744f"/>
    <path id="Caminho_24670" data-name="Caminho 24670" d="M21.787,113.065l1.415-4.97h1.364l-1.366,4.8C22.723,112.946,22.253,113,21.787,113.065Z" transform="translate(91.592 451.981)" fill="#90744f"/>
    <path id="Caminho_24671" data-name="Caminho 24671" d="M22.463,112.694l1.31-4.6h1.364l-1.28,4.495Q23.152,112.639,22.463,112.694Z" transform="translate(94.418 451.983)" fill="#90744f"/>
    <path id="Caminho_24672" data-name="Caminho 24672" d="M23.13,112.472l1.246-4.376H25.74l-1.229,4.317C24.046,112.429,23.588,112.451,23.13,112.472Z" transform="translate(97.21 451.984)" fill="#90744f"/>
    <path id="Caminho_24673" data-name="Caminho 24673" d="M23.792,112.347,25,108.095h1.362l-1.2,4.223C24.7,112.327,24.245,112.337,23.792,112.347Z" transform="translate(99.979 451.981)" fill="#90744f"/>
    <path id="Caminho_24674" data-name="Caminho 24674" d="M24.45,112.291l1.195-4.2h1.364l-1.192,4.186c-.459,0-.913.006-1.367.01Z" transform="translate(102.731 451.984)" fill="#90744f"/>
    <path id="Caminho_24675" data-name="Caminho 24675" d="M31.059,112.423l-.582-.025.484-4.3h.119l-.021,4.327Zm-1.921-.08-1.022-.032.95-4.215H29.6Zm-2.361-.062c-.171,0-.341-.007-.513-.009H25.235l1.157-4.177H27.7l-.925,4.186Z" transform="translate(106.016 451.983)" fill="#b38e5f"/>
    <path id="Caminho_24676" data-name="Caminho 24676" d="M24.975,112.274l1.139-4.179h1.364l-1.157,4.177-1.346,0Z" transform="translate(104.93 451.984)" fill="#90744f"/>
    <path id="Caminho_24677" data-name="Caminho 24677" d="M26.872,112.31c-.443-.011-.888-.021-1.34-.03l.925-4.186h1.365l-.95,4.215Z" transform="translate(107.26 451.982)" fill="#90744f"/>
    <path id="Caminho_24678" data-name="Caminho 24678" d="M27.327,112.4c-.44-.022-.89-.038-1.339-.055l.46-4.247h1.364l-.484,4.3Z" transform="translate(109.166 451.984)" fill="#90744f"/>
    <path id="Caminho_24679" data-name="Caminho 24679" d="M32.395,113.269c-.726-.1-1.464-.188-2.221-.273l-1.336-4.9h2.084Zm-3.6-.418c-.191-.019-.387-.038-.579-.055l-1.039-4.7h.3l1.318,4.756Z" transform="translate(114.13 451.982)" fill="#b38e5f"/>
    <path id="Caminho_24680" data-name="Caminho 24680" d="M29.931,113c-.454-.051-.915-.1-1.381-.145l-1.318-4.756h1.362l1.336,4.9Z" transform="translate(114.372 451.981)" fill="#90744f"/>
    <path id="Caminho_24681" data-name="Caminho 24681" d="M29.172,112.677c-.226-.019-.455-.039-.684-.055L28,108.1h.141l1.033,4.582Zm-2.039-.149-.516-.032.039-4.2.477,4.236Z" transform="translate(111.8 451.983)" fill="#b38e5f"/>
    <path id="Caminho_24682" data-name="Caminho 24682" d="M29.315,112.8c-.453-.042-.908-.082-1.371-.119L26.911,108.1h1.365l1.039,4.7Z" transform="translate(113.028 451.983)" fill="#90744f"/>
    <path id="Caminho_24683" data-name="Caminho 24683" d="M28.457,112.622c-.447-.032-.9-.064-1.355-.094l-.477-4.236,0-.2h1.34Z" transform="translate(111.831 451.981)" fill="#90744f"/>
    <path id="Caminho_24684" data-name="Caminho 24684" d="M27.7,112.5c-.443-.027-.888-.051-1.342-.074l.021-4.327h1.362l0,.2Z" transform="translate(110.717 451.983)" fill="#90744f"/>
    <path id="Caminho_24685" data-name="Caminho 24685" d="M30.789,113.469c-.465-.068-.939-.136-1.419-.2L27.9,108.1h1.361l1.531,5.373Z" transform="translate(117.154 451.983)" fill="#90744f"/>
    <path id="Caminho_24686" data-name="Caminho 24686" d="M29.776,68.562a2.58,2.58,0,1,1,2.58-2.58A2.579,2.579,0,0,1,29.776,68.562Zm0-6.687a4.107,4.107,0,1,0,4.107,4.107A4.108,4.108,0,0,0,29.776,61.875Z" transform="translate(107.831 258.626)" fill="#7d313a"/>
    <path id="Caminho_24687" data-name="Caminho 24687" d="M25.824,280.824h6.608V63.184H25.824Z" transform="translate(108.479 264.102)" fill="#b7b7b8"/>
    <path id="Caminho_24688" data-name="Caminho 24688" d="M26.724,280.824h1.941V63.184H26.724Z" transform="translate(112.246 264.102)" fill="#f1f1f0"/>
    <path id="Caminho_24689" data-name="Caminho 24689" d="M25.824,280.824h2.03V63.184h-2.03Z" transform="translate(108.479 264.102)" fill="#8e8f91"/>
    <path id="Caminho_24690" data-name="Caminho 24690" d="M19.557,115.911v-4.548l11.271-4.544H79.863l11.27,4.544v4.548Z" transform="translate(82.262 446.642)" fill="#3f294d"/>
    <path id="Caminho_24691" data-name="Caminho 24691" d="M19.557,110.572H91.133v-2.477H19.557Z" transform="translate(82.262 451.981)" fill="#3f294d"/>
    <path id="Caminho_24692" data-name="Caminho 24692" d="M68.891,107.577c0,.762-4.622,2.976-23.584,2.976s-23.376-2.713-23.376-3.474,3.791.064,22.754.064S68.891,106.816,68.891,107.577Z" transform="translate(92.195 446.38)" fill="#6a3b82"/>
    <path id="Caminho_24693" data-name="Caminho 24693" d="M24.365,113.188H46.1V106.2H24.365Z" transform="translate(102.378 444.054)" fill="#3f294d"/>
    <path id="Caminho_24694" data-name="Caminho 24694" d="M24.365,110.6H46.1v-3.781H24.365Z" transform="translate(102.378 446.642)" fill="#3f294d"/>
    <path id="Caminho_24695" data-name="Caminho 24695" d="M39.794,106.2h-12.5a2.522,2.522,0,0,0-2.521,2.522H42.317A2.522,2.522,0,0,0,39.794,106.2Z" transform="translate(104.065 444.054)" fill="#6a3b82"/>
    <path id="Caminho_24696" data-name="Caminho 24696" d="M25.433,110.817H36.09V105.1H25.433Z" transform="translate(106.846 439.436)" fill="#6a3b82"/>
    <path id="Caminho_24697" data-name="Caminho 24697" d="M25.556,66.045h9.388V63.184H25.556Z" transform="translate(107.357 264.102)" fill="#b64050"/>
    <path id="Caminho_24698" data-name="Caminho 24698" d="M78.855,109.365H31.93l4.407-3.207H74.447Z" transform="translate(134.024 443.878)" fill="#3f294d"/>
    <path id="Caminho_24699" data-name="Caminho 24699" d="M31.93,110.558H78.854v-3.781H31.93Z" transform="translate(134.024 446.467)" fill="#3f294d"/>
    <path id="Caminho_24700" data-name="Caminho 24700" d="M39.771,80.665a2.579,2.579,0,1,1,2.579-2.58A2.578,2.578,0,0,1,39.771,80.665Zm0-6.688a4.108,4.108,0,1,0,4.106,4.108A4.107,4.107,0,0,0,39.771,73.977Z" transform="translate(149.645 309.252)" fill="#7d313a"/>
    <path id="Caminho_24701" data-name="Caminho 24701" d="M35.819,229.648h6.61V75.286h-6.61Z" transform="translate(150.292 314.729)" fill="#b7b7b8"/>
    <path id="Caminho_24702" data-name="Caminho 24702" d="M36.719,229.648h1.943V75.286H36.719Z" transform="translate(154.059 314.729)" fill="#f1f1f0"/>
    <path id="Caminho_24703" data-name="Caminho 24703" d="M35.819,229.648h2.03V75.286h-2.03Z" transform="translate(150.292 314.729)" fill="#8e8f91"/>
    <path id="Caminho_24704" data-name="Caminho 24704" d="M49.792,106.094H37.283a2.519,2.519,0,0,0-2.52,2.52h17.55A2.52,2.52,0,0,0,49.792,106.094Z" transform="translate(145.877 443.61)" fill="#6a3b82"/>
    <path id="Caminho_24705" data-name="Caminho 24705" d="M35.428,111.047H46.085v-6.057H35.428Z" transform="translate(148.657 438.99)" fill="#6a3b82"/>
    <path id="Caminho_24706" data-name="Caminho 24706" d="M35.551,78.146h9.389v-2.86H35.551Z" transform="translate(149.171 314.729)" fill="#b64050"/>
    <path id="Caminho_24707" data-name="Caminho 24707" d="M107.963,137.316,92.678,106.94H44.108L28.822,137.316,47.368,119H89.234Z" transform="translate(121.023 447.148)" fill="#3f294d"/>
    <path id="Caminho_24708" data-name="Caminho 24708" d="M77.629,118.812H34.482L31.771,106.94H80.342Z" transform="translate(133.36 447.148)" fill="#6a3b82"/>
    <path id="Caminho_24709" data-name="Caminho 24709" d="M107.963,127.734H28.822l18-18.5H89.965Z" transform="translate(121.023 456.73)" fill="#3f294d"/>
    <path id="Caminho_24710" data-name="Caminho 24710" d="M32.626,81.92c7.845-.085,16.656-13.074,3.907-22.378,12.647,4.137,10.433,25.032-3.891,25.032l-.016-2.654Z" transform="translate(136.934 248.866)" fill="#3f294d" fill-rule="evenodd"/>
    <path id="Caminho_24711" data-name="Caminho 24711" d="M42.571,59.384C49.436,59.384,55,64.614,55,71.065s-5.566,11.68-12.431,11.68S30.14,77.515,30.14,71.065,35.706,59.384,42.571,59.384Zm-6.638,5.978h3.739a1.244,1.244,0,0,1,1.349,1.264l-.011,6.091c.1.885.65.993,1.336,1l3.6,0a1.772,1.772,0,0,1-1.522,1.477c-1.116.308-4.981.574-5.056-2.171l-.019-5.9L37.537,67.1l.062,5.714c.7,6.563,10.507,5.08,10.32-.007.036-2.055-.047-4.119-.011-6.174a1.584,1.584,0,0,1,1.625-1.3l.028,7.119a6.844,6.844,0,0,1-7.826,6.485A6.617,6.617,0,0,1,35.964,72.4Zm8.333-.047,1.663.358-.6,2.773c-.435.534-.974,1.127-1.908.778l.84-3.908Z" transform="translate(126.536 248.207)" fill="#fefefe" fill-rule="evenodd"/>
  </g>
</svg>
